<svg xmlns="http://www.w3.org/2000/svg" width="44" height="40" viewBox="0 0 50 46.048">
  <defs>
    <style>
      .cls-1 {
        fill: #2070df;
      }

      .cls-1, .cls-5 {
        mix-blend-mode: multiply;
      }

      .cls-1, .cls-5, .cls-6 {
        isolation: isolate;
      }

      .cls-2, .cls-4 {
        fill: #fff;
      }

      .cls-2 {
        opacity: 0.8;
      }

      .cls-3, .cls-5 {
        fill: #4cc3ff;
      }
    </style>
  </defs>
  <g id="Group_1912" data-name="Group 1912" transform="translate(-632 -2474.952)">
    <circle id="Ellipse_396" data-name="Ellipse 396" class="cls-1" cx="17.5" cy="17.5" r="17.5" transform="translate(647 2486)"/>
    <path id="Path_2989" data-name="Path 2989" class="cls-2" d="M68.193,11.313H67.08a.875.875,0,0,1,.286.549h.827V12.4H67.38a1.222,1.222,0,0,1-.278.633.99.99,0,0,1-.512.326v.015a1.167,1.167,0,0,1,.556.293,1.723,1.723,0,0,1,.359.7,10.8,10.8,0,0,1,.3,1.471H66.619q-.1-.71-.183-1.091a3.091,3.091,0,0,0-.147-.531.885.885,0,0,0-.154-.245.809.809,0,0,0-.586-.2H64.533V13.1h.746a1.48,1.48,0,0,0,.732-.157.685.685,0,0,0,.329-.545H64.533v-.534h1.793a.622.622,0,0,0-.311-.421,1.3,1.3,0,0,0-.618-.128h-.864v-.534h3.66Z" transform="translate(597.158 2464.171)"/>
    <circle id="Ellipse_395" data-name="Ellipse 395" class="cls-3" cx="17.5" cy="17.5" r="17.5" transform="translate(632 2475)"/>
    <path id="Path_8324" data-name="Path 8324" class="cls-4" d="M4.756,0c.277.078.56.14.831.237a4.206,4.206,0,0,1,2.232,6.07c-.044.077-.086.156-.129.233l.084.076c.254-.275.5-.559.763-.823a5.241,5.241,0,0,1,7.742.111c.039.041.073.088.112.136l-4.517,4.506c-.612.608-.834.941-1.361,1.431L6.085,16.448a5.481,5.481,0,0,1,.461-8.729,1.576,1.576,0,0,0-.191.079,4.181,4.181,0,0,1-6.3-2.911A.534.534,0,0,0,0,4.765V3.644a.845.845,0,0,0,.061-.158A4.169,4.169,0,0,1,1.786.757,5.2,5.2,0,0,1,3.637,0Z" transform="translate(665.164 2494.291) rotate(45)"/>
    <path id="Intersection_2" data-name="Intersection 2" class="cls-5" d="M16.229,34.955A17.511,17.511,0,0,1,32.5,11q.642,0,1.271.046A17.51,17.51,0,0,1,17.5,35Q16.859,35,16.229,34.955Z" transform="translate(632 2475)"/>
    <g id="Group_1735" data-name="Group 1735" class="cls-6" transform="translate(404.431 11.301)">
      <path id="Path_2889" data-name="Path 2889" class="cls-4" d="M20.077,73.286a.452.452,0,0,1-.307-.492c.012-.351,0-.7,0-1.055,0-.3.152-.443.465-.443h11.2c.313,0,.464.143.465.443,0,.352-.009.7,0,1.055a.452.452,0,0,1-.307.492Z" transform="translate(219.349 2414.413)"/>
      <path id="Path_2890" data-name="Path 2890" class="cls-4" d="M19.654,46v-.628h-.506c-.249,0-.4-.1-.446-.294s.045-.356.277-.468l3.487-1.68c.835-.4,1.671-.8,2.5-1.209a.562.562,0,0,1,.551.008c1.911.964,3.827,1.92,5.738,2.885a.584.584,0,0,1,.253.233.368.368,0,0,1-.346.524c-.189.007-.379,0-.578,0V46Zm5.459-1.872h.621a.381.381,0,1,0,0-.761q-.615-.005-1.23,0a.381.381,0,1,0,0,.761h.609" transform="translate(220.027 2433.045)"/>
      <rect id="Rectangle_892" data-name="Rectangle 892" class="cls-4" width="2.747" height="5.11" transform="translate(240.022 2479.828)"/>
      <rect id="Rectangle_893" data-name="Rectangle 893" class="cls-4" width="2.744" height="5.115" transform="translate(247.522 2479.825)"/>
      <rect id="Rectangle_894" data-name="Rectangle 894" class="cls-4" width="2.737" height="5.115" transform="translate(243.777 2479.823)"/>
    </g>
  </g>
</svg>
