<svg xmlns="http://www.w3.org/2000/svg" width="44" height="40" viewBox="0 0 50 46">
  <defs>
    <style>
      .cls-1 {
        fill: #fa0;
        mix-blend-mode: multiply;
        isolation: isolate;
      }

      .cls-2 {
        fill: #fc3;
      }

      .cls-3 {
        fill: #fff;
      }

      .cls-4 {
        fill: #f9a700;
        opacity: 0.44;
      }
    </style>
  </defs>
  <g id="Group_3549" data-name="Group 3549" transform="translate(-924 -2222)">
    <g id="Group_3534" data-name="Group 3534" transform="translate(502)">
      <g id="Group_1912" data-name="Group 1912" transform="translate(-210 -253)">
        <circle id="Ellipse_396" data-name="Ellipse 396" class="cls-1" cx="17.5" cy="17.5" r="17.5" transform="translate(647 2486)"/>
        <circle id="Ellipse_395" data-name="Ellipse 395" class="cls-2" cx="17.5" cy="17.5" r="17.5" transform="translate(632 2475)"/>
        <g id="Group_4221" data-name="Group 4221" transform="translate(658.325 2498)">
          <rect id="Rectangle_1139" data-name="Rectangle 1139" class="cls-3" width="13.804" height="10.418" rx="1" transform="translate(0 0)"/>
          <path id="Path_3079" data-name="Path 3079" class="cls-4" d="M188.947,2993.127v-2.01l1.766-1.364,1.674,1.076,2.669-2.577,1.513,1.5,1.558-2.265v5.639Z" transform="translate(-186.635 -2984.902)"/>
        </g>
        <path id="Intersection_2" data-name="Intersection 2" class="cls-1" d="M16.229,34.955A17.511,17.511,0,0,1,32.5,11q.642,0,1.271.046A17.51,17.51,0,0,1,17.5,35Q16.859,35,16.229,34.955Z" transform="translate(632 2475)"/>
      </g>
    </g>
    <g id="Group_1874" data-name="Group 1874" transform="translate(697.235 -809.58)">
      <path id="Path_2894" data-name="Path 2894" class="cls-3" d="M51.078,56.78a1.871,1.871,0,0,1-.344.789,1.556,1.556,0,0,1-2.77-1.014.187.187,0,0,1,.052-.015h3.063Z" transform="translate(200.26 2991.372)"/>
      <path id="Path_2895" data-name="Path 2895" class="cls-3" d="M20.741,60.478a2.474,2.474,0,0,0,4.014,0,2.465,2.465,0,0,0,4,0,2.488,2.488,0,0,0,2.672.946v5.253H18.069v-5.25a2.486,2.486,0,0,0,2.672-.946" transform="translate(219.009 2988.902)"/>
      <path id="Path_2896" data-name="Path 2896" class="cls-3" d="M29.688,41.2v4.818H26.662c.039-.232.074-.454.113-.676q.35-2,.7-4c.019-.109.056-.145.172-.145.636.005,1.273,0,1.908,0,.043,0,.086,0,.138.007" transform="translate(213.619 3000.998)"/>
      <path id="Path_2897" data-name="Path 2897" class="cls-3" d="M37.206,41.2c.05,0,.094-.008.137-.008h1.909c.112,0,.15.034.172.144q.389,2.258.786,4.514c.009.052.013.1.02.167H37.206Z" transform="translate(207.007 3000.997)"/>
      <path id="Path_2898" data-name="Path 2898" class="cls-3" d="M20.027,41.206l-.841,4.812h-3c.012-.047.02-.086.034-.127q.8-2.282,1.6-4.571c.026-.075.047-.127.147-.126.661,0,1.322,0,1.979,0,.019,0,.038,0,.086.01" transform="translate(220.189 3000.997)"/>
      <path id="Path_2899" data-name="Path 2899" class="cls-3" d="M49.338,46.017h-3L45.5,41.206c.052-.005.094-.011.136-.011h1.908a.148.148,0,0,1,.167.12Q48.5,43.6,49.3,45.888c.014.04.024.086.039.133" transform="translate(201.807 3000.997)"/>
      <path id="Path_2900" data-name="Path 2900" class="cls-3" d="M15.685,56.553H18.8a1.556,1.556,0,1,1-3.11,0" transform="translate(220.506 2991.363)"/>
      <path id="Path_2901" data-name="Path 2901" class="cls-3" d="M37.21,56.545h3.1a1.553,1.553,0,1,1-3.1,0" transform="translate(207.008 2991.368)"/>
      <path id="Path_2902" data-name="Path 2902" class="cls-3" d="M29.553,56.565a1.553,1.553,0,1,1-3.105,0Z" transform="translate(213.755 2991.355)"/>
    </g>
  </g>
</svg>
