<svg xmlns="http://www.w3.org/2000/svg" xmlns:xlink="http://www.w3.org/1999/xlink" width="44" height="40" viewBox="0 0 50 46">
  <defs>
    <style>
      .cls-1 {
        fill: #fff;
      }

      .cls-2 {
        fill: #fa0;
        mix-blend-mode: multiply;
        isolation: isolate;
      }

      .cls-3 {
        fill: #fc3;
      }

      .cls-4 {
        clip-path: url(#clip-path);
      }

      .cls-5 {
        clip-path: url(#clip-path-2);
      }
    </style>
    <clipPath id="clip-path">
      <rect id="Rectangle_2099" data-name="Rectangle 2099" class="cls-1" width="18.431" height="18.419"/>
    </clipPath>
    <clipPath id="clip-path-2">
      <rect id="Rectangle_1165" data-name="Rectangle 1165" class="cls-1" width="11.654" height="19.394"/>
    </clipPath>
  </defs>
  <g id="Group_4083" data-name="Group 4083" transform="translate(-924 -2222)">
    <g id="Group_3534" data-name="Group 3534" transform="translate(502)">
      <g id="Group_1912" data-name="Group 1912" transform="translate(-210 -253)">
        <circle id="Ellipse_396" data-name="Ellipse 396" class="cls-2" cx="17.5" cy="17.5" r="17.5" transform="translate(647 2486)"/>
        <circle id="Ellipse_395" data-name="Ellipse 395" class="cls-3" cx="17.5" cy="17.5" r="17.5" transform="translate(632 2475)"/>
        <g id="Group_4224" data-name="Group 4224" transform="translate(655.669 2493.84)">
          <g id="Group_3688" data-name="Group 3688" class="cls-4">
            <path id="Path_8548" data-name="Path 8548" class="cls-1" d="M4.725,18.482a1.66,1.66,0,0,1-.291-.25.533.533,0,0,1,.214-.778c.052-.026.108-.046.183-.078-.058-.038-.1-.069-.143-.095a9.077,9.077,0,0,1-4.473-6.14A8.839,8.839,0,0,1,2.26,3.272,8.91,8.91,0,0,1,7.5.229,13.715,13.715,0,0,1,9.21.068.515.515,0,0,1,9.761.6a.529.529,0,0,1-.549.54A7.99,7.99,0,0,0,4.794,2.479,8.028,8.028,0,0,0,1.229,7.844a8.136,8.136,0,0,0,3.693,8.3c.044.028.092.051.163.09,0-.083,0-.145,0-.207a.539.539,0,0,1,.4-.516.518.518,0,0,1,.592.233c.25.5.49,1.012.71,1.529a.514.514,0,0,1-.341.661c-.411.162-.827.313-1.24.47-.054.02-.1.05-.155.076Z" transform="translate(0 -0.063)"/>
            <path id="Path_8549" data-name="Path 8549" class="cls-1" d="M180.905,18.419c-.325-.182-.452-.4-.385-.667a.542.542,0,0,1,.542-.412,8.148,8.148,0,0,0,7.978-6.7,8.154,8.154,0,0,0-3.66-8.3c-.065-.041-.132-.078-.2-.119a1.643,1.643,0,0,1,0,.338.522.522,0,0,1-.423.417.513.513,0,0,1-.557-.242c-.245-.5-.483-1-.7-1.512a.518.518,0,0,1,.319-.673q.573-.255,1.152-.5a.548.548,0,0,1,.725.239.542.542,0,0,1-.228.727l-.066.039c.384.255.783.489,1.147.767a9.145,9.145,0,0,1,3.612,5.994c.04.247.072.5.107.743v1.3c-.011.046-.027.092-.034.138-.061.4-.1.807-.185,1.2a9.261,9.261,0,0,1-7.335,7.074c-.335.057-.672.1-1.008.147Z" transform="translate(-171.828 0)"/>
            <path id="Path_8550" data-name="Path 8550" class="cls-1" d="M213.378,213.124Z" transform="translate(-194.947 -194.705)"/>
            <path id="Path_8551" data-name="Path 8551" class="cls-1" d="M57.406,55.578c.146.14.322.3.49.473a.537.537,0,0,1,0,.825q-.733.742-1.475,1.475a.536.536,0,0,1-.812,0c-.168-.163-.332-.328-.5-.493,0,0-.01-.006.009,0-.422.164-.828.319-1.231.484-.036.015-.064.093-.066.142-.007.21,0,.42,0,.629a.528.528,0,0,1-.543.545q-1.079,0-2.158,0a.526.526,0,0,1-.535-.535c0-.216,0-.432,0-.647a.192.192,0,0,0-.089-.143c-.391-.162-.786-.313-1.221-.484-.134.14-.29.313-.455.477a.544.544,0,0,1-.851,0q-.727-.723-1.449-1.45a.542.542,0,0,1,0-.838c.143-.145.293-.284.429-.435a.19.19,0,0,0,.026-.164q-.215-.54-.45-1.073a.209.209,0,0,0-.149-.1c-.221-.011-.443,0-.665-.005a.529.529,0,0,1-.55-.556q0-1.061,0-2.122a.531.531,0,0,1,.566-.558c.216,0,.432.005.647,0a.194.194,0,0,0,.147-.085c.161-.391.312-.787.485-1.229-.136-.129-.307-.285-.472-.448a.546.546,0,0,1,0-.863q.711-.714,1.424-1.424a.55.55,0,0,1,.876,0c.16.16.314.328.444.464.438-.171.839-.324,1.236-.487a.179.179,0,0,0,.074-.137c.008-.215,0-.432,0-.647a.525.525,0,0,1,.533-.537q1.088,0,2.176,0a.523.523,0,0,1,.527.524c0,.216,0,.432,0,.647a.2.2,0,0,0,.08.15c.4.164.8.317,1.229.485.143-.148.306-.324.476-.492a.533.533,0,0,1,.812-.007q.749.738,1.488,1.488a.534.534,0,0,1-.008.812c-.168.171-.344.333-.492.475.169.432.323.833.487,1.23a.2.2,0,0,0,.151.079c.221.009.443,0,.665,0a.528.528,0,0,1,.541.547q0,1.07,0,2.14a.529.529,0,0,1-.557.55c-.222,0-.444,0-.665,0a.177.177,0,0,0-.135.076c-.163.4-.317.8-.487,1.233m-1.429-2.935a3.777,3.777,0,1,0-3.769,3.781,3.8,3.8,0,0,0,3.769-3.781" transform="translate(-42.979 -43.437)"/>
          </g>
        </g>
        <path id="Intersection_2" data-name="Intersection 2" class="cls-2" d="M16.229,34.955A17.511,17.511,0,0,1,32.5,11q.642,0,1.271.046A17.51,17.51,0,0,1,17.5,35Q16.859,35,16.229,34.955Z" transform="translate(632 2475)"/>
      </g>
    </g>
    <g id="Group_4225" data-name="Group 4225" transform="translate(115.001 -90.545)">
      <g id="Group_1836" data-name="Group 1836" transform="translate(820.139 2320.502)">
        <g id="Group_1831" data-name="Group 1831" class="cls-5">
          <path id="Path_3080" data-name="Path 3080" class="cls-1" d="M2.4,319.4l-.282-.086A2.032,2.032,0,0,1,.7,317.395c0-.466,0-.931,0-1.41H12.1c0,.166,0,.328,0,.49a7.923,7.923,0,0,1-.043,1.264,1.938,1.938,0,0,1-1.607,1.625.267.267,0,0,0-.063.034Z" transform="translate(-0.66 -300.004)"/>
          <path id="Path_3081" data-name="Path 3081" class="cls-1" d="M.921,90.345H12.474v10.263H.921Zm4.865,7.983,4.79-4.79-.787-.786L5.782,96.76,4.2,95.178l-.784.785,2.366,2.365" transform="translate(-0.874 -85.776)"/>
          <path id="Path_3082" data-name="Path 3082" class="cls-1" d="M0,3.42A13.99,13.99,0,0,1,.127,1.487,1.963,1.963,0,0,1,2.265.013a.275.275,0,0,1,.157.132q.6.993,1.2,1.992a.253.253,0,0,0,.252.148q1.874-.008,3.747,0a.239.239,0,0,0,.238-.136C8.239,1.5,8.636.854,9.015.2A.35.35,0,0,1,9.371,0,2,2,0,0,1,11.41,1.693a7.272,7.272,0,0,1,.033,1.076c0,.213,0,.426,0,.652Z" transform="translate(0 0.001)"/>
          <path id="Path_3083" data-name="Path 3083" class="cls-1" d="M72.531.336h4.143c-.224.373-.434.729-.653,1.079-.022.034-.1.05-.146.05q-1.268,0-2.536,0a.215.215,0,0,1-.16-.061c-.217-.345-.424-.7-.647-1.068" transform="translate(-68.863 -0.319)"/>
        </g>
      </g>
    </g>
  </g>
</svg>
