<svg xmlns="http://www.w3.org/2000/svg" xmlns:xlink="http://www.w3.org/1999/xlink" width="44" height="40" viewBox="0 0 50 46">
  <defs>
    <style>
      .cls-1 {
        fill: #fff;
      }

      .cls-2 {
        fill: #fa0;
        mix-blend-mode: multiply;
        isolation: isolate;
      }

      .cls-3 {
        fill: #fc3;
      }

      .cls-4 {
        clip-path: url(#clip-path);
      }

      .cls-5 {
        clip-path: url(#clip-path-2);
      }
    </style>
    <clipPath id="clip-path">
      <rect id="Rectangle_2422" data-name="Rectangle 2422" class="cls-1" width="18.039" height="12.431"/>
    </clipPath>
    <clipPath id="clip-path-2">
      <rect id="Rectangle_2388" data-name="Rectangle 2388" class="cls-1" width="15.067" height="15.066"/>
    </clipPath>
  </defs>
  <g id="Group_4082" data-name="Group 4082" transform="translate(-924 -2222)">
    <g id="Group_3534" data-name="Group 3534" transform="translate(502)">
      <g id="Group_1912" data-name="Group 1912" transform="translate(-210 -253)">
        <circle id="Ellipse_396" data-name="Ellipse 396" class="cls-2" cx="17.5" cy="17.5" r="17.5" transform="translate(647 2486)"/>
        <circle id="Ellipse_395" data-name="Ellipse 395" class="cls-3" cx="17.5" cy="17.5" r="17.5" transform="translate(632 2475)"/>
        <g id="Group_4223" data-name="Group 4223" transform="translate(657 2498)">
          <g id="Group_4012" data-name="Group 4012" class="cls-4">
            <path id="Path_8997" data-name="Path 8997" class="cls-1" d="M0,31.89a.661.661,0,0,1,.709-.427c.586.018,1.174,0,1.761.005a.573.573,0,0,1,.623.478c.124.469.252.938.364,1.411.037.158.107.194.263.193,1.579-.007,3.158,0,4.736,0h.224a5.283,5.283,0,0,0,4.443,5.765c-.044.43-.2.59-.636.663a1.77,1.77,0,0,1-.649,2.092,1.712,1.712,0,0,1-1.982.04A1.767,1.767,0,0,1,9.14,39.97H7.845A1.756,1.756,0,0,1,7,42.178a1.642,1.642,0,0,1-1.928-.172A1.756,1.756,0,0,1,4.5,39.968c-.434,0-.569-.29-.662-.656-.559-2.182-1.132-4.361-1.7-6.542-.036-.138-.09-.185-.236-.181-.4.012-.8-.011-1.2.009A.656.656,0,0,1,0,32.172Zm11.455,8.727a.642.642,0,1,0-1.284-.007.642.642,0,1,0,1.284.007m-5.929-.008a.643.643,0,1,0,.648-.647.642.642,0,0,0-.648.647" transform="translate(0 -29.982)"/>
            <path id="Path_8998" data-name="Path 8998" class="cls-1" d="M211.723,8.262a4.131,4.131,0,1,1,4.145-4.027,4.142,4.142,0,0,1-4.145,4.027m.571-4.694c0-.238.009-.45,0-.66a.559.559,0,1,0-1.116.033c0,.2,0,.407,0,.627-.226,0-.43,0-.634,0a.563.563,0,1,0,.006,1.124c.2,0,.407,0,.628,0,0,.242,0,.463,0,.685a.558.558,0,1,0,1.116-.043c.008-.209,0-.418,0-.642h.6a.565.565,0,1,0,0-1.125c-.192,0-.385,0-.6,0" transform="translate(-197.829 0)"/>
          </g>
        </g>
        <path id="Intersection_2" data-name="Intersection 2" class="cls-2" d="M16.229,34.955A17.511,17.511,0,0,1,32.5,11q.642,0,1.271.046A17.51,17.51,0,0,1,17.5,35Q16.859,35,16.229,34.955Z" transform="translate(632 2475)"/>
      </g>
    </g>
    <g id="Group_4222" data-name="Group 4222" transform="translate(933.933 2231.92)">
      <g id="Group_3965" data-name="Group 3965" class="cls-5">
        <path id="Path_8892" data-name="Path 8892" class="cls-1" d="M.022,129.693H15.085v.165q0,3.438,0,6.876a2.581,2.581,0,0,1-2.616,2.61H2.641a2.581,2.581,0,0,1-2.619-2.623q0-3.43,0-6.86v-.168m8.473,1.425a.7.7,0,0,0-.688.53q-.307.882-.612,1.764-.618,1.779-1.236,3.558a.7.7,0,0,0,.374.9A.713.713,0,0,0,7.3,137.4c.307-.876.609-1.754.914-2.631.313-.9.631-1.8.938-2.705a.691.691,0,0,0-.656-.945M3.84,134.393c.467-.465.924-.913,1.373-1.369a.689.689,0,0,0,.008-1,.7.7,0,0,0-1.006.021q-.925.919-1.844,1.844a.688.688,0,0,0,0,1.027q.918.927,1.844,1.845a.7.7,0,1,0,.986-1c-.407-.411-.817-.818-1.225-1.227-.04-.04-.078-.082-.132-.139m7.427,0c-.053.056-.091.1-.131.137-.412.413-.826.823-1.236,1.238a.7.7,0,0,0-.022,1.006.7.7,0,0,0,1.007-.007c.165-.159.325-.323.487-.485.453-.453.908-.9,1.358-1.359a.682.682,0,0,0,.049-.992q-.955-.977-1.933-1.932a.7.7,0,1,0-.94,1.035c.447.451.9.9,1.362,1.359" transform="translate(-0.021 -124.279)"/>
        <path id="Path_8893" data-name="Path 8893" class="cls-1" d="M15.065,3.994H.013A1.085,1.085,0,0,1,0,3.881c0-.464,0-.927,0-1.39A2.6,2.6,0,0,1,2.193.032,3.608,3.608,0,0,1,2.644,0q4.89,0,9.779,0a2.575,2.575,0,0,1,2.591,2.089,3.858,3.858,0,0,1,.049.714c.007.394,0,.789,0,1.191M10.581,2.818c.541,0,1.082,0,1.623,0a.7.7,0,1,0,.015-1.4q-1.631-.008-3.262,0a.685.685,0,0,0-.71.724.685.685,0,0,0,.726.673c.536,0,1.072,0,1.607,0M2.835,1.434a.676.676,0,0,0-.71.687.7.7,0,0,0,.693.7.7.7,0,0,0,.714-.694.681.681,0,0,0-.7-.689m2.117,0a.671.671,0,0,0-.7.673.687.687,0,0,0,.69.711.7.7,0,0,0,.71-.7.68.68,0,0,0-.695-.689" transform="translate(0 0)"/>
      </g>
    </g>
  </g>
</svg>
