<svg xmlns="http://www.w3.org/2000/svg" width="44" height="40" viewBox="0 0 50 46">
  <g id="Group_4087" data-name="Group 4087" transform="translate(-140 -2222)">
    <g id="Group_1912" data-name="Group 1912" transform="translate(-492 -253)">
      <circle id="Ellipse_396" data-name="Ellipse 396" cx="17.5" cy="17.5" r="17.5" transform="translate(647 2486)" fill="#fa0" style="mix-blend-mode: multiply;isolation: isolate"/>
      <circle id="Ellipse_395" data-name="Ellipse 395" cx="17.5" cy="17.5" r="17.5" transform="translate(632 2475)" fill="#fc3"/>
      <path id="Path_3101" data-name="Path 3101" d="M66.492,25.2l-5.08-5.084,1.906-1.907,3.239,3.237,6.562-5.964,1.839,2.02-8.466,7.7" transform="translate(596.588 2483.803)" fill="#fff"/>
      <path id="Intersection_2" data-name="Intersection 2" d="M16.229,34.955A17.511,17.511,0,0,1,32.5,11q.642,0,1.271.046A17.51,17.51,0,0,1,17.5,35Q16.859,35,16.229,34.955Z" transform="translate(632 2475)" fill="#fa0" style="mix-blend-mode: multiply;isolation: isolate"/>
    </g>
    <rect id="Rectangle_6847" data-name="Rectangle 6847" width="19" height="19" rx="4" transform="translate(148 2229.854)" fill="#fff"/>
    <text id="LIVE" transform="translate(150 2241.854)" fill="#fc3" font-size="7" font-family="Roboto-Black, Roboto" font-weight="800" letter-spacing="0.01em"><tspan x="0" y="0">LIVE</tspan></text>
  </g>
</svg>
