<svg xmlns="http://www.w3.org/2000/svg" width="35" height="25.469" viewBox="0 0 35 25.469">
  <defs>
    <style>
      .cls-1 {
        fill: #4cc3ff;
      }

      .cls-2 {
        fill: #fa0;
      }

      .cls-3 {
        fill: #fc3;
      }

      .cls-4 {
        fill: #f80;
      }
    </style>
  </defs>
  <g id="Group_1914" data-name="Group 1914" transform="translate(-139 -420.933)">
    <rect id="Rectangle_2577" data-name="Rectangle 2577" class="cls-1" width="6" height="6" rx="2" transform="translate(168 420.933)"/>
    <path id="Subtraction_3" data-name="Subtraction 3" class="cls-2" d="M33,39A13,13,0,0,1,20,26a13.148,13.148,0,0,1,.153-2H45.847A13.145,13.145,0,0,1,46,26,13,13,0,0,1,33,39Z" transform="translate(119 400.402)"/>
    <path id="Subtraction_4" data-name="Subtraction 4" class="cls-3" d="M33,39A13,13,0,0,1,20,26a13.148,13.148,0,0,1,.153-2H45.847A13.145,13.145,0,0,1,46,26,13,13,0,0,1,33,39Z" transform="translate(127 407.402)"/>
    <path id="Intersection_13" data-name="Intersection 13" class="cls-4" d="M9.182,14.433A12.959,12.959,0,0,1,8,9a13.125,13.125,0,0,1,.153-2L25.008,7a12.977,12.977,0,0,1-2.815,4.191A12.911,12.911,0,0,1,13,15a13.046,13.046,0,0,1-3.818-.567Z" transform="translate(139 424.402)"/>
  </g>
</svg>
