<svg xmlns="http://www.w3.org/2000/svg" width="28.106" height="29.204" viewBox="0 0 28.106 29.204">
  <defs>
    <style>
      .cls-1 {
        fill: #4cc3ff;
      }

      .cls-2 {
        fill: #fa0;
      }

      .cls-3 {
        fill: #fc3;
      }

      .cls-4 {
        fill: #f80;
      }
    </style>
  </defs>
  <g id="_01" data-name="01" transform="translate(-158.888 -540.341)">
    <path id="Polygon_55" data-name="Polygon 55" class="cls-1" d="M3.133,1.508a1,1,0,0,1,1.734,0l2.271,3.95a1,1,0,0,1-.867,1.5H1.729a1,1,0,0,1-.867-1.5Z" transform="translate(188 545.454) rotate(90)"/>
    <path id="Polygon_44" data-name="Polygon 44" class="cls-2" d="M9.375.5a1,1,0,0,1,1.25,0l1.987,1.59a1,1,0,0,0,.594.219l2.532.079a1,1,0,0,1,.949.8l.521,2.541a1,1,0,0,0,.308.54L19.424,8a1,1,0,0,1,.212,1.209l-1.215,2.3a1,1,0,0,0-.106.609l.368,2.579a1,1,0,0,1-.614,1.068l-2.365.958a1,1,0,0,0-.478.406l-1.337,2.194a1,1,0,0,1-1.171.428l-2.4-.8a1,1,0,0,0-.635,0l-2.4.8a1,1,0,0,1-1.171-.428l-1.337-2.2a1,1,0,0,0-.478-.406L1.931,15.76a1,1,0,0,1-.614-1.068l.368-2.579a1,1,0,0,0-.106-.609L.363,9.207A1,1,0,0,1,.576,8l1.91-1.731a1,1,0,0,0,.308-.54l.521-2.541a1,1,0,0,1,.949-.8L6.8,2.309A1,1,0,0,0,7.39,2.09Z" transform="translate(158.64 540.06)"/>
    <path id="Polygon_45" data-name="Polygon 45" class="cls-3" d="M9.766,3.015a2,2,0,0,1,3.468,0L21.277,17a2,2,0,0,1-1.734,3H3.457a2,2,0,0,1-1.734-3Z" transform="translate(188 548) rotate(90)"/>
    <path id="Intersection_18" data-name="Intersection 18" class="cls-4" d="M12.717,19.747l-2.4-.8a1.009,1.009,0,0,0-.635,0l-.322.108V11.4a2,2,0,0,1,3-1.733l6.11,3.513.216,1.515a1,1,0,0,1-.614,1.068l-2.365.959a1,1,0,0,0-.479.407l-1.337,2.194a1,1,0,0,1-1.171.427Z" transform="translate(158.64 540.06)"/>
  </g>
</svg>
