<svg xmlns="http://www.w3.org/2000/svg" width="28.106" height="25.485" viewBox="0 0 28.106 25.485">
  <defs>
    <style>
      .cls-1 {
        fill: #2dd248;
      }

      .cls-2 {
        fill: #1a59b2;
      }

      .cls-3 {
        fill: #fc3;
      }

      .cls-4 {
        fill: #4cc3ff;
      }

      .cls-5 {
        fill: #fa0;
      }

      .cls-6 {
        fill: #f80;
      }
    </style>
  </defs>
  <g id="_01" data-name="01" transform="translate(-158.888 -540.341)">
    <g id="_01-2" data-name="01">
      <path id="Polygon_55" data-name="Polygon 55" class="cls-1" d="M3.133,1.508a1,1,0,0,1,1.734,0l2.271,3.95a1,1,0,0,1-.867,1.5H1.729a1,1,0,0,1-.867-1.5Z" transform="translate(188 545.454) rotate(90)"/>
      <path id="Polygon_44" data-name="Polygon 44" class="cls-2" d="M9.375.5a1,1,0,0,1,1.25,0l1.987,1.59a1,1,0,0,0,.594.219l2.532.079a1,1,0,0,1,.949.8l.521,2.541a1,1,0,0,0,.308.54L19.424,8a1,1,0,0,1,.212,1.209l-1.215,2.3a1,1,0,0,0-.106.609l.368,2.579a1,1,0,0,1-.614,1.068l-2.365.958a1,1,0,0,0-.478.406l-1.337,2.194a1,1,0,0,1-1.171.428l-2.4-.8a1,1,0,0,0-.635,0l-2.4.8a1,1,0,0,1-1.171-.428l-1.337-2.2a1,1,0,0,0-.478-.406L1.931,15.76a1,1,0,0,1-.614-1.068l.368-2.579a1,1,0,0,0-.106-.609L.363,9.207A1,1,0,0,1,.576,8l1.91-1.731a1,1,0,0,0,.308-.54l.521-2.541a1,1,0,0,1,.949-.8L6.8,2.309A1,1,0,0,0,7.39,2.09Z" transform="translate(158.64 540.06)"/>
      <circle id="Ellipse_815" data-name="Ellipse 815" class="cls-3" cx="8" cy="8" r="8" transform="translate(165.005 549.826)"/>
      <path id="Polygon_44-2" data-name="Polygon 44" class="cls-2" d="M9.375.5a1,1,0,0,1,1.25,0l1.987,1.59a1,1,0,0,0,.594.219l2.532.079a1,1,0,0,1,.949.8l.521,2.541a1,1,0,0,0,.308.54L19.424,8a1,1,0,0,1,.212,1.209l-1.215,2.3a1,1,0,0,0-.106.609l.368,2.579a1,1,0,0,1-.614,1.068l-2.365.958a1,1,0,0,0-.478.406l-1.337,2.194a1,1,0,0,1-1.171.428l-2.4-.8a1,1,0,0,0-.635,0l-2.4.8a1,1,0,0,1-1.171-.428l-1.337-2.2a1,1,0,0,0-.478-.406L1.931,15.76a1,1,0,0,1-.614-1.068l.368-2.579a1,1,0,0,0-.106-.609L.363,9.207A1,1,0,0,1,.576,8l1.91-1.731a1,1,0,0,0,.308-.54l.521-2.541a1,1,0,0,1,.949-.8L6.8,2.309A1,1,0,0,0,7.39,2.09Z" transform="translate(158.64 540.06)"/>
    </g>
    <path id="Polygon_55-2" data-name="Polygon 55" class="cls-4" d="M3.133,1.508a1,1,0,0,1,1.734,0l2.271,3.95a1,1,0,0,1-.867,1.5H1.729a1,1,0,0,1-.867-1.5Z" transform="translate(188 545.454) rotate(90)"/>
    <path id="Polygon_44-3" data-name="Polygon 44" class="cls-5" d="M9.375.5a1,1,0,0,1,1.25,0l1.987,1.59a1,1,0,0,0,.594.219l2.532.079a1,1,0,0,1,.949.8l.521,2.541a1,1,0,0,0,.308.54L19.424,8a1,1,0,0,1,.212,1.209l-1.215,2.3a1,1,0,0,0-.106.609l.368,2.579a1,1,0,0,1-.614,1.068l-2.365.958a1,1,0,0,0-.478.406l-1.337,2.194a1,1,0,0,1-1.171.428l-2.4-.8a1,1,0,0,0-.635,0l-2.4.8a1,1,0,0,1-1.171-.428l-1.337-2.2a1,1,0,0,0-.478-.406L1.931,15.76a1,1,0,0,1-.614-1.068l.368-2.579a1,1,0,0,0-.106-.609L.363,9.207A1,1,0,0,1,.576,8l1.91-1.731a1,1,0,0,0,.308-.54l.521-2.541a1,1,0,0,1,.949-.8L6.8,2.309A1,1,0,0,0,7.39,2.09Z" transform="translate(158.64 540.06)"/>
    <path id="Intersection_28" data-name="Intersection 28" class="cls-6" d="M5975.476,2776.3l-2.4-.8a1,1,0,0,0-.634,0l-2.4.8a1,1,0,0,1-.673-.014,8,8,0,0,1,12.066-8.711l-.255.484a.993.993,0,0,0-.106.608l.368,2.579a1,1,0,0,1-.614,1.068l-2.364.958a.991.991,0,0,0-.478.406l-1.337,2.195a1,1,0,0,1-1.172.428Z" transform="translate(-5804.118 -2216.485)"/>
  </g>
</svg>
