<svg id="Layer_1" data-name="Layer 1" xmlns="http://www.w3.org/2000/svg" xmlns:xlink="http://www.w3.org/1999/xlink" viewBox="0 0 724.25 195.45"><defs><style>.cls-1{fill:#31ab4a;}.cls-2{fill:#231f20;}.cls-3{fill:url(#New_Gradient_Swatch_1);}.cls-4{fill:#129bd7;}.cls-5{fill:url(#linear-gradient);}</style><linearGradient id="New_Gradient_Swatch_1" x1="217.35" y1="200.24" x2="217.35" y2="320.76" gradientUnits="userSpaceOnUse"><stop offset="0" stop-color="#293e95"/><stop offset="0.17" stop-color="#27469b"/><stop offset="0.44" stop-color="#215caa"/><stop offset="0.77" stop-color="#177fc4"/><stop offset="1" stop-color="#0f9cd8"/></linearGradient><linearGradient id="linear-gradient" x1="346.64" y1="302.52" x2="429.4" y2="332.64" gradientUnits="userSpaceOnUse"><stop offset="0" stop-color="#273f92"/><stop offset="0.18" stop-color="#254798"/><stop offset="0.45" stop-color="#1f5da8"/><stop offset="0.78" stop-color="#1680c3"/><stop offset="1" stop-color="#0f9cd8"/></linearGradient></defs><path class="cls-1" d="M520.73,243.3a43.46,43.46,0,0,1,13.61-9.42,41,41,0,0,1,16.81-3.43,42.76,42.76,0,0,1,11.76,1.6,44.63,44.63,0,0,1,10.62,4.52,45.45,45.45,0,0,1,9.05,7,46.42,46.42,0,0,1,7,9,44,44,0,0,1,4.55,10.63,44.28,44.28,0,0,1,0,23.59,44.27,44.27,0,0,1-4.55,10.67,45.79,45.79,0,0,1-7,9.08,46.35,46.35,0,0,1-9.05,7,44.21,44.21,0,0,1-10.65,4.56,43.34,43.34,0,0,1-11.73,1.59,41,41,0,0,1-16.81-3.43,43.43,43.43,0,0,1-13.61-9.41v34.66a2.92,2.92,0,0,1-.85,2.11,3,3,0,0,1-2.27.88h-7.07a3,3,0,0,1-2.11-.81,2.83,2.83,0,0,1-.88-2.18V233c0-2,1.06-3,3.19-3h7c2,0,3,1,3,3ZM520.05,275a31.24,31.24,0,0,0,2.45,12.17,33.76,33.76,0,0,0,6.66,10.29,32.5,32.5,0,0,0,9.86,7.11,28.18,28.18,0,0,0,12.1,2.65,27.76,27.76,0,0,0,12-2.65,32.08,32.08,0,0,0,9.79-7.11,33.78,33.78,0,0,0,6.6-10.29,32,32,0,0,0,0-24.37,32.62,32.62,0,0,0-6.6-10.17,32,32,0,0,0-9.79-6.93,28.3,28.3,0,0,0-12-2.58,28.73,28.73,0,0,0-12.1,2.58,32.18,32.18,0,0,0-16.52,17.1A31.13,31.13,0,0,0,520.05,275Z" transform="translate(-58.52 -200.24)"/><path class="cls-1" d="M681,306.92a43.23,43.23,0,0,1-13.59,9.41,41,41,0,0,1-16.79,3.43,43.34,43.34,0,0,1-11.73-1.59,44.48,44.48,0,0,1-10.64-4.56,46.22,46.22,0,0,1-9-7,45.42,45.42,0,0,1-7-9.08,44.27,44.27,0,0,1-4.55-10.67,44.28,44.28,0,0,1,0-23.59,44,44,0,0,1,4.55-10.63,46,46,0,0,1,7-9,44.84,44.84,0,0,1,19.64-11.52,42.76,42.76,0,0,1,11.76-1.6,41,41,0,0,1,16.79,3.43A43.26,43.26,0,0,1,681,243.3V233a2.64,2.64,0,0,1,3-3h7c2.12,0,3.19,1,3.19,3v84.46a2.82,2.82,0,0,1-.88,2.17,3,3,0,0,1-2.11.82h-7.07a3,3,0,0,1-2.28-.88,3,3,0,0,1-.85-2.11Zm.68-31.88a31.12,31.12,0,0,0-2.44-12.2,32.15,32.15,0,0,0-16.53-17.1,28.77,28.77,0,0,0-12-2.58,28.33,28.33,0,0,0-12,2.58,32,32,0,0,0-16.36,17.1,32,32,0,0,0,0,24.37,33.38,33.38,0,0,0,6.59,10.29,32,32,0,0,0,9.77,7.11,27.8,27.8,0,0,0,12,2.65,28.22,28.22,0,0,0,12-2.65,32.3,32.3,0,0,0,9.87-7.11,33.76,33.76,0,0,0,6.66-10.29A31.23,31.23,0,0,0,681.64,275Z" transform="translate(-58.52 -200.24)"/><path class="cls-1" d="M718.14,232.74q1.32,3.45,3.39,8.78T726,253q2.41,6.18,5,12.75t5,12.51q2.38,5.94,4.36,10.82c1.31,3.25,2.36,5.81,3.14,7.7.74-1.89,1.75-4.45,3-7.7s2.71-6.87,4.25-10.86,3.17-8.16,4.88-12.54,3.35-8.63,4.94-12.75,3.06-8,4.42-11.51,2.48-6.47,3.35-8.78a4.49,4.49,0,0,1,1.39-1.87,3.68,3.68,0,0,1,2.28-.69h7.67c2,0,3,.81,3,2.42a1.86,1.86,0,0,1-.07.49,3.49,3.49,0,0,1-.21.62,3.38,3.38,0,0,0-.2.76l-16.25,40L738.4,342.16V342a3.62,3.62,0,0,1-3.66,2.55h-6.85c-2.21,0-3.31-.85-3.31-2.55a4,4,0,0,1,.13-1,3.81,3.81,0,0,0,.14-.65l11.54-27.86-32.07-78c-.05-.14-.09-.3-.14-.48a6,6,0,0,1-.13-1.39c0-1.61,1.05-2.42,3.17-2.42h7.26a3.6,3.6,0,0,1,2.28.7A4.38,4.38,0,0,1,718.14,232.74Z" transform="translate(-58.52 -200.24)"/><path class="cls-2" d="M352.75,299.11a12.75,12.75,0,0,1,1.34-1,2.31,2.31,0,0,1,3.45.75l2.21,3c.57.78,1,1.39,1.4,1.85l.82,1.09a4,4,0,0,1,.55.85,2.31,2.31,0,0,1,.2,1,2.86,2.86,0,0,1-.58,1.61,9.86,9.86,0,0,1-2,2,55.22,55.22,0,0,1-6.11,4.2,45.53,45.53,0,0,1-6.66,3.24A42.08,42.08,0,0,1,340,319.8a44.23,44.23,0,0,1-19.9-.85,44.61,44.61,0,0,1-10.69-4.58,46.54,46.54,0,0,1-9.15-7.06,47.48,47.48,0,0,1-7.14-9.08,44.49,44.49,0,0,1-4.64-10.69,42.77,42.77,0,0,1-1.64-11.85,45.86,45.86,0,0,1,1.54-11.88,45.11,45.11,0,0,1,4.37-10.72,44,44,0,0,1,6.86-9.08,43.45,43.45,0,0,1,9.05-7,45.29,45.29,0,0,1,10.86-4.54,46.69,46.69,0,0,1,12.32-1.6A45.39,45.39,0,0,1,342,232a46.26,46.26,0,0,1,9.7,3.38,43.9,43.9,0,0,1,8.71,5.5,43.13,43.13,0,0,1,7.27,7.51,40.72,40.72,0,0,1,6.49,13.38,61.19,61.19,0,0,1,2,17.28c0,2.14-1,3.21-3,3.21h-72a31.06,31.06,0,0,0,4.06,10.1,34.39,34.39,0,0,0,7,8.09,31.69,31.69,0,0,0,9,5.4,28,28,0,0,0,10.31,1.94,30.12,30.12,0,0,0,6.79-.71,27,27,0,0,0,5.53-1.92,28.71,28.71,0,0,0,4.61-2.73q2.12-1.53,4.1-3.17Zm-.2-48.34a32,32,0,0,0-9.39-5.09,33,33,0,0,0-10.82-1.81,33.91,33.91,0,0,0-8.77,1.16,31.06,31.06,0,0,0-8.23,3.55,34.55,34.55,0,0,0-8.95,8.78A31.35,31.35,0,0,0,301.27,269H363a26.86,26.86,0,0,0-3.52-10.31,28.36,28.36,0,0,0-6.93-7.92" transform="translate(-58.52 -200.24)"/><path class="cls-2" d="M125.34,270.64a41.48,41.48,0,0,0-9.46-5.26q-5.3-2.11-10.79-3.82T94.3,258.32a69.34,69.34,0,0,1-9.45-3.45,22.25,22.25,0,0,1-6.7-4.51,8.86,8.86,0,0,1-2.52-6.42,13.41,13.41,0,0,1,1.19-5.43,13.62,13.62,0,0,1,3.73-4.84A19,19,0,0,1,87,230.22a29.37,29.37,0,0,1,9.29-1.3,24.3,24.3,0,0,1,8.53,1.47,46.37,46.37,0,0,1,7.14,3.31,43.13,43.13,0,0,1,5.36,3.62c1.45,1.18,2.5,2,3.14,2.39a3.13,3.13,0,0,0,2.08,1,3,3,0,0,0,2.22-.95l4.84-4.64a2.87,2.87,0,0,0,1.07-2.15,3.37,3.37,0,0,0-1-2.16,35.67,35.67,0,0,0-6.66-6,48.68,48.68,0,0,0-8.26-4.64,51.49,51.49,0,0,0-9-3,38.89,38.89,0,0,0-9-1.1,46.88,46.88,0,0,0-14.44,2.09,33.18,33.18,0,0,0-11,5.84,26.15,26.15,0,0,0-7.07,8.9,25.82,25.82,0,0,0-2.49,11.37,21.24,21.24,0,0,0,1.77,8.84A20.18,20.18,0,0,0,69,260.23,41.12,41.12,0,0,0,78.7,266a110.35,110.35,0,0,0,14.07,5c4,1.18,7.68,2.31,11.16,3.38a54.34,54.34,0,0,1,9.11,3.62,19.85,19.85,0,0,1,6.18,4.71,9.81,9.81,0,0,1,2.29,6.59,14.13,14.13,0,0,1-2.32,8.09,19.6,19.6,0,0,1-5.94,5.7,27.68,27.68,0,0,1-8,3.34,35.06,35.06,0,0,1-8.54,1.1,26.1,26.1,0,0,1-5.66-.76,40.9,40.9,0,0,1-7-2.28,47.14,47.14,0,0,1-7.31-3.89,31.92,31.92,0,0,1-6.51-5.57l-.89-.88a2.89,2.89,0,0,0-2-1.2,3.09,3.09,0,0,0-2.25.86l-5.39,4.5a2.78,2.78,0,0,0-1.19,2.05,3.23,3.23,0,0,0,.85,2.18,43,43,0,0,0,7.44,7.51,47.41,47.41,0,0,0,9,5.57,48.9,48.9,0,0,0,10,3.48,47.41,47.41,0,0,0,10.55,1.2,48.11,48.11,0,0,0,15-2.26,37.84,37.84,0,0,0,12.12-6.38,30.23,30.23,0,0,0,8.12-10,28.26,28.26,0,0,0,3-13A20.85,20.85,0,0,0,132,278.15,25.19,25.19,0,0,0,125.34,270.64Z" transform="translate(-58.52 -200.24)"/><path class="cls-2" d="M229.5,230.41h-7c-2,0-3,1-3,3v10.12a43.46,43.46,0,0,0-13.66-9.46A41.18,41.18,0,0,0,189,230.63a43.19,43.19,0,0,0-11.82,1.6,45.5,45.5,0,0,0-10.65,4.54,44.9,44.9,0,0,0-9.08,7,46.44,46.44,0,0,0-7.07,9.08,44.06,44.06,0,0,0-4.57,10.68,44.38,44.38,0,0,0,0,23.69A44.92,44.92,0,0,0,150.33,298a46.2,46.2,0,0,0,16.15,16.17A43.86,43.86,0,0,0,189,320.35a41.34,41.34,0,0,0,16.86-3.45,43.63,43.63,0,0,0,13.66-9.46v10.32a2.94,2.94,0,0,0,.85,2.12,3,3,0,0,0,2.29.88h7.1a3,3,0,0,0,2.11-.81,2.86,2.86,0,0,0,.89-2.19V233.42C232.71,231.42,231.64,230.41,229.5,230.41Zm-11.81,57.23A34.09,34.09,0,0,1,211,298a32.34,32.34,0,0,1-9.93,7.13,28.13,28.13,0,0,1-12.1,2.66,27.74,27.74,0,0,1-12-2.66,32.1,32.1,0,0,1-9.82-7.13,33.93,33.93,0,0,1-6.62-10.35,32.16,32.16,0,0,1,0-24.48,32.64,32.64,0,0,1,6.62-10.2,32.13,32.13,0,0,1,9.82-7,28.41,28.41,0,0,1,12-2.59,28.81,28.81,0,0,1,12.1,2.59,32.38,32.38,0,0,1,9.93,7,32.8,32.8,0,0,1,6.68,10.2,31.68,31.68,0,0,1,0,24.48Z" transform="translate(-58.52 -200.24)"/><path class="cls-2" d="M276.75,200.24a22.27,22.27,0,0,0-9.42,1.92,20.48,20.48,0,0,0-7,5.19,23,23,0,0,0-4.41,7.64,27.94,27.94,0,0,0-1.53,9.29v14.41h-7.83a3.91,3.91,0,0,0-2.56.81,3.47,3.47,0,0,0-1,2.81v4.3a4.08,4.08,0,0,0,1,2.9,3.35,3.35,0,0,0,2.56,1.05h7.83v66.59a4.15,4.15,0,0,0,.78,2.59,3,3,0,0,0,2.49,1H264a3.79,3.79,0,0,0,2.49-.92,3.24,3.24,0,0,0,1.13-2.69V250.56h9.15a3.17,3.17,0,0,0,2.5-1.05,4.29,4.29,0,0,0,.92-2.9v-4.3a3.08,3.08,0,0,0-3.42-3.62H267.6V224.41a12.35,12.35,0,0,1,1.06-5.49,10.79,10.79,0,0,1,2.56-3.45,8.77,8.77,0,0,1,3.14-1.81,9.7,9.7,0,0,1,2.8-.51,2.58,2.58,0,0,0,2.26-1.06,4.14,4.14,0,0,0,.75-2.43v-5.8a3.71,3.71,0,0,0-.92-2.66A3.31,3.31,0,0,0,276.75,200.24Z" transform="translate(-58.52 -200.24)"/><path class="cls-3" d="M352.75,299.11a12.75,12.75,0,0,1,1.34-1,2.31,2.31,0,0,1,3.45.75l2.21,3c.57.78,1,1.39,1.4,1.85l.82,1.09a4,4,0,0,1,.55.85,2.31,2.31,0,0,1,.2,1,2.86,2.86,0,0,1-.58,1.61,9.86,9.86,0,0,1-2,2,55.22,55.22,0,0,1-6.11,4.2,45.53,45.53,0,0,1-6.66,3.24A42.08,42.08,0,0,1,340,319.8a44.23,44.23,0,0,1-19.9-.85,44.61,44.61,0,0,1-10.69-4.58,46.54,46.54,0,0,1-9.15-7.06,47.48,47.48,0,0,1-7.14-9.08,44.49,44.49,0,0,1-4.64-10.69,42.77,42.77,0,0,1-1.64-11.85,45.86,45.86,0,0,1,1.54-11.88,45.11,45.11,0,0,1,4.37-10.72,44,44,0,0,1,6.86-9.08,43.45,43.45,0,0,1,9.05-7,45.29,45.29,0,0,1,10.86-4.54,46.69,46.69,0,0,1,12.32-1.6A45.39,45.39,0,0,1,342,232a46.26,46.26,0,0,1,9.7,3.38,43.9,43.9,0,0,1,8.71,5.5,43.13,43.13,0,0,1,7.27,7.51,40.72,40.72,0,0,1,6.49,13.38,61.19,61.19,0,0,1,2,17.28c0,2.14-1,3.21-3,3.21h-72a31.06,31.06,0,0,0,4.06,10.1,34.39,34.39,0,0,0,7,8.09,31.69,31.69,0,0,0,9,5.4,28,28,0,0,0,10.31,1.94,30.12,30.12,0,0,0,6.79-.71,27,27,0,0,0,5.53-1.92,28.71,28.71,0,0,0,4.61-2.73q2.12-1.53,4.1-3.17Zm-.2-48.34a32,32,0,0,0-9.39-5.09,33,33,0,0,0-10.82-1.81,33.91,33.91,0,0,0-8.77,1.16,31.06,31.06,0,0,0-8.23,3.55,34.55,34.55,0,0,0-8.95,8.78A31.35,31.35,0,0,0,301.27,269H363a26.86,26.86,0,0,0-3.52-10.31,28.36,28.36,0,0,0-6.93-7.92" transform="translate(-58.52 -200.24)"/><path class="cls-3" d="M352.75,299.11a12.75,12.75,0,0,1,1.34-1,2.31,2.31,0,0,1,3.45.75l2.21,3c.57.78,1,1.39,1.4,1.85l.82,1.09a4,4,0,0,1,.55.85,2.31,2.31,0,0,1,.2,1,2.86,2.86,0,0,1-.58,1.61,9.86,9.86,0,0,1-2,2,55.22,55.22,0,0,1-6.11,4.2,45.53,45.53,0,0,1-6.66,3.24A42.08,42.08,0,0,1,340,319.8a44.23,44.23,0,0,1-19.9-.85,44.61,44.61,0,0,1-10.69-4.58,46.54,46.54,0,0,1-9.15-7.06,47.48,47.48,0,0,1-7.14-9.08,44.49,44.49,0,0,1-4.64-10.69,42.77,42.77,0,0,1-1.64-11.85,45.86,45.86,0,0,1,1.54-11.88,45.11,45.11,0,0,1,4.37-10.72,44,44,0,0,1,6.86-9.08,43.45,43.45,0,0,1,9.05-7,45.29,45.29,0,0,1,10.86-4.54,46.69,46.69,0,0,1,12.32-1.6A45.39,45.39,0,0,1,342,232a46.26,46.26,0,0,1,9.7,3.38,43.9,43.9,0,0,1,8.71,5.5,43.13,43.13,0,0,1,7.27,7.51,40.72,40.72,0,0,1,6.49,13.38,61.19,61.19,0,0,1,2,17.28c0,2.14-1,3.21-3,3.21h-72a31.06,31.06,0,0,0,4.06,10.1,34.39,34.39,0,0,0,7,8.09,31.69,31.69,0,0,0,9,5.4,28,28,0,0,0,10.31,1.94,30.12,30.12,0,0,0,6.79-.71,27,27,0,0,0,5.53-1.92,28.71,28.71,0,0,0,4.61-2.73q2.12-1.53,4.1-3.17Zm-.2-48.34a32,32,0,0,0-9.39-5.09,33,33,0,0,0-10.82-1.81,33.91,33.91,0,0,0-8.77,1.16,31.06,31.06,0,0,0-8.23,3.55,34.55,34.55,0,0,0-8.95,8.78A31.35,31.35,0,0,0,301.27,269H363a26.86,26.86,0,0,0-3.52-10.31,28.36,28.36,0,0,0-6.93-7.92" transform="translate(-58.52 -200.24)"/><path class="cls-3" d="M352.75,299.11a12.75,12.75,0,0,1,1.34-1,2.31,2.31,0,0,1,3.45.75l2.21,3c.57.78,1,1.39,1.4,1.85l.82,1.09a4,4,0,0,1,.55.85,2.31,2.31,0,0,1,.2,1,2.86,2.86,0,0,1-.58,1.61,9.86,9.86,0,0,1-2,2,55.22,55.22,0,0,1-6.11,4.2,45.53,45.53,0,0,1-6.66,3.24A42.08,42.08,0,0,1,340,319.8a44.23,44.23,0,0,1-19.9-.85,44.61,44.61,0,0,1-10.69-4.58,46.54,46.54,0,0,1-9.15-7.06,47.48,47.48,0,0,1-7.14-9.08,44.49,44.49,0,0,1-4.64-10.69,42.77,42.77,0,0,1-1.64-11.85,45.86,45.86,0,0,1,1.54-11.88,45.11,45.11,0,0,1,4.37-10.72,44,44,0,0,1,6.86-9.08,43.45,43.45,0,0,1,9.05-7,45.29,45.29,0,0,1,10.86-4.54,46.69,46.69,0,0,1,12.32-1.6A45.39,45.39,0,0,1,342,232a46.26,46.26,0,0,1,9.7,3.38,43.9,43.9,0,0,1,8.71,5.5,43.13,43.13,0,0,1,7.27,7.51,40.72,40.72,0,0,1,6.49,13.38,61.19,61.19,0,0,1,2,17.28c0,2.14-1,3.21-3,3.21h-72a31.06,31.06,0,0,0,4.06,10.1,34.39,34.39,0,0,0,7,8.09,31.69,31.69,0,0,0,9,5.4,28,28,0,0,0,10.31,1.94,30.12,30.12,0,0,0,6.79-.71,27,27,0,0,0,5.53-1.92,28.71,28.71,0,0,0,4.61-2.73q2.12-1.53,4.1-3.17Zm-.2-48.34a32,32,0,0,0-9.39-5.09,33,33,0,0,0-10.82-1.81,33.91,33.91,0,0,0-8.77,1.16,31.06,31.06,0,0,0-8.23,3.55,34.55,34.55,0,0,0-8.95,8.78A31.35,31.35,0,0,0,301.27,269H363a26.86,26.86,0,0,0-3.52-10.31,28.36,28.36,0,0,0-6.93-7.92" transform="translate(-58.52 -200.24)"/><path class="cls-3" d="M125.34,270.64a41.48,41.48,0,0,0-9.46-5.26q-5.3-2.11-10.79-3.82T94.3,258.32a69.34,69.34,0,0,1-9.45-3.45,22.25,22.25,0,0,1-6.7-4.51,8.86,8.86,0,0,1-2.52-6.42,13.41,13.41,0,0,1,1.19-5.43,13.62,13.62,0,0,1,3.73-4.84A19,19,0,0,1,87,230.22a29.37,29.37,0,0,1,9.29-1.3,24.3,24.3,0,0,1,8.53,1.47,46.37,46.37,0,0,1,7.14,3.31,43.13,43.13,0,0,1,5.36,3.62c1.45,1.18,2.5,2,3.14,2.39a3.13,3.13,0,0,0,2.08,1,3,3,0,0,0,2.22-.95l4.84-4.64a2.87,2.87,0,0,0,1.07-2.15,3.37,3.37,0,0,0-1-2.16,35.67,35.67,0,0,0-6.66-6,48.68,48.68,0,0,0-8.26-4.64,51.49,51.49,0,0,0-9-3,38.89,38.89,0,0,0-9-1.1,46.88,46.88,0,0,0-14.44,2.09,33.18,33.18,0,0,0-11,5.84,26.15,26.15,0,0,0-7.07,8.9,25.82,25.82,0,0,0-2.49,11.37,21.24,21.24,0,0,0,1.77,8.84A20.18,20.18,0,0,0,69,260.23,41.12,41.12,0,0,0,78.7,266a110.35,110.35,0,0,0,14.07,5c4,1.18,7.68,2.31,11.16,3.38a54.34,54.34,0,0,1,9.11,3.62,19.85,19.85,0,0,1,6.18,4.71,9.81,9.81,0,0,1,2.29,6.59,14.13,14.13,0,0,1-2.32,8.09,19.6,19.6,0,0,1-5.94,5.7,27.68,27.68,0,0,1-8,3.34,35.06,35.06,0,0,1-8.54,1.1,26.1,26.1,0,0,1-5.66-.76,40.9,40.9,0,0,1-7-2.28,47.14,47.14,0,0,1-7.31-3.89,31.92,31.92,0,0,1-6.51-5.57l-.89-.88a2.89,2.89,0,0,0-2-1.2,3.09,3.09,0,0,0-2.25.86l-5.39,4.5a2.78,2.78,0,0,0-1.19,2.05,3.23,3.23,0,0,0,.85,2.18,43,43,0,0,0,7.44,7.51,47.41,47.41,0,0,0,9,5.57,48.9,48.9,0,0,0,10,3.48,47.41,47.41,0,0,0,10.55,1.2,48.11,48.11,0,0,0,15-2.26,37.84,37.84,0,0,0,12.12-6.38,30.23,30.23,0,0,0,8.12-10,28.26,28.26,0,0,0,3-13A20.85,20.85,0,0,0,132,278.15,25.19,25.19,0,0,0,125.34,270.64Z" transform="translate(-58.52 -200.24)"/><path class="cls-3" d="M229.5,230.41h-7c-2,0-3,1-3,3v10.12a43.46,43.46,0,0,0-13.66-9.46A41.18,41.18,0,0,0,189,230.63a43.19,43.19,0,0,0-11.82,1.6,45.5,45.5,0,0,0-10.65,4.54,44.9,44.9,0,0,0-9.08,7,46.44,46.44,0,0,0-7.07,9.08,44.06,44.06,0,0,0-4.57,10.68,44.38,44.38,0,0,0,0,23.69A44.92,44.92,0,0,0,150.33,298a46.2,46.2,0,0,0,16.15,16.17A43.86,43.86,0,0,0,189,320.35a41.34,41.34,0,0,0,16.86-3.45,43.63,43.63,0,0,0,13.66-9.46v10.32a2.94,2.94,0,0,0,.85,2.12,3,3,0,0,0,2.29.88h7.1a3,3,0,0,0,2.11-.81,2.86,2.86,0,0,0,.89-2.19V233.42C232.71,231.42,231.64,230.41,229.5,230.41Zm-11.81,57.23A34.09,34.09,0,0,1,211,298a32.34,32.34,0,0,1-9.93,7.13,28.13,28.13,0,0,1-12.1,2.66,27.74,27.74,0,0,1-12-2.66,32.1,32.1,0,0,1-9.82-7.13,33.93,33.93,0,0,1-6.62-10.35,32.16,32.16,0,0,1,0-24.48,32.64,32.64,0,0,1,6.62-10.2,32.13,32.13,0,0,1,9.82-7,28.41,28.41,0,0,1,12-2.59,28.81,28.81,0,0,1,12.1,2.59,32.38,32.38,0,0,1,9.93,7,32.8,32.8,0,0,1,6.68,10.2,31.68,31.68,0,0,1,0,24.48Z" transform="translate(-58.52 -200.24)"/><path class="cls-3" d="M276.75,200.24a22.27,22.27,0,0,0-9.42,1.92,20.48,20.48,0,0,0-7,5.19,23,23,0,0,0-4.41,7.64,27.94,27.94,0,0,0-1.53,9.29v14.41h-7.83a3.91,3.91,0,0,0-2.56.81,3.47,3.47,0,0,0-1,2.81v4.3a4.08,4.08,0,0,0,1,2.9,3.35,3.35,0,0,0,2.56,1.05h7.83v66.59a4.15,4.15,0,0,0,.78,2.59,3,3,0,0,0,2.49,1H264a3.79,3.79,0,0,0,2.49-.92,3.24,3.24,0,0,0,1.13-2.69V250.56h9.15a3.17,3.17,0,0,0,2.5-1.05,4.29,4.29,0,0,0,.92-2.9v-4.3a3.08,3.08,0,0,0-3.42-3.62H267.6V224.41a12.35,12.35,0,0,1,1.06-5.49,10.79,10.79,0,0,1,2.56-3.45,8.77,8.77,0,0,1,3.14-1.81,9.7,9.7,0,0,1,2.8-.51,2.58,2.58,0,0,0,2.26-1.06,4.14,4.14,0,0,0,.75-2.43v-5.8a3.71,3.71,0,0,0-.92-2.66A3.31,3.31,0,0,0,276.75,200.24Z" transform="translate(-58.52 -200.24)"/><path class="cls-4" d="M492.33,236.9c5.07-5,6.58-12.83.62-17.84s-12.13-3.48-19,2.21l-32.35,32.29,18.26,15.31Z" transform="translate(-58.52 -200.24)"/><path class="cls-4" d="M480.33,298.56,461,282.42l-17,16.86,21.58,18.26c3,3.12,13,4.14,17.11-.9C487.81,310.34,486.37,303.78,480.33,298.56Z" transform="translate(-58.52 -200.24)"/><path class="cls-5" d="M382.12,216.83c-3.32-2.34-6.77-1.43-2.38,7.9,7.9,16.8,22.7,51,22.7,51s-56.33,86.13-70.07,111.19a25.51,25.51,0,0,0-2.93,6.32,1.9,1.9,0,0,0,1.89,2.49,4.34,4.34,0,0,0,1.89-1.12c15-14.21,112.85-111.44,113.18-111.78,4.07-4.22,4-8.88,0-12.38C439.58,264.43,382.19,216.88,382.12,216.83Z" transform="translate(-58.52 -200.24)"/><path class="cls-1" d="M520.73,243.3a43.46,43.46,0,0,1,13.61-9.42,41,41,0,0,1,16.81-3.43,42.76,42.76,0,0,1,11.76,1.6,44.63,44.63,0,0,1,10.62,4.52,45.45,45.45,0,0,1,9.05,7,46.42,46.42,0,0,1,7,9,44,44,0,0,1,4.55,10.63,44.28,44.28,0,0,1,0,23.59,44.27,44.27,0,0,1-4.55,10.67,45.79,45.79,0,0,1-7,9.08,46.35,46.35,0,0,1-9.05,7,44.21,44.21,0,0,1-10.65,4.56,43.34,43.34,0,0,1-11.73,1.59,41,41,0,0,1-16.81-3.43,43.43,43.43,0,0,1-13.61-9.41v34.66a2.92,2.92,0,0,1-.85,2.11,3,3,0,0,1-2.27.88h-7.07a3,3,0,0,1-2.11-.81,2.83,2.83,0,0,1-.88-2.18V233c0-2,1.06-3,3.19-3h7c2,0,3,1,3,3ZM520.05,275a31.24,31.24,0,0,0,2.45,12.17,33.76,33.76,0,0,0,6.66,10.29,32.5,32.5,0,0,0,9.86,7.11,28.18,28.18,0,0,0,12.1,2.65,27.76,27.76,0,0,0,12-2.65,32.08,32.08,0,0,0,9.79-7.11,33.78,33.78,0,0,0,6.6-10.29,32,32,0,0,0,0-24.37,32.62,32.62,0,0,0-6.6-10.17,32,32,0,0,0-9.79-6.93,28.3,28.3,0,0,0-12-2.58,28.73,28.73,0,0,0-12.1,2.58,32.18,32.18,0,0,0-16.52,17.1A31.13,31.13,0,0,0,520.05,275Z" transform="translate(-58.52 -200.24)"/><path class="cls-1" d="M681,306.92a43.23,43.23,0,0,1-13.59,9.41,41,41,0,0,1-16.79,3.43,43.34,43.34,0,0,1-11.73-1.59,44.48,44.48,0,0,1-10.64-4.56,46.22,46.22,0,0,1-9-7,45.42,45.42,0,0,1-7-9.08,44.27,44.27,0,0,1-4.55-10.67,44.28,44.28,0,0,1,0-23.59,44,44,0,0,1,4.55-10.63,46,46,0,0,1,7-9,44.84,44.84,0,0,1,19.64-11.52,42.76,42.76,0,0,1,11.76-1.6,41,41,0,0,1,16.79,3.43A43.26,43.26,0,0,1,681,243.3V233a2.64,2.64,0,0,1,3-3h7c2.12,0,3.19,1,3.19,3v84.46a2.82,2.82,0,0,1-.88,2.17,3,3,0,0,1-2.11.82h-7.07a3,3,0,0,1-2.28-.88,3,3,0,0,1-.85-2.11Zm.68-31.88a31.12,31.12,0,0,0-2.44-12.2,32.15,32.15,0,0,0-16.53-17.1,28.77,28.77,0,0,0-12-2.58,28.33,28.33,0,0,0-12,2.58,32,32,0,0,0-16.36,17.1,32,32,0,0,0,0,24.37,33.38,33.38,0,0,0,6.59,10.29,32,32,0,0,0,9.77,7.11,27.8,27.8,0,0,0,12,2.65,28.22,28.22,0,0,0,12-2.65,32.3,32.3,0,0,0,9.87-7.11,33.76,33.76,0,0,0,6.66-10.29A31.23,31.23,0,0,0,681.64,275Z" transform="translate(-58.52 -200.24)"/><path class="cls-1" d="M718.14,232.74q1.32,3.45,3.39,8.78T726,253q2.41,6.18,5,12.75t5,12.51q2.38,5.94,4.36,10.82c1.31,3.25,2.36,5.81,3.14,7.7.74-1.89,1.75-4.45,3-7.7s2.71-6.87,4.25-10.86,3.17-8.16,4.88-12.54,3.35-8.63,4.94-12.75,3.06-8,4.42-11.51,2.48-6.47,3.35-8.78a4.49,4.49,0,0,1,1.39-1.87,3.68,3.68,0,0,1,2.28-.69h7.67c2,0,3,.81,3,2.42a1.86,1.86,0,0,1-.07.49,3.49,3.49,0,0,1-.21.62,3.38,3.38,0,0,0-.2.76l-16.25,40L738.4,342.16V342a3.62,3.62,0,0,1-3.66,2.55h-6.85c-2.21,0-3.31-.85-3.31-2.55a4,4,0,0,1,.13-1,3.81,3.81,0,0,0,.14-.65l11.54-27.86-32.07-78c-.05-.14-.09-.3-.14-.48a6,6,0,0,1-.13-1.39c0-1.61,1.05-2.42,3.17-2.42h7.26a3.6,3.6,0,0,1,2.28.7A4.38,4.38,0,0,1,718.14,232.74Z" transform="translate(-58.52 -200.24)"/><path class="cls-2" d="M352.75,299.11a12.75,12.75,0,0,1,1.34-1,2.31,2.31,0,0,1,3.45.75l2.21,3c.57.78,1,1.39,1.4,1.85l.82,1.09a4,4,0,0,1,.55.85,2.31,2.31,0,0,1,.2,1,2.86,2.86,0,0,1-.58,1.61,9.86,9.86,0,0,1-2,2,55.22,55.22,0,0,1-6.11,4.2,45.53,45.53,0,0,1-6.66,3.24A42.08,42.08,0,0,1,340,319.8a44.23,44.23,0,0,1-19.9-.85,44.61,44.61,0,0,1-10.69-4.58,46.54,46.54,0,0,1-9.15-7.06,47.48,47.48,0,0,1-7.14-9.08,44.49,44.49,0,0,1-4.64-10.69,42.77,42.77,0,0,1-1.64-11.85,45.86,45.86,0,0,1,1.54-11.88,45.11,45.11,0,0,1,4.37-10.72,44,44,0,0,1,6.86-9.08,43.45,43.45,0,0,1,9.05-7,45.29,45.29,0,0,1,10.86-4.54,46.69,46.69,0,0,1,12.32-1.6A45.39,45.39,0,0,1,342,232a46.26,46.26,0,0,1,9.7,3.38,43.9,43.9,0,0,1,8.71,5.5,43.13,43.13,0,0,1,7.27,7.51,40.72,40.72,0,0,1,6.49,13.38,61.19,61.19,0,0,1,2,17.28c0,2.14-1,3.21-3,3.21h-72a31.06,31.06,0,0,0,4.06,10.1,34.39,34.39,0,0,0,7,8.09,31.69,31.69,0,0,0,9,5.4,28,28,0,0,0,10.31,1.94,30.12,30.12,0,0,0,6.79-.71,27,27,0,0,0,5.53-1.92,28.71,28.71,0,0,0,4.61-2.73q2.12-1.53,4.1-3.17Zm-.2-48.34a32,32,0,0,0-9.39-5.09,33,33,0,0,0-10.82-1.81,33.91,33.91,0,0,0-8.77,1.16,31.06,31.06,0,0,0-8.23,3.55,34.55,34.55,0,0,0-8.95,8.78A31.35,31.35,0,0,0,301.27,269H363a26.86,26.86,0,0,0-3.52-10.31,28.36,28.36,0,0,0-6.93-7.92" transform="translate(-58.52 -200.24)"/><path class="cls-2" d="M125.34,270.64a41.48,41.48,0,0,0-9.46-5.26q-5.3-2.11-10.79-3.82T94.3,258.32a69.34,69.34,0,0,1-9.45-3.45,22.25,22.25,0,0,1-6.7-4.51,8.86,8.86,0,0,1-2.52-6.42,13.41,13.41,0,0,1,1.19-5.43,13.62,13.62,0,0,1,3.73-4.84A19,19,0,0,1,87,230.22a29.37,29.37,0,0,1,9.29-1.3,24.3,24.3,0,0,1,8.53,1.47,46.37,46.37,0,0,1,7.14,3.31,43.13,43.13,0,0,1,5.36,3.62c1.45,1.18,2.5,2,3.14,2.39a3.13,3.13,0,0,0,2.08,1,3,3,0,0,0,2.22-.95l4.84-4.64a2.87,2.87,0,0,0,1.07-2.15,3.37,3.37,0,0,0-1-2.16,35.67,35.67,0,0,0-6.66-6,48.68,48.68,0,0,0-8.26-4.64,51.49,51.49,0,0,0-9-3,38.89,38.89,0,0,0-9-1.1,46.88,46.88,0,0,0-14.44,2.09,33.18,33.18,0,0,0-11,5.84,26.15,26.15,0,0,0-7.07,8.9,25.82,25.82,0,0,0-2.49,11.37,21.24,21.24,0,0,0,1.77,8.84A20.18,20.18,0,0,0,69,260.23,41.12,41.12,0,0,0,78.7,266a110.35,110.35,0,0,0,14.07,5c4,1.18,7.68,2.31,11.16,3.38a54.34,54.34,0,0,1,9.11,3.62,19.85,19.85,0,0,1,6.18,4.71,9.81,9.81,0,0,1,2.29,6.59,14.13,14.13,0,0,1-2.32,8.09,19.6,19.6,0,0,1-5.94,5.7,27.68,27.68,0,0,1-8,3.34,35.06,35.06,0,0,1-8.54,1.1,26.1,26.1,0,0,1-5.66-.76,40.9,40.9,0,0,1-7-2.28,47.14,47.14,0,0,1-7.31-3.89,31.92,31.92,0,0,1-6.51-5.57l-.89-.88a2.89,2.89,0,0,0-2-1.2,3.09,3.09,0,0,0-2.25.86l-5.39,4.5a2.78,2.78,0,0,0-1.19,2.05,3.23,3.23,0,0,0,.85,2.18,43,43,0,0,0,7.44,7.51,47.41,47.41,0,0,0,9,5.57,48.9,48.9,0,0,0,10,3.48,47.41,47.41,0,0,0,10.55,1.2,48.11,48.11,0,0,0,15-2.26,37.84,37.84,0,0,0,12.12-6.38,30.23,30.23,0,0,0,8.12-10,28.26,28.26,0,0,0,3-13A20.85,20.85,0,0,0,132,278.15,25.19,25.19,0,0,0,125.34,270.64Z" transform="translate(-58.52 -200.24)"/><path class="cls-2" d="M229.5,230.41h-7c-2,0-3,1-3,3v10.12a43.46,43.46,0,0,0-13.66-9.46A41.18,41.18,0,0,0,189,230.63a43.19,43.19,0,0,0-11.82,1.6,45.5,45.5,0,0,0-10.65,4.54,44.9,44.9,0,0,0-9.08,7,46.44,46.44,0,0,0-7.07,9.08,44.06,44.06,0,0,0-4.57,10.68,44.38,44.38,0,0,0,0,23.69A44.92,44.92,0,0,0,150.33,298a46.2,46.2,0,0,0,16.15,16.17A43.86,43.86,0,0,0,189,320.35a41.34,41.34,0,0,0,16.86-3.45,43.63,43.63,0,0,0,13.66-9.46v10.32a2.94,2.94,0,0,0,.85,2.12,3,3,0,0,0,2.29.88h7.1a3,3,0,0,0,2.11-.81,2.86,2.86,0,0,0,.89-2.19V233.42C232.71,231.42,231.64,230.41,229.5,230.41Zm-11.81,57.23A34.09,34.09,0,0,1,211,298a32.34,32.34,0,0,1-9.93,7.13,28.13,28.13,0,0,1-12.1,2.66,27.74,27.74,0,0,1-12-2.66,32.1,32.1,0,0,1-9.82-7.13,33.93,33.93,0,0,1-6.62-10.35,32.16,32.16,0,0,1,0-24.48,32.64,32.64,0,0,1,6.62-10.2,32.13,32.13,0,0,1,9.82-7,28.41,28.41,0,0,1,12-2.59,28.81,28.81,0,0,1,12.1,2.59,32.38,32.38,0,0,1,9.93,7,32.8,32.8,0,0,1,6.68,10.2,31.68,31.68,0,0,1,0,24.48Z" transform="translate(-58.52 -200.24)"/><path class="cls-2" d="M276.75,200.24a22.27,22.27,0,0,0-9.42,1.92,20.48,20.48,0,0,0-7,5.19,23,23,0,0,0-4.41,7.64,27.94,27.94,0,0,0-1.53,9.29v14.41h-7.83a3.91,3.91,0,0,0-2.56.81,3.47,3.47,0,0,0-1,2.81v4.3a4.08,4.08,0,0,0,1,2.9,3.35,3.35,0,0,0,2.56,1.05h7.83v66.59a4.15,4.15,0,0,0,.78,2.59,3,3,0,0,0,2.49,1H264a3.79,3.79,0,0,0,2.49-.92,3.24,3.24,0,0,0,1.13-2.69V250.56h9.15a3.17,3.17,0,0,0,2.5-1.05,4.29,4.29,0,0,0,.92-2.9v-4.3a3.08,3.08,0,0,0-3.42-3.62H267.6V224.41a12.35,12.35,0,0,1,1.06-5.49,10.79,10.79,0,0,1,2.56-3.45,8.77,8.77,0,0,1,3.14-1.81,9.7,9.7,0,0,1,2.8-.51,2.58,2.58,0,0,0,2.26-1.06,4.14,4.14,0,0,0,.75-2.43v-5.8a3.71,3.71,0,0,0-.92-2.66A3.31,3.31,0,0,0,276.75,200.24Z" transform="translate(-58.52 -200.24)"/><path class="cls-3" d="M352.75,299.11a12.75,12.75,0,0,1,1.34-1,2.31,2.31,0,0,1,3.45.75l2.21,3c.57.78,1,1.39,1.4,1.85l.82,1.09a4,4,0,0,1,.55.85,2.31,2.31,0,0,1,.2,1,2.86,2.86,0,0,1-.58,1.61,9.86,9.86,0,0,1-2,2,55.22,55.22,0,0,1-6.11,4.2,45.53,45.53,0,0,1-6.66,3.24A42.08,42.08,0,0,1,340,319.8a44.23,44.23,0,0,1-19.9-.85,44.61,44.61,0,0,1-10.69-4.58,46.54,46.54,0,0,1-9.15-7.06,47.48,47.48,0,0,1-7.14-9.08,44.49,44.49,0,0,1-4.64-10.69,42.77,42.77,0,0,1-1.64-11.85,45.86,45.86,0,0,1,1.54-11.88,45.11,45.11,0,0,1,4.37-10.72,44,44,0,0,1,6.86-9.08,43.45,43.45,0,0,1,9.05-7,45.29,45.29,0,0,1,10.86-4.54,46.69,46.69,0,0,1,12.32-1.6A45.39,45.39,0,0,1,342,232a46.26,46.26,0,0,1,9.7,3.38,43.9,43.9,0,0,1,8.71,5.5,43.13,43.13,0,0,1,7.27,7.51,40.72,40.72,0,0,1,6.49,13.38,61.19,61.19,0,0,1,2,17.28c0,2.14-1,3.21-3,3.21h-72a31.06,31.06,0,0,0,4.06,10.1,34.39,34.39,0,0,0,7,8.09,31.69,31.69,0,0,0,9,5.4,28,28,0,0,0,10.31,1.94,30.12,30.12,0,0,0,6.79-.71,27,27,0,0,0,5.53-1.92,28.71,28.71,0,0,0,4.61-2.73q2.12-1.53,4.1-3.17Zm-.2-48.34a32,32,0,0,0-9.39-5.09,33,33,0,0,0-10.82-1.81,33.91,33.91,0,0,0-8.77,1.16,31.06,31.06,0,0,0-8.23,3.55,34.55,34.55,0,0,0-8.95,8.78A31.35,31.35,0,0,0,301.27,269H363a26.86,26.86,0,0,0-3.52-10.31,28.36,28.36,0,0,0-6.93-7.92" transform="translate(-58.52 -200.24)"/><path class="cls-3" d="M352.75,299.11a12.75,12.75,0,0,1,1.34-1,2.31,2.31,0,0,1,3.45.75l2.21,3c.57.78,1,1.39,1.4,1.85l.82,1.09a4,4,0,0,1,.55.85,2.31,2.31,0,0,1,.2,1,2.86,2.86,0,0,1-.58,1.61,9.86,9.86,0,0,1-2,2,55.22,55.22,0,0,1-6.11,4.2,45.53,45.53,0,0,1-6.66,3.24A42.08,42.08,0,0,1,340,319.8a44.23,44.23,0,0,1-19.9-.85,44.61,44.61,0,0,1-10.69-4.58,46.54,46.54,0,0,1-9.15-7.06,47.48,47.48,0,0,1-7.14-9.08,44.49,44.49,0,0,1-4.64-10.69,42.77,42.77,0,0,1-1.64-11.85,45.86,45.86,0,0,1,1.54-11.88,45.11,45.11,0,0,1,4.37-10.72,44,44,0,0,1,6.86-9.08,43.45,43.45,0,0,1,9.05-7,45.29,45.29,0,0,1,10.86-4.54,46.69,46.69,0,0,1,12.32-1.6A45.39,45.39,0,0,1,342,232a46.26,46.26,0,0,1,9.7,3.38,43.9,43.9,0,0,1,8.71,5.5,43.13,43.13,0,0,1,7.27,7.51,40.72,40.72,0,0,1,6.49,13.38,61.19,61.19,0,0,1,2,17.28c0,2.14-1,3.21-3,3.21h-72a31.06,31.06,0,0,0,4.06,10.1,34.39,34.39,0,0,0,7,8.09,31.69,31.69,0,0,0,9,5.4,28,28,0,0,0,10.31,1.94,30.12,30.12,0,0,0,6.79-.71,27,27,0,0,0,5.53-1.92,28.71,28.71,0,0,0,4.61-2.73q2.12-1.53,4.1-3.17Zm-.2-48.34a32,32,0,0,0-9.39-5.09,33,33,0,0,0-10.82-1.81,33.91,33.91,0,0,0-8.77,1.16,31.06,31.06,0,0,0-8.23,3.55,34.55,34.55,0,0,0-8.95,8.78A31.35,31.35,0,0,0,301.27,269H363a26.86,26.86,0,0,0-3.52-10.31,28.36,28.36,0,0,0-6.93-7.92" transform="translate(-58.52 -200.24)"/><path class="cls-3" d="M352.75,299.11a12.75,12.75,0,0,1,1.34-1,2.31,2.31,0,0,1,3.45.75l2.21,3c.57.78,1,1.39,1.4,1.85l.82,1.09a4,4,0,0,1,.55.85,2.31,2.31,0,0,1,.2,1,2.86,2.86,0,0,1-.58,1.61,9.86,9.86,0,0,1-2,2,55.22,55.22,0,0,1-6.11,4.2,45.53,45.53,0,0,1-6.66,3.24A42.08,42.08,0,0,1,340,319.8a44.23,44.23,0,0,1-19.9-.85,44.61,44.61,0,0,1-10.69-4.58,46.54,46.54,0,0,1-9.15-7.06,47.48,47.48,0,0,1-7.14-9.08,44.49,44.49,0,0,1-4.64-10.69,42.77,42.77,0,0,1-1.64-11.85,45.86,45.86,0,0,1,1.54-11.88,45.11,45.11,0,0,1,4.37-10.72,44,44,0,0,1,6.86-9.08,43.45,43.45,0,0,1,9.05-7,45.29,45.29,0,0,1,10.86-4.54,46.69,46.69,0,0,1,12.32-1.6A45.39,45.39,0,0,1,342,232a46.26,46.26,0,0,1,9.7,3.38,43.9,43.9,0,0,1,8.71,5.5,43.13,43.13,0,0,1,7.27,7.51,40.72,40.72,0,0,1,6.49,13.38,61.19,61.19,0,0,1,2,17.28c0,2.14-1,3.21-3,3.21h-72a31.06,31.06,0,0,0,4.06,10.1,34.39,34.39,0,0,0,7,8.09,31.69,31.69,0,0,0,9,5.4,28,28,0,0,0,10.31,1.94,30.12,30.12,0,0,0,6.79-.71,27,27,0,0,0,5.53-1.92,28.71,28.71,0,0,0,4.61-2.73q2.12-1.53,4.1-3.17Zm-.2-48.34a32,32,0,0,0-9.39-5.09,33,33,0,0,0-10.82-1.81,33.91,33.91,0,0,0-8.77,1.16,31.06,31.06,0,0,0-8.23,3.55,34.55,34.55,0,0,0-8.95,8.78A31.35,31.35,0,0,0,301.27,269H363a26.86,26.86,0,0,0-3.52-10.31,28.36,28.36,0,0,0-6.93-7.92" transform="translate(-58.52 -200.24)"/><path class="cls-3" d="M125.34,270.64a41.48,41.48,0,0,0-9.46-5.26q-5.3-2.11-10.79-3.82T94.3,258.32a69.34,69.34,0,0,1-9.45-3.45,22.25,22.25,0,0,1-6.7-4.51,8.86,8.86,0,0,1-2.52-6.42,13.41,13.41,0,0,1,1.19-5.43,13.62,13.62,0,0,1,3.73-4.84A19,19,0,0,1,87,230.22a29.37,29.37,0,0,1,9.29-1.3,24.3,24.3,0,0,1,8.53,1.47,46.37,46.37,0,0,1,7.14,3.31,43.13,43.13,0,0,1,5.36,3.62c1.45,1.18,2.5,2,3.14,2.39a3.13,3.13,0,0,0,2.08,1,3,3,0,0,0,2.22-.95l4.84-4.64a2.87,2.87,0,0,0,1.07-2.15,3.37,3.37,0,0,0-1-2.16,35.67,35.67,0,0,0-6.66-6,48.68,48.68,0,0,0-8.26-4.64,51.49,51.49,0,0,0-9-3,38.89,38.89,0,0,0-9-1.1,46.88,46.88,0,0,0-14.44,2.09,33.18,33.18,0,0,0-11,5.84,26.15,26.15,0,0,0-7.07,8.9,25.82,25.82,0,0,0-2.49,11.37,21.24,21.24,0,0,0,1.77,8.84A20.18,20.18,0,0,0,69,260.23,41.12,41.12,0,0,0,78.7,266a110.35,110.35,0,0,0,14.07,5c4,1.18,7.68,2.31,11.16,3.38a54.34,54.34,0,0,1,9.11,3.62,19.85,19.85,0,0,1,6.18,4.71,9.81,9.81,0,0,1,2.29,6.59,14.13,14.13,0,0,1-2.32,8.09,19.6,19.6,0,0,1-5.94,5.7,27.68,27.68,0,0,1-8,3.34,35.06,35.06,0,0,1-8.54,1.1,26.1,26.1,0,0,1-5.66-.76,40.9,40.9,0,0,1-7-2.28,47.14,47.14,0,0,1-7.31-3.89,31.92,31.92,0,0,1-6.51-5.57l-.89-.88a2.89,2.89,0,0,0-2-1.2,3.09,3.09,0,0,0-2.25.86l-5.39,4.5a2.78,2.78,0,0,0-1.19,2.05,3.23,3.23,0,0,0,.85,2.18,43,43,0,0,0,7.44,7.51,47.41,47.41,0,0,0,9,5.57,48.9,48.9,0,0,0,10,3.48,47.41,47.41,0,0,0,10.55,1.2,48.11,48.11,0,0,0,15-2.26,37.84,37.84,0,0,0,12.12-6.38,30.23,30.23,0,0,0,8.12-10,28.26,28.26,0,0,0,3-13A20.85,20.85,0,0,0,132,278.15,25.19,25.19,0,0,0,125.34,270.64Z" transform="translate(-58.52 -200.24)"/><path class="cls-3" d="M229.5,230.41h-7c-2,0-3,1-3,3v10.12a43.46,43.46,0,0,0-13.66-9.46A41.18,41.18,0,0,0,189,230.63a43.19,43.19,0,0,0-11.82,1.6,45.5,45.5,0,0,0-10.65,4.54,44.9,44.9,0,0,0-9.08,7,46.44,46.44,0,0,0-7.07,9.08,44.06,44.06,0,0,0-4.57,10.68,44.38,44.38,0,0,0,0,23.69A44.92,44.92,0,0,0,150.33,298a46.2,46.2,0,0,0,16.15,16.17A43.86,43.86,0,0,0,189,320.35a41.34,41.34,0,0,0,16.86-3.45,43.63,43.63,0,0,0,13.66-9.46v10.32a2.94,2.94,0,0,0,.85,2.12,3,3,0,0,0,2.29.88h7.1a3,3,0,0,0,2.11-.81,2.86,2.86,0,0,0,.89-2.19V233.42C232.71,231.42,231.64,230.41,229.5,230.41Zm-11.81,57.23A34.09,34.09,0,0,1,211,298a32.34,32.34,0,0,1-9.93,7.13,28.13,28.13,0,0,1-12.1,2.66,27.74,27.74,0,0,1-12-2.66,32.1,32.1,0,0,1-9.82-7.13,33.93,33.93,0,0,1-6.62-10.35,32.16,32.16,0,0,1,0-24.48,32.64,32.64,0,0,1,6.62-10.2,32.13,32.13,0,0,1,9.82-7,28.41,28.41,0,0,1,12-2.59,28.81,28.81,0,0,1,12.1,2.59,32.38,32.38,0,0,1,9.93,7,32.8,32.8,0,0,1,6.68,10.2,31.68,31.68,0,0,1,0,24.48Z" transform="translate(-58.52 -200.24)"/><path class="cls-3" d="M276.75,200.24a22.27,22.27,0,0,0-9.42,1.92,20.48,20.48,0,0,0-7,5.19,23,23,0,0,0-4.41,7.64,27.94,27.94,0,0,0-1.53,9.29v14.41h-7.83a3.91,3.91,0,0,0-2.56.81,3.47,3.47,0,0,0-1,2.81v4.3a4.08,4.08,0,0,0,1,2.9,3.35,3.35,0,0,0,2.56,1.05h7.83v66.59a4.15,4.15,0,0,0,.78,2.59,3,3,0,0,0,2.49,1H264a3.79,3.79,0,0,0,2.49-.92,3.24,3.24,0,0,0,1.13-2.69V250.56h9.15a3.17,3.17,0,0,0,2.5-1.05,4.29,4.29,0,0,0,.92-2.9v-4.3a3.08,3.08,0,0,0-3.42-3.62H267.6V224.41a12.35,12.35,0,0,1,1.06-5.49,10.79,10.79,0,0,1,2.56-3.45,8.77,8.77,0,0,1,3.14-1.81,9.7,9.7,0,0,1,2.8-.51,2.58,2.58,0,0,0,2.26-1.06,4.14,4.14,0,0,0,.75-2.43v-5.8a3.71,3.71,0,0,0-.92-2.66A3.31,3.31,0,0,0,276.75,200.24Z" transform="translate(-58.52 -200.24)"/><path class="cls-4" d="M492.33,236.9c5.07-5,6.58-12.83.62-17.84s-12.13-3.48-19,2.21l-32.35,32.29,18.26,15.31Z" transform="translate(-58.52 -200.24)"/><path class="cls-4" d="M480.33,298.56,461,282.42l-17,16.86,21.58,18.26c3,3.12,13,4.14,17.11-.9C487.81,310.34,486.37,303.78,480.33,298.56Z" transform="translate(-58.52 -200.24)"/><path class="cls-1" d="M382.12,216.83c-3.32-2.34-6.77-1.43-2.38,7.9,7.9,16.8,22.7,51,22.7,51s-56.33,86.13-70.07,111.19a25.51,25.51,0,0,0-2.93,6.32,1.9,1.9,0,0,0,1.89,2.49,4.34,4.34,0,0,0,1.89-1.12c15-14.21,112.85-111.44,113.18-111.78,4.07-4.22,4-8.88,0-12.38C439.58,264.43,382.19,216.88,382.12,216.83Z" transform="translate(-58.52 -200.24)"/></svg>