<svg xmlns="http://www.w3.org/2000/svg" width="22.237" height="21.126" viewBox="0 0 22.237 21.126">
  <g id="_04" data-name="04" transform="translate(-161 -210)">
    <path id="Polygon_31" data-name="Polygon 31" d="M6.374.77a1.534,1.534,0,0,1,2.66,0L15.2,11.5a1.534,1.534,0,0,1-1.33,2.3H1.535a1.534,1.534,0,0,1-1.33-2.3Z" transform="translate(183.233 215.718) rotate(90)" fill="#2070df"/>
    <rect id="Rectangle_1008" data-name="Rectangle 1008" width="14.572" height="14.572" rx="3" transform="translate(161 210)" fill="#4cc3ff"/>
    <path id="Polygon_36" data-name="Polygon 36" d="M6.374.77a1.534,1.534,0,0,1,2.66,0L15.2,11.5a1.534,1.534,0,0,1-1.33,2.3H1.535a1.534,1.534,0,0,1-1.33-2.3Z" transform="translate(183.233 215.718) rotate(90)" fill="#4cc3ff"/>
    <path id="Polygon_48" data-name="Polygon 48" d="M1.845.385a.767.767,0,0,1,1.33,0l1.742,3.03a.767.767,0,0,1-.665,1.15H.768A.767.767,0,0,1,.1,3.414Z" transform="translate(183.237 211.325) rotate(90)" fill="#2dd248"/>
    <rect id="Rectangle_1009" data-name="Rectangle 1009" width="14.572" height="14.572" rx="3" transform="translate(161 210)" fill="#2070df"/>
    <path id="Intersection_15" data-name="Intersection 15" d="M11,16.31V8.99a1.534,1.534,0,0,1,2.3-1.33l3.835,2.207v4.142a2.3,2.3,0,0,1-2.3,2.3Z" transform="translate(158.437 208.263)" fill="#5ce6ff"/>
  </g>
</svg>
