<svg id="Group_1415" data-name="Group 1415" xmlns="http://www.w3.org/2000/svg" xmlns:xlink="http://www.w3.org/1999/xlink" width="15" height="18.008" viewBox="0 0 15 18.008">
  <defs>
    <style>
      .cls-1 {
        fill: #4cc3ff;
      }

      .cls-2 {
        clip-path: url(#clip-path);
      }
    </style>
    <clipPath id="clip-path">
      <rect id="Rectangle_713" data-name="Rectangle 713" class="cls-1" width="15" height="18.008"/>
    </clipPath>
  </defs>
  <g id="Group_1414" data-name="Group 1414" class="cls-2">
    <path id="Path_2742" data-name="Path 2742" class="cls-1" d="M103.666,337.859a7.266,7.266,0,0,1-1.019-.352,2.709,2.709,0,0,1-1.4-1.8.614.614,0,0,1-.009-.083h5.493a2.483,2.483,0,0,1-.379.933,2.776,2.776,0,0,1-1.973,1.275.4.4,0,0,0-.08.03Z" transform="translate(-96.481 -319.851)"/>
    <path id="Path_2743" data-name="Path 2743" class="cls-1" d="M7.5,15.009q-3.051,0-6.1,0A1.308,1.308,0,0,1,.034,13.974,1.292,1.292,0,0,1,.5,12.655a5,5,0,0,0,1.189-1.51,5.1,5.1,0,0,0,.56-2.37c0-.721-.008-1.442.005-2.163A5.238,5.238,0,0,1,6.589,1.59c.138-.023.173-.072.168-.2-.009-.222-.007-.446,0-.668A.745.745,0,0,1,8.247.726c.008.228.007.457,0,.686,0,.1.023.153.138.173a5.24,5.24,0,0,1,4.311,4.4,6.545,6.545,0,0,1,.053.876c.013.791-.018,1.584.032,2.373a4.8,4.8,0,0,0,1.647,3.349,1.472,1.472,0,0,1,.565.957,1.309,1.309,0,0,1-1.357,1.465c-.885.005-1.77,0-2.655,0H7.5" transform="translate(0 0)"/>
  </g>
</svg>
