<svg xmlns="http://www.w3.org/2000/svg" xmlns:xlink="http://www.w3.org/1999/xlink" width="15" height="17.996" viewBox="0 0 15 17.996">
  <defs>
    <style>
      .cls-1 {
        fill: #1a59b2;
      }

      .cls-2 {
        isolation: isolate;
      }

      .cls-3 {
        clip-path: url(#clip-path);
      }
    </style>
    <clipPath id="clip-path">
      <rect id="Rectangle_714" data-name="Rectangle 714" class="cls-1" width="15" height="17.996"/>
    </clipPath>
  </defs>
  <g id="Group_1417" data-name="Group 1417" class="cls-2">
    <g id="Group_1416" data-name="Group 1416" class="cls-3">
      <path id="Path_2744" data-name="Path 2744" class="cls-1" d="M74.177,0c.234.047.469.087.7.141a4.365,4.365,0,0,1,3.17,3.522,4.208,4.208,0,0,1-.619,2.989,4.242,4.242,0,0,1-3.386,2A4.335,4.335,0,0,1,72.87.09c.165-.034.332-.06.5-.09Z" transform="translate(-66.378)"/>
      <path id="Path_2745" data-name="Path 2745" class="cls-1" d="M7.5,206.924H3.214a3.346,3.346,0,0,1-2.008-.573,2.662,2.662,0,0,1-1.166-2,9.37,9.37,0,0,1,.6-4.341,3.675,3.675,0,0,1,1.664-1.993,3.3,3.3,0,0,1,1.638-.389,1.214,1.214,0,0,1,.522.18c.271.149.523.333.787.5a4,4,0,0,0,4.5,0,4.979,4.979,0,0,0,.529-.345,1.689,1.689,0,0,1,1.514-.261,3.33,3.33,0,0,1,2.3,1.768,7.478,7.478,0,0,1,.831,2.933A14.624,14.624,0,0,1,15,204.009a2.874,2.874,0,0,1-2.668,2.881c-.221.021-.444.032-.666.033q-2.082,0-4.164,0" transform="translate(0 -188.929)"/>
    </g>
  </g>
</svg>
