<svg xmlns="http://www.w3.org/2000/svg" xmlns:xlink="http://www.w3.org/1999/xlink" width="403" height="350" viewBox="0 0 403 350">
  <defs>
    <style>
      .cls-1 {
        fill: #698896;
      }

      .cls-2 {
        clip-path: url(#clip-path);
      }

      .cls-3 {
        opacity: 0.2;
        mix-blend-mode: multiply;
        isolation: isolate;
      }
    </style>
    <clipPath id="clip-path">
      <rect id="Rectangle_1221" data-name="Rectangle 1221" class="cls-1" width="403" height="350" transform="translate(0 122)"/>
    </clipPath>
  </defs>
  <g id="Mask_Group_110" data-name="Mask Group 110" class="cls-2" transform="translate(0 -122)">
    <g id="Group_1934" data-name="Group 1934" class="cls-3" transform="translate(-14600.595 4390.944)">
      <path id="Path_1362" data-name="Path 1362" class="cls-1" d="M1179.836,491.812c-16.335-11.51-33.292-7.043-11.7,38.872,38.888,82.695,111.7,250.8,111.7,250.8s-277.208,423.85-344.812,547.216c-8.828,15.347-12.733,23.933-14.434,31.1-2.345,9.937,6.346,12.394,9.317,12.235,2.74-.151,6.905-3.446,9.309-5.517,73.976-69.929,555.326-548.417,556.964-550.117,20.019-20.736,19.763-43.656.045-60.893C1462.6,726.075,1180.179,492.054,1179.836,491.812Z" transform="translate(13308.952 -4877.394)"/>
    </g>
    <g id="Group_2015" data-name="Group 2015" class="cls-3" transform="translate(-14495.972 4606.74)">
      <path id="Path_1362-2" data-name="Path 1362" class="cls-1" d="M1087.893,489.914c-10.551-7.434-21.5-4.549-7.559,25.107,25.118,53.412,72.146,161.99,72.146,161.99S973.432,950.773,929.767,1030.455c-5.7,9.912-8.224,15.458-9.323,20.089-1.514,6.418,4.1,8.005,6.018,7.9,1.77-.1,4.46-2.226,6.012-3.564,47.781-45.167,358.683-354.22,359.74-355.318,12.93-13.393,12.765-28.2.029-39.33C1270.53,641.223,1088.115,490.07,1087.893,489.914Z" transform="translate(13308.952 -4877.394)"/>
    </g>
    <g id="Group_3229" data-name="Group 3229" class="cls-3" transform="translate(-14495.972 4401.943)">
      <path id="Path_1362-3" data-name="Path 1362" class="cls-1" d="M1087.893,489.914c-10.551-7.434-21.5-4.549-7.559,25.107,25.118,53.412,72.146,161.99,72.146,161.99S973.432,950.773,929.767,1030.455c-5.7,9.912-8.224,15.458-9.323,20.089-1.514,6.418,4.1,8.005,6.018,7.9,1.77-.1,4.46-2.226,6.012-3.564,47.781-45.167,358.683-354.22,359.74-355.318,12.93-13.393,12.765-28.2.029-39.33C1270.53,641.223,1088.115,490.07,1087.893,489.914Z" transform="translate(13308.952 -4877.394)"/>
    </g>
  </g>
</svg>
