<svg xmlns="http://www.w3.org/2000/svg" width="50" height="51" viewBox="0 0 50 51">
  <defs>
    <style>
      .cls-1 {
        fill: #2070df;
      }

      .cls-1, .cls-4 {
        mix-blend-mode: multiply;
      }

      .cls-1, .cls-4, .cls-5 {
        isolation: isolate;
      }

      .cls-2, .cls-6 {
        fill: #fff;
      }

      .cls-2 {
        opacity: 0.8;
      }

      .cls-3, .cls-4 {
        fill: #4cc3ff;
      }
    </style>
  </defs>
  <g id="Group_1912" data-name="Group 1912" transform="translate(-632 -2470)">
    <circle id="Ellipse_396" data-name="Ellipse 396" class="cls-1" cx="17.5" cy="17.5" r="17.5" transform="translate(647 2486)"/>
    <circle id="Ellipse_399" data-name="Ellipse 399" class="cls-1" cx="7.5" cy="7.5" r="7.5" transform="translate(656 2470)"/>
    <path id="Path_2989" data-name="Path 2989" class="cls-2" d="M68.193,11.313H67.08a.875.875,0,0,1,.286.549h.827V12.4H67.38a1.222,1.222,0,0,1-.278.633.99.99,0,0,1-.512.326v.015a1.167,1.167,0,0,1,.556.293,1.723,1.723,0,0,1,.359.7,10.8,10.8,0,0,1,.3,1.471H66.619q-.1-.71-.183-1.091a3.091,3.091,0,0,0-.147-.531.885.885,0,0,0-.154-.245.809.809,0,0,0-.586-.2H64.533V13.1h.746a1.48,1.48,0,0,0,.732-.157.685.685,0,0,0,.329-.545H64.533v-.534h1.793a.622.622,0,0,0-.311-.421,1.3,1.3,0,0,0-.618-.128h-.864v-.534h3.66Z" transform="translate(597.158 2464.171)"/>
    <path id="Path_2991" data-name="Path 2991" class="cls-2" d="M73.939,12.153h-2.86a2.248,2.248,0,0,1,.734,1.411h2.125v1.374H71.851a3.14,3.14,0,0,1-.715,1.627,2.545,2.545,0,0,1-1.317.837v.037a3,3,0,0,1,1.43.753A4.427,4.427,0,0,1,72.171,20a27.759,27.759,0,0,1,.771,3.781H69.894q-.264-1.825-.47-2.8a7.946,7.946,0,0,0-.377-1.364,2.274,2.274,0,0,0-.395-.631,2.079,2.079,0,0,0-1.5-.527H64.533V16.743h1.918a3.8,3.8,0,0,0,1.882-.4,1.761,1.761,0,0,0,.846-1.4H64.533v-1.38h4.608a1.6,1.6,0,0,0-.8-1.081,3.348,3.348,0,0,0-1.589-.329H64.533V10.779h9.406Z" transform="translate(595.264 2486.221)"/>
    <circle id="Ellipse_395" data-name="Ellipse 395" class="cls-3" cx="17.5" cy="17.5" r="17.5" transform="translate(632 2475)"/>
    <path id="Intersection_2" data-name="Intersection 2" class="cls-4" d="M16.229,34.955A17.511,17.511,0,0,1,32.5,11q.642,0,1.271.046A17.51,17.51,0,0,1,17.5,35Q16.859,35,16.229,34.955Z" transform="translate(632 2475)"/>
    <g id="Group_1735" data-name="Group 1735" class="cls-5" transform="translate(404.353 11.302)">
      <path id="Path_2889" data-name="Path 2889" class="cls-6" d="M20.077,73.286a.452.452,0,0,1-.307-.492c.012-.351,0-.7,0-1.055,0-.3.152-.443.465-.443h11.2c.313,0,.464.143.465.443,0,.352-.009.7,0,1.055a.452.452,0,0,1-.307.492Z" transform="translate(219.349 2414.413)"/>
      <path id="Path_2890" data-name="Path 2890" class="cls-6" d="M19.654,46v-.628h-.506c-.249,0-.4-.1-.446-.294s.045-.356.277-.468l3.487-1.68c.835-.4,1.671-.8,2.5-1.209a.562.562,0,0,1,.551.008c1.911.964,3.827,1.92,5.738,2.885a.584.584,0,0,1,.253.233.368.368,0,0,1-.346.524c-.189.007-.379,0-.578,0V46Zm5.459-1.872h.621a.381.381,0,1,0,0-.761q-.615-.005-1.23,0a.381.381,0,1,0,0,.761h.609" transform="translate(220.027 2433.045)"/>
      <rect id="Rectangle_892" data-name="Rectangle 892" class="cls-6" width="2.747" height="5.11" transform="translate(240.022 2479.828)"/>
      <rect id="Rectangle_893" data-name="Rectangle 893" class="cls-6" width="2.744" height="5.115" transform="translate(247.522 2479.825)"/>
      <rect id="Rectangle_894" data-name="Rectangle 894" class="cls-6" width="2.737" height="5.115" transform="translate(243.777 2479.823)"/>
    </g>
  </g>
</svg>
