<svg xmlns="http://www.w3.org/2000/svg" xmlns:xlink="http://www.w3.org/1999/xlink" width="63" height="51.459" viewBox="0 0 63 51.459">
  <defs>
    <style>
      .cls-1 {
        fill: #fff;
      }

      .cls-2, .cls-3 {
        fill: #4cc3ff;
      }

      .cls-3 {
        mix-blend-mode: multiply;
        isolation: isolate;
      }

      .cls-4 {
        fill: #1a59b2;
      }

      .cls-5 {
        clip-path: url(#clip-path);
      }
    </style>
    <clipPath id="clip-path">
      <rect id="Rectangle_2395" data-name="Rectangle 2395" class="cls-1" width="25.222" height="18.519"/>
    </clipPath>
  </defs>
  <g id="loan_disbursal" data-name="loan disbursal" transform="translate(-498 -4716)">
    <g id="Group_1912" data-name="Group 1912" transform="translate(-134 2244.498)">
      <circle id="Ellipse_395" data-name="Ellipse 395" class="cls-2" cx="23" cy="23" r="23" transform="translate(632 2476.96)"/>
      <path id="Intersection_2" data-name="Intersection 2" class="cls-3" d="M16.614,42.452A22.991,22.991,0,0,1,37.977,11q.843,0,1.669.06a22.99,22.99,0,0,1-21.363,31.45Q17.441,42.511,16.614,42.452Z" transform="translate(636.694 2480.007)"/>
    </g>
    <rect id="Rectangle_1239" data-name="Rectangle 1239" class="cls-4" width="30" height="30" rx="15" transform="translate(531 4716)"/>
    <g id="Group_3976" data-name="Group 3976" transform="translate(508.389 4736.741)">
      <g id="Group_3976-2" data-name="Group 3976" class="cls-5">
        <path id="Path_8909" data-name="Path 8909" class="cls-1" d="M6.41,0A6.805,6.805,0,0,1,8.958.722a6.592,6.592,0,0,0,2.831.558c.766-.011,1.532-.01,2.3-.026A5.947,5.947,0,0,0,16.374.668,6.453,6.453,0,0,1,18.735.035,4.806,4.806,0,0,1,24.067,4.5c.245,2.132.479,4.266.715,6.4.151,1.364.336,2.725.43,4.092a3.107,3.107,0,0,1-1.648,3,3.331,3.331,0,0,1-3.768-.132,13.331,13.331,0,0,1-2.24-1.941c-.658-.662-1.319-1.322-2-1.964a1.867,1.867,0,0,0-1.387-.488q-1.569.033-3.14,0a1.9,1.9,0,0,0-1.409.506c-.646.608-1.255,1.254-1.9,1.862-.673.632-1.344,1.272-2.065,1.846a3.6,3.6,0,0,1-2.242.833A3.431,3.431,0,0,1,0,15.005c.045-.866.165-1.727.257-2.59C.379,11.311.5,10.207.624,9.1c.139-1.271.262-2.544.418-3.812a10.948,10.948,0,0,1,.35-2A4.424,4.424,0,0,1,5.159.122C5.571.054,5.992.039,6.41,0M5.539,8.706a.587.587,0,0,1,.025.095c0,.411,0,.823,0,1.234a.912.912,0,0,0,.94,1.019.9.9,0,0,0,.926-1.025c0-.252,0-.5,0-.757V8.706c.362,0,.68,0,1,0a3.451,3.451,0,0,0,.7-.03.9.9,0,0,0,.636-1.048.866.866,0,0,0-.851-.777c-.483-.008-.965,0-1.48,0,0-.508.011-.983,0-1.457a.885.885,0,0,0-1.061-.868.868.868,0,0,0-.8.917c-.008.463,0,.926,0,1.376a.562.562,0,0,1-.095.027c-.439,0-.878,0-1.318,0a.866.866,0,0,0-.907.947.855.855,0,0,0,.911.91c.456,0,.912,0,1.378,0M17.9,7.255a1.494,1.494,0,0,0,1.525-1.517,1.51,1.51,0,0,0-1.5-1.525,1.528,1.528,0,0,0-1.546,1.51A1.51,1.51,0,0,0,17.9,7.255M20.447,8.3a1.52,1.52,0,0,0,.007,3.039A1.52,1.52,0,1,0,20.447,8.3" transform="translate(0.001)"/>
      </g>
    </g>
    <path id="Path_3101" data-name="Path 3101" class="cls-2" d="M68.18,28.428l-6.768-6.773,2.539-2.541,4.315,4.312,8.742-7.945,2.45,2.691L68.18,28.431" transform="translate(475.565 4710.41)"/>
  </g>
</svg>
