<svg xmlns="http://www.w3.org/2000/svg" xmlns:xlink="http://www.w3.org/1999/xlink" width="63" height="51" viewBox="0 0 63 51">
  <defs>
    <style>
      .cls-1, .cls-2 {
        fill: #fff;
      }

      .cls-2 {
        opacity: 0.8;
      }

      .cls-3, .cls-4 {
        fill: #4cc3ff;
      }

      .cls-4 {
        mix-blend-mode: multiply;
        isolation: isolate;
      }

      .cls-5 {
        clip-path: url(#clip-path);
      }

      .cls-6 {
        fill: #1a59b2;
      }
    </style>
    <clipPath id="clip-path">
      <rect id="Rectangle_2396" data-name="Rectangle 2396" class="cls-1" width="23.591" height="23.596"/>
    </clipPath>
  </defs>
  <g id="Utility_payments" data-name="Utility payments" transform="translate(-14967 -569)">
    <g id="Group_1912" data-name="Group 1912" transform="translate(14335 -1902.96)">
      <path id="Path_2989" data-name="Path 2989" class="cls-2" d="M69.338,12.907H68.271a1.6,1.6,0,0,1-.365.831,1.3,1.3,0,0,1-.672.428v.02a1.532,1.532,0,0,1,.73.385,2.262,2.262,0,0,1,.471.919,14.18,14.18,0,0,1,.394,1.931H67.272q-.131-.932-.24-1.432a4.059,4.059,0,0,0-.193-.7,1.162,1.162,0,0,0-.2-.322,1.062,1.062,0,0,0-.769-.263H64.533v-.881h.979a1.943,1.943,0,0,0,.961-.206.9.9,0,0,0,.432-.716H64.533v-.7h2.354a.817.817,0,0,0-.408-.553,1.707,1.707,0,0,0-.811-.168H64.533v-.7h4.805Z" transform="translate(606.45 2465.721)"/>
      <circle id="Ellipse_395" data-name="Ellipse 395" class="cls-3" cx="23" cy="23" r="23" transform="translate(632 2476.96)"/>
      <path id="Intersection_2" data-name="Intersection 2" class="cls-4" d="M16.614,42.452A22.991,22.991,0,0,1,37.977,11q.843,0,1.669.06a22.99,22.99,0,0,1-21.363,31.45Q17.441,42.511,16.614,42.452Z" transform="translate(636.694 2480.007)"/>
      <g id="Group_3977" data-name="Group 3977" transform="translate(643.909 2488.253)">
        <g id="Group_3977-2" data-name="Group 3977" class="cls-5">
          <path id="Path_8910" data-name="Path 8910" class="cls-1" d="M8.619,0c.363.047.727.085,1.088.142a9.028,9.028,0,0,1,4.153,1.6A3.475,3.475,0,0,1,15.2,3.539,2.567,2.567,0,0,1,14.516,6.1a6.442,6.442,0,0,1-2.939,1.722,13.107,13.107,0,0,1-4.929.522,11.521,11.521,0,0,1-3.806-.878,5.6,5.6,0,0,1-2.15-1.5,2.563,2.563,0,0,1,.093-3.6A6.772,6.772,0,0,1,3.748.6,11.4,11.4,0,0,1,6.6.042,1.038,1.038,0,0,0,6.776,0Z" transform="translate(0)"/>
          <path id="Path_8911" data-name="Path 8911" class="cls-1" d="M.036,118.085a9.877,9.877,0,0,0,5.09,2.271,14.753,14.753,0,0,0,3.664.182c.274-.021.548-.053.851-.083a1.1,1.1,0,0,1-.09.131,9.161,9.161,0,0,0-1.746,2.6.291.291,0,0,1-.207.153,11.238,11.238,0,0,1-5.5-1.3,4.417,4.417,0,0,1-1.656-1.494,2.469,2.469,0,0,1-.4-1.391c.008-.343,0-.685,0-1.072" transform="translate(-0.032 -110.819)"/>
          <path id="Path_8912" data-name="Path 8912" class="cls-1" d="M.026,253.425c.394.285.755.579,1.148.823a10.426,10.426,0,0,0,4.019,1.408c.635.095,1.279.128,1.917.2a.261.261,0,0,1,.191.134,9.475,9.475,0,0,0,1.086,2.545.289.289,0,0,1,.017.077,1.505,1.505,0,0,1-.181.029,12.3,12.3,0,0,1-5.409-.925A5.247,5.247,0,0,1,.526,256a2.521,2.521,0,0,1-.5-1.567c.01-.334,0-.668,0-1.006" transform="translate(-0.022 -237.832)"/>
          <path id="Path_8913" data-name="Path 8913" class="cls-1" d="M7.258,188.1c-.065.469-.152.913-.183,1.361s-.007.9-.007,1.4c-.44-.042-.858-.066-1.272-.123a10.315,10.315,0,0,1-3.661-1.145,4.6,4.6,0,0,1-1.693-1.491,2.459,2.459,0,0,1-.419-1.433c.01-.335,0-.67,0-1.039A11.427,11.427,0,0,0,7.258,188.1" transform="translate(-0.02 -174.201)"/>
          <path id="Path_8914" data-name="Path 8914" class="cls-1" d="M151.312,142.241a7.6,7.6,0,1,0-6.149,9.031,7.4,7.4,0,0,0,6.019-5.448,13.636,13.636,0,0,0,.282-1.39v-1.29c-.05-.3-.089-.6-.152-.9m-4.811-1.325H144.9a1.26,1.26,0,0,1,.412.792H146.5v.771h-1.172a1.769,1.769,0,0,1-.4.914,1.428,1.428,0,0,1-.739.47v.021a1.685,1.685,0,0,1,.8.422,2.492,2.492,0,0,1,.518,1.014,15.559,15.559,0,0,1,.433,2.123H144.23q-.148-1.024-.264-1.574a4.456,4.456,0,0,0-.211-.766,1.271,1.271,0,0,0-.222-.354,1.166,1.166,0,0,0-.845-.3H141.22v-.961H142.3a2.136,2.136,0,0,0,1.056-.227.987.987,0,0,0,.475-.787H141.22v-.771h2.588a.9.9,0,0,0-.449-.607,1.879,1.879,0,0,0-.892-.185H141.22v-.771H146.5Z" transform="translate(-127.873 -127.806)"/>
        </g>
      </g>
    </g>
    <rect id="Rectangle_1246" data-name="Rectangle 1246" class="cls-6" width="30" height="30" rx="15" transform="translate(15000 569)"/>
    <path id="Path_3101" data-name="Path 3101" class="cls-3" d="M68.18,28.428l-6.768-6.773,2.539-2.541,4.315,4.312,8.742-7.945,2.45,2.691L68.18,28.431" transform="translate(14944.564 562.043)"/>
  </g>
</svg>
