<svg xmlns="http://www.w3.org/2000/svg" xmlns:xlink="http://www.w3.org/1999/xlink" width="63" height="51" viewBox="0 0 63 51">
  <defs>
    <style>
      .cls-1, .cls-2 {
        fill: #fff;
      }

      .cls-2 {
        opacity: 0.8;
      }

      .cls-3, .cls-4 {
        fill: #4cc3ff;
      }

      .cls-4 {
        mix-blend-mode: multiply;
      }

      .cls-4, .cls-6 {
        isolation: isolate;
      }

      .cls-5 {
        fill: #1a59b2;
      }

      .cls-7 {
        clip-path: url(#clip-path);
      }
    </style>
    <clipPath id="clip-path">
      <rect id="Rectangle_1241" data-name="Rectangle 1241" class="cls-1" width="22.049" height="26.935"/>
    </clipPath>
  </defs>
  <g id="Insuarance_claims" data-name="Insuarance claims" transform="translate(-838 -4716)">
    <g id="Group_1912" data-name="Group 1912" transform="translate(206 2244.04)">
      <path id="Path_2989" data-name="Path 2989" class="cls-2" d="M69.338,12.907H68.271a1.6,1.6,0,0,1-.365.831,1.3,1.3,0,0,1-.672.428v.02a1.532,1.532,0,0,1,.73.385,2.262,2.262,0,0,1,.471.919,14.18,14.18,0,0,1,.394,1.931H67.272q-.131-.932-.24-1.432a4.059,4.059,0,0,0-.193-.7,1.162,1.162,0,0,0-.2-.322,1.062,1.062,0,0,0-.769-.263H64.533v-.881h.979a1.943,1.943,0,0,0,.961-.206.9.9,0,0,0,.432-.716H64.533v-.7h2.354a.817.817,0,0,0-.408-.553,1.707,1.707,0,0,0-.811-.168H64.533v-.7h4.805Z" transform="translate(606.45 2465.721)"/>
      <circle id="Ellipse_395" data-name="Ellipse 395" class="cls-3" cx="23" cy="23" r="23" transform="translate(632 2476.96)"/>
      <path id="Intersection_2" data-name="Intersection 2" class="cls-4" d="M16.614,42.452A22.991,22.991,0,0,1,37.977,11q.843,0,1.669.06a22.99,22.99,0,0,1-21.363,31.45Q17.441,42.511,16.614,42.452Z" transform="translate(636.694 2480.007)"/>
    </g>
    <rect id="Rectangle_1242" data-name="Rectangle 1242" class="cls-5" width="30" height="30" rx="15" transform="translate(871 4716)"/>
    <g id="Group_2005" data-name="Group 2005" class="cls-6" transform="translate(848.951 4730.854)">
      <g id="Group_2004" data-name="Group 2004" class="cls-7">
        <path id="Path_3130" data-name="Path 3130" class="cls-1" d="M6.816,0H17.7a1.689,1.689,0,0,1,1.229,1.882c-.019,6.775-.01,13.551-.011,20.326a1.506,1.506,0,0,1-1.672,1.675H1.685A1.516,1.516,0,0,1,0,22.188Q0,14.654,0,7.121c0-.093.008-.186.013-.3H.377c1.376,0,2.752.008,4.128,0a2.868,2.868,0,0,0,.727-.078A2.058,2.058,0,0,0,6.816,4.653c.006-1.551,0-3.1,0-4.654M9.759,15.242q2.5,0,5,0a1.737,1.737,0,0,0,.365-.03.7.7,0,0,0-.168-1.376q-5.18-.006-10.36,0a.862.862,0,0,0-.1,0,.718.718,0,0,0-.62.729.732.732,0,0,0,.817.674q2.537,0,5.075,0m0-3.819h4.47c.263,0,.526.006.789-.006A.66.66,0,0,0,15.605,11a.637.637,0,0,0-.072-.67.814.814,0,0,0-.74-.306q-5.022,0-10.043,0a1.814,1.814,0,0,0-.314.02.686.686,0,0,0-.45,1.058.759.759,0,0,0,.7.326c1.691-.005,3.383,0,5.074,0m-2.6,7.406c.849,0,1.7,0,2.548,0a.7.7,0,0,0,.742-.835.735.735,0,0,0-.8-.574q-2.483,0-4.965,0a.731.731,0,0,0-.822.694c-.006.428.323.716.824.717q1.235,0,2.47,0" transform="translate(0 0.001)"/>
        <path id="Path_3131" data-name="Path 3131" class="cls-1" d="M88.63,107.676h14.176a2.334,2.334,0,0,0,2.239-1.328,2.6,2.6,0,0,0,.233-1.226q0-9.376,0-18.751v-.392a8,8,0,0,1,1.163.083,1.464,1.464,0,0,1,1.114,1.576c0,1.3,0,2.595,0,3.892q0,8.31,0,16.621a1.749,1.749,0,0,1-.294,1.12,1.562,1.562,0,0,1-1.329.613q-4.444-.007-8.889,0H90.284a1.5,1.5,0,0,1-1.654-1.64c0-.175,0-.35,0-.566" transform="translate(-85.507 -82.95)"/>
        <path id="Path_3132" data-name="Path 3132" class="cls-1" d="M6.631,3.55c0,.631,0,1.262,0,1.892A1.251,1.251,0,0,1,5.313,6.8c-1.305.014-2.611,0-3.916,0A.641.641,0,0,1,.93,5.656Q3.208,3.38,5.483,1.1a.644.644,0,0,1,1.15.477c-.009.657,0,1.314,0,1.971" transform="translate(-0.657 -0.818)"/>
      </g>
    </g>
    <path id="Path_3101" data-name="Path 3101" class="cls-3" d="M68.18,28.428l-6.768-6.773,2.539-2.541,4.315,4.312,8.742-7.945,2.45,2.691L68.18,28.431" transform="translate(815.564 4709.043)"/>
  </g>
</svg>
