<svg xmlns="http://www.w3.org/2000/svg" width="50" height="46" viewBox="0 0 50 46">
  <defs>
    <style>
      .cls-1 {
        fill: #2070df;
      }

      .cls-1, .cls-4 {
        mix-blend-mode: multiply;
        isolation: isolate;
      }

      .cls-2, .cls-4 {
        fill: #4cc3ff;
      }

      .cls-3 {
        fill: #fff;
      }
    </style>
  </defs>
  <g id="Group_1914" data-name="Group 1914" transform="translate(-924 -2934)">
    <g id="Group_1886" data-name="Group 1886" transform="translate(92 -84)">
      <g id="Group_1876" data-name="Group 1876" transform="translate(699 4147)">
        <g id="Group_1875" data-name="Group 1875" transform="translate(1 524)">
          <circle id="Ellipse_502" data-name="Ellipse 502" class="cls-1" cx="17.5" cy="17.5" r="17.5" transform="translate(147 -1642)"/>
          <circle id="Ellipse_503" data-name="Ellipse 503" class="cls-2" cx="17.5" cy="17.5" r="17.5" transform="translate(132 -1653)"/>
          <path id="Path_3101" data-name="Path 3101" class="cls-3" d="M66.492,25.2l-5.08-5.084,1.906-1.907,3.239,3.237,6.562-5.964,1.839,2.02-8.466,7.7" transform="translate(97.439 -1644.197)"/>
          <path id="Intersection_24" data-name="Intersection 24" class="cls-4" d="M16.229,34.955A17.511,17.511,0,0,1,32.5,11q.642,0,1.271.046A17.51,17.51,0,0,1,17.5,35Q16.859,35,16.229,34.955Z" transform="translate(132 -1653)"/>
        </g>
        <g id="Group_1737" data-name="Group 1737" transform="translate(-664.273 -4243.096)">
          <path id="Path_2907" data-name="Path 2907" class="cls-3" d="M24.166,59.487c-.052-.463-.108-.926-.152-1.39a.208.208,0,0,0-.161-.2c-.522-.206-1.043-.417-1.558-.641a.2.2,0,0,0-.253.03c-.346.29-.7.574-1.033.847l-3.186-3.186c.256-.319.518-.663.8-.99a.278.278,0,0,0,.031-.356c-.219-.489-.422-.985-.617-1.485a.216.216,0,0,0-.213-.172c-.457-.037-.913-.086-1.38-.132v-4.5a7.333,7.333,0,0,1,.95-.1.665.665,0,0,0,.764-.593,6.646,6.646,0,0,1,.5-1.173.2.2,0,0,0-.026-.254c-.291-.346-.575-.7-.847-1.031l3.185-3.19c.271.217.577.434.847.689a.467.467,0,0,0,.635.076,11.882,11.882,0,0,1,1.344-.551.224.224,0,0,0,.176-.23c.036-.451.084-.9.129-1.363H26.96v2.347h2.479a1.784,1.784,0,0,1,1.04-1.044,1.7,1.7,0,0,1,1.124-.032,1.75,1.75,0,1,1-2.17,2.259H26.969v1.167A5.3,5.3,0,0,0,22.333,46.2a5.025,5.025,0,0,0-1.19,3.582,5.1,5.1,0,0,0,1.83,3.727,5.331,5.331,0,0,0,3.985,1.258v1.164h2.48a1.75,1.75,0,1,1,0,1.184h-2.47v2.366Z" transform="translate(788.385 3082.128)"/>
          <path id="Path_2908" data-name="Path 2908" class="cls-3" d="M41.988,57.834c-.026.092-.05.185-.078.276a1.745,1.745,0,0,1-3.415-.565.211.211,0,0,0-.137-.236c-.553-.27-1.1-.551-1.652-.82a.656.656,0,0,0-.28-.052H31.393a3.392,3.392,0,0,1-3.382-2.781,3.6,3.6,0,0,1,3.038-4.177,5.71,5.71,0,0,1,.639-.037q2.361,0,4.723-.006a.881.881,0,0,0,.368-.087c.53-.255,1.054-.524,1.581-.786.085-.042.141-.078.138-.2a1.745,1.745,0,0,1,3.452-.449.507.507,0,0,0,.038.085v.544a.259.259,0,0,0-.035.065,1.735,1.735,0,0,1-2.821,1.007.2.2,0,0,0-.258-.012c-.606.306-1.211.613-1.822.91a.877.877,0,0,1-.368.086c-1.754.006-3.509,0-5.264.006a2.331,2.331,0,1,0,.02,4.661c1.748.007,3.5,0,5.245.006a.89.89,0,0,1,.368.086q.907.44,1.8.9a.238.238,0,0,0,.306-.027,1.733,1.733,0,0,1,2.648.61,5.117,5.117,0,0,1,.177.486Z" transform="translate(782.729 3078.726)"/>
          <path id="Path_2909" data-name="Path 2909" class="cls-3" d="M44.825,57.681a3.959,3.959,0,0,1-.148.459,1.741,1.741,0,0,1-3.163.073c-.03-.056-.056-.115-.088-.182h-7.7v-1.16h7.7a1.748,1.748,0,0,1,3.353.177c.014.056.031.111.046.167Z" transform="translate(779.892 3074.214)"/>
        </g>
      </g>
    </g>
  </g>
</svg>
