<svg xmlns="http://www.w3.org/2000/svg" xmlns:xlink="http://www.w3.org/1999/xlink" width="174" height="176" viewBox="0 0 174 176">
  <defs>
    <style>
      .cls-1 {
        fill: none;
        stroke: #707070;
      }

      .cls-2 {
        fill: #fff;
      }

      .cls-3 {
        clip-path: url(#clip-path);
      }

      .cls-4 {
        fill: url(#linear-gradient);
      }

      .cls-5 {
        opacity: 0.36;
      }

      .cls-6 {
        clip-path: url(#clip-path-2);
      }
    </style>
    <clipPath id="clip-path">
      <rect id="Rectangle_1743" data-name="Rectangle 1743" class="cls-1" width="174" height="176" transform="translate(139 6598)"/>
    </clipPath>
    <linearGradient id="linear-gradient" x1="0.5" x2="0.5" y2="1" gradientUnits="objectBoundingBox">
      <stop offset="0" stop-color="#0099e5"/>
      <stop offset="1" stop-color="#0aadff"/>
    </linearGradient>
    <clipPath id="clip-path-2">
      <rect id="Rectangle_1742" data-name="Rectangle 1742" class="cls-2" width="107.238" height="107.435"/>
    </clipPath>
  </defs>
  <g id="Mask_Group_136" data-name="Mask Group 136" class="cls-3" transform="translate(-139 -6598)">
    <g id="Group_3018" data-name="Group 3018" transform="translate(95.614 6566.184)">
      <circle id="Ellipse_541" data-name="Ellipse 541" class="cls-4" cx="82" cy="82" r="82" transform="translate(0.386 -0.184)"/>
      <g id="Group_3017" data-name="Group 3017" class="cls-5" transform="translate(28.767 21.099)">
        <g id="Group_3016" data-name="Group 3016" class="cls-6">
          <path id="Path_6768" data-name="Path 6768" class="cls-2" d="M14.241,0c.83.234,1.678.421,2.488.71a12.594,12.594,0,0,1,6.683,18.176c-.132.231-.257.466-.385.7l.25.227c.76-.823,1.494-1.673,2.285-2.465,6.725-6.727,16.627-6.58,23.182.333.117.123.217.263.334.406L35.554,31.577c.856.7,1.629,1.246,2.289,1.9a3.152,3.152,0,1,1-4.437,4.44c-.641-.635-1.236-1.317-1.926-2.056L18.222,49.252C11.236,43.814,9.2,30.857,19.6,23.113a4.718,4.718,0,0,0-.573.238A12.521,12.521,0,0,1,.173,14.634,1.6,1.6,0,0,0,0,14.269V10.911a2.531,2.531,0,0,0,.184-.473A12.484,12.484,0,0,1,5.348,2.266,15.554,15.554,0,0,1,10.89,0Z"/>
          <path id="Path_6769" data-name="Path 6769" class="cls-2" d="M242.594,257.184a32.274,32.274,0,0,1-3.258-1.033,12.552,12.552,0,0,1-5.863-17.941.958.958,0,0,0,.138-.78c-.779.806-1.544,1.625-2.338,2.416a15.725,15.725,0,0,1-23.329-.5,2.911,2.911,0,0,1-.217-.335q3.279-3.285,6.566-6.577c2.2-2.2,4.393-4.395,6.7-6.7-.692-.7-1.351-1.349-2-2.013a3.185,3.185,0,0,1-.225-4.663,3.152,3.152,0,0,1,4.65.2c.641.636,1.22,1.335,1.856,2.036l13.316-13.371c6.9,5.335,9.13,18.192-1.312,26.2.235-.13.468-.264.705-.39,4.757-2.54,9.441-2.406,13.769.82,4.289,3.2,5.859,7.639,4.755,12.878A12.377,12.377,0,0,1,246.416,257a2.476,2.476,0,0,0-.471.185Z" transform="translate(-149.609 -149.749)"/>
          <path id="Path_6770" data-name="Path 6770" class="cls-2" d="M246.1,0c.633.166,1.27.318,1.9.5a12.582,12.582,0,0,1-1.713,24.51,12.356,12.356,0,0,1-8.243-1.62c-.2-.114-.405-.212-.608-.317l-.233.267c.881.811,1.8,1.586,2.639,2.439a15.785,15.785,0,0,1-.6,23.154,4.575,4.575,0,0,1-.414.292c-2.961-2.982-5.921-5.944-8.842-8.946a1.23,1.23,0,0,1-.038-1.011,9.363,9.363,0,0,0-8.07-12.721,20.383,20.383,0,0,0-4.1.552c-.358.045-.874.07-1.083-.135-2.915-2.864-5.79-5.77-8.672-8.669a.57.57,0,0,1-.082-.182c5.408-6.925,18.256-8.818,25.976,1.519a4.535,4.535,0,0,0-.232-.566,12.549,12.549,0,0,1,8.7-18.892A1.584,1.584,0,0,0,242.748,0Z" transform="translate(-149.763)"/>
          <path id="Path_6771" data-name="Path 6771" class="cls-2" d="M0,242.8c.741-1.823,1.205-3.831,2.274-5.434a12.366,12.366,0,0,1,16.656-3.71.994.994,0,0,0,.778.154c-.919-.9-1.855-1.792-2.754-2.717A15.373,15.373,0,0,1,12.4,219.735a15.79,15.79,0,0,1,5.784-11.981c.625.677,1.214,1.355,1.844,1.991q3.317,3.349,6.665,6.667a1.165,1.165,0,0,1,.366,1.438A8.961,8.961,0,0,0,29.2,227.8a9.1,9.1,0,0,0,9.945,2.194,1.388,1.388,0,0,1,1.169.131c2.946,2.877,5.847,5.8,8.751,8.7-4.238,6.137-17.613,9.8-26-1.408a4.814,4.814,0,0,0,.243.588,12.552,12.552,0,0,1-8.7,18.882,1.553,1.553,0,0,0-.363.174H10.89a2.587,2.587,0,0,0-.47-.185,12,12,0,0,1-8.732-6.168A30.9,30.9,0,0,1,0,246.153V242.8" transform="translate(0 -149.629)"/>
          <path id="Path_6772" data-name="Path 6772" class="cls-2" d="M80.054,112.231c3.136-3.134,6.062-6.082,9.036-8.98a1.406,1.406,0,0,1,1.174-.061,9.39,9.39,0,0,0,12.311-6.379,9.558,9.558,0,0,0-.286-5.871,1.241,1.241,0,0,1,.145-1.065c2.859-2.92,5.758-5.8,8.65-8.689a.448.448,0,0,1,.168-.069L124.61,94.523c.722-.8,1.314-1.512,1.967-2.166,1.479-1.482,3.305-1.575,4.643-.274,1.367,1.329,1.293,3.2-.209,4.732-.634.647-1.3,1.257-2.053,1.975l13.384,13.383-5.352,5.359c-1.111,1.112-2.236,2.21-3.324,3.345a1,1,0,0,1-1.257.3,8.946,8.946,0,0,0-10.023,2.137c-2.825,2.844-3.419,6.28-2.118,10.069a1.161,1.161,0,0,1-.118.984c-2.9,2.97-5.845,5.9-8.745,8.815L97.941,129.675c-.8.9-1.4,1.669-2.089,2.351a3.143,3.143,0,1,1-4.436-4.439c.657-.674,1.365-1.3,2.041-1.937l-13.4-13.418" transform="translate(-57.657 -58.422)"/>
        </g>
      </g>
    </g>
  </g>
</svg>
