<svg xmlns="http://www.w3.org/2000/svg" xmlns:xlink="http://www.w3.org/1999/xlink" width="174" height="176" viewBox="0 0 174 176">
  <defs>
    <style>
      .cls-1, .cls-3 {
        fill: #fff;
      }

      .cls-1 {
        stroke: #707070;
      }

      .cls-2 {
        fill: url(#linear-gradient);
      }

      .cls-4 {
        clip-path: url(#clip-path);
      }

      .cls-5 {
        clip-path: url(#clip-path-2);
      }

      .cls-6 {
        opacity: 0.35;
        isolation: isolate;
      }

      .cls-7 {
        clip-path: url(#clip-path-3);
      }
    </style>
    <linearGradient id="linear-gradient" x1="0.5" x2="0.5" y2="1" gradientUnits="objectBoundingBox">
      <stop offset="0" stop-color="#0099e5"/>
      <stop offset="1" stop-color="#0aadff"/>
    </linearGradient>
    <clipPath id="clip-path">
      <rect id="Rectangle_1713" data-name="Rectangle 1713" class="cls-1" width="174" height="176" transform="translate(139 6598)"/>
    </clipPath>
    <clipPath id="clip-path-2">
      <circle id="Ellipse_539" data-name="Ellipse 539" class="cls-2" cx="82" cy="82" r="82" transform="translate(0.386 -0.184)"/>
    </clipPath>
    <clipPath id="clip-path-3">
      <rect id="Rectangle_1744" data-name="Rectangle 1744" class="cls-3" width="104.935" height="105.139"/>
    </clipPath>
  </defs>
  <g id="Mask_Group_129" data-name="Mask Group 129" class="cls-4" transform="translate(-139 -6598)">
    <g id="Group_2996" data-name="Group 2996" transform="translate(95.614 6566.184)">
      <path id="Path_6773" data-name="Path 6773" class="cls-2" d="M82,0A82,82,0,1,1,0,82,82,82,0,0,1,82,0Z" transform="translate(0.386 -0.184)"/>
      <g id="Mask_Group_128" data-name="Mask Group 128" class="cls-5" transform="translate(0 0)">
        <g id="Group_3019" data-name="Group 3019" class="cls-6" transform="translate(29.918 19.725)">
          <g id="Group_3019-2" data-name="Group 3019" class="cls-7">
            <path id="Path_6773-2" data-name="Path 6773" class="cls-3" d="M133.08,171.13h-5.33a3.169,3.169,0,0,0-.582-.159,39.621,39.621,0,0,1-18.47-6.4,40.073,40.073,0,1,1,60.838-42.61c.461,2.06.708,4.167,1.054,6.253v5.339a4.628,4.628,0,0,0-.17.689,40.66,40.66,0,0,1-6.985,19.2,1.245,1.245,0,0,0-.09,1.389c1.418,3.136,2.791,6.292,4.2,9.433,1,2.235,2.03,4.456,3.047,6.682a10.861,10.861,0,0,1-1.25-.387q-7.47-3.311-14.924-6.655a1.389,1.389,0,0,0-1.566.113,39.545,39.545,0,0,1-13.354,5.966c-2.112.5-4.277.771-6.417,1.146m5.031-26.891c-.41.2-.712.359-1.018.508a15.409,15.409,0,1,1,8.694-13.975,3.076,3.076,0,1,1-6.151.12,14.585,14.585,0,0,0-.168-1.629,9.212,9.212,0,1,0-14.778,8.848,9.005,9.005,0,0,0,11.033.246,1.134,1.134,0,0,1,1.64-.032,9.093,9.093,0,0,0,12.926-2.189c1.869-2.672,1.9-5.645,1.374-8.673a21.527,21.527,0,1,0-17.094,24.56,18.894,18.894,0,0,0,6.583-2.5l-3.043-5.281" transform="translate(-65.656 -65.991)"/>
            <path id="Path_6774" data-name="Path 6774" class="cls-3" d="M43.031,0c1.678.268,3.372.46,5.031.817,11.275,2.429,19.879,8.667,26,18.41.07.111.118.237.237.482-16.227-3.033-30.436.947-42.044,12.548C20.625,43.884,16.643,58.127,19.664,74.491a12.227,12.227,0,0,1-1.647-.956,1.855,1.855,0,0,0-2.221-.1c-4.842,2.206-9.713,4.348-14.575,6.51-.3.134-.61.256-1.159.485.22-.538.346-.867.488-1.188,2.2-4.964,4.389-9.935,6.624-14.883A1.575,1.575,0,0,0,7,62.605C2.3,55.489-.327,47.692.033,39.112.611,25.324,6.769,14.528,18.091,6.735A38,38,0,0,1,36.808.164,4.559,4.559,0,0,0,37.5,0Z" transform="translate(0)"/>
            <path id="Path_6775" data-name="Path 6775" class="cls-3" d="M231.44,228.855a3.071,3.071,0,1,1-3.027-3.1,3.109,3.109,0,0,1,3.027,3.1" transform="translate(-163.611 -163.947)"/>
          </g>
        </g>
      </g>
    </g>
  </g>
</svg>
