<svg xmlns="http://www.w3.org/2000/svg" xmlns:xlink="http://www.w3.org/1999/xlink" width="44" height="40"  viewBox="0 0 50 46">
  <defs>
    <clipPath id="clip-path">
      <rect id="Rectangle_7255" data-name="Rectangle 7255" width="15" height="15.444" fill="#fff"/>
    </clipPath>
    <clipPath id="clip-path-2">
      <rect id="Rectangle_7254" data-name="Rectangle 7254" width="19.288" height="19.288" fill="#fff"/>
    </clipPath>
  </defs>
  <g id="Group_13233" data-name="Group 13233" transform="translate(-140 -2222)">
    <g id="Group_1912" data-name="Group 1912" transform="translate(-492 -253)">
      <circle id="Ellipse_396" data-name="Ellipse 396" cx="17.5" cy="17.5" r="17.5" transform="translate(647 2486)" fill="#2070df" style="mix-blend-mode: multiply;isolation: isolate"/>
      <circle id="Ellipse_395" data-name="Ellipse 395" cx="17.5" cy="17.5" r="17.5" transform="translate(632 2475)" fill="#4cc3ff"/>
      <g id="Group_13235" data-name="Group 13235" transform="translate(658 2496.33)">
        <g id="Group_13235-2" data-name="Group 13235" clip-path="url(#clip-path)">
          <path id="Path_13968" data-name="Path 13968" d="M13.2,15.445H1.8a4.524,4.524,0,0,1-.752-.275A2.007,2.007,0,0,1,0,13.311C0,8.734,0,6.717,0,2.14c0-.053,0-.106,0-.158A2.049,2.049,0,0,1,2.014,0Q7.5-.006,12.986,0a1.86,1.86,0,0,1,.97.27A2.03,2.03,0,0,1,15,2.122c0,4.589,0,6.618,0,11.206q0,.07,0,.141a2.064,2.064,0,0,1-1.5,1.9c-.1.028-.2.052-.3.078M3.8,10.194a3.657,3.657,0,0,0,4.156.195A3.747,3.747,0,0,0,9.567,6.035C9.135,4.71,7.631,3.451,6.56,3.532V3.72c0,1.119,0,2.238,0,3.357a.79.79,0,0,1-.253.608c-.8.791-1.593,1.589-2.389,2.384-.04.04-.078.083-.118.125M2.981,9.41c.063-.06.106-.1.147-.139Q4.221,8.177,5.316,7.086a.372.372,0,0,0,.12-.292c0-1.031,0-2.061,0-3.092V3.494A3.7,3.7,0,0,0,2.571,5.7a3.646,3.646,0,0,0,.41,3.714M7.5,13.379h4.534c.064,0,.129,0,.193,0a.558.558,0,0,0,.085-1.1,1.273,1.273,0,0,0-.262-.021h-9.1a1.329,1.329,0,0,0-.227.013.548.548,0,0,0-.467.587.561.561,0,0,0,.625.524H7.5m4.125-6.753c.193,0,.387.005.58,0a.548.548,0,0,0,.54-.5.524.524,0,0,0-.461-.6,10.4,10.4,0,0,0-1.315,0,.532.532,0,0,0-.468.583.557.557,0,0,0,.544.519c.193.007.386,0,.58,0m0,2.25c.2,0,.4.007.6,0a.545.545,0,0,0,.526-.513.523.523,0,0,0-.459-.587,10.556,10.556,0,0,0-1.315,0,.533.533,0,0,0-.471.581.558.558,0,0,0,.541.521c.193.007.386,0,.58,0m.012-5.429c-.193,0-.387,0-.58,0a.557.557,0,0,0-.554.526.544.544,0,0,0,.494.582,11.067,11.067,0,0,0,1.263,0,.531.531,0,0,0,.488-.6.549.549,0,0,0-.549-.51c-.187-.006-.375,0-.562,0m0,6.372c-.187,0-.375,0-.562,0a.561.561,0,1,0,0,1.123q.562.008,1.125,0a.561.561,0,0,0,0-1.122c-.187-.005-.375,0-.562,0" transform="translate(0 -0.001)" fill="#fff"/>
        </g>
      </g>
      <path id="Intersection_2" data-name="Intersection 2" d="M16.229,34.955A17.511,17.511,0,0,1,32.5,11q.642,0,1.271.046A17.51,17.51,0,0,1,17.5,35Q16.859,35,16.229,34.955Z" transform="translate(632 2475)" fill="#4cc3ff" style="mix-blend-mode: multiply;isolation: isolate"/>
      <g id="Group_13234" data-name="Group 13234" transform="translate(639.856 2482.856)">
        <g id="Group_13231" data-name="Group 13231" clip-path="url(#clip-path-2)">
          <path id="Path_13967" data-name="Path 13967" d="M19.288,9.66A9.644,9.644,0,1,1,9.672,0,9.66,9.66,0,0,1,19.288,9.66M2.782,8.978c.038-.238.065-.428.1-.617a6.884,6.884,0,1,1,13.26,3.555A6.8,6.8,0,0,1,5.732,15.241,7.133,7.133,0,0,1,3.1,11.661c-.082-.241-.261-.344-.455-.275a.353.353,0,0,0-.2.494A7.668,7.668,0,0,0,10.979,17.1,7.57,7.57,0,0,0,8.988,2.109,7.369,7.369,0,0,0,2.655,6.742,7.087,7.087,0,0,0,2.1,8.975c-.019.006-.028.012-.032.01-.157-.1-.313-.2-.471-.3a.344.344,0,0,0-.508.085.337.337,0,0,0,.125.483c.319.219.644.429.965.646a.389.389,0,0,0,.479-.008c.315-.213.634-.42.946-.635a.344.344,0,1,0-.373-.574c-.139.085-.273.178-.449.293m5.837,1.354c.33,0,.66,0,.99,0a.686.686,0,0,0,.63-.343c.688-1.142,1.378-2.282,2.05-3.432a.839.839,0,0,0,.082-.511.612.612,0,0,0-.554-.525.663.663,0,0,0-.708.344c-.584.97-1.169,1.939-1.745,2.914a.316.316,0,0,1-.322.18c-.48-.011-.961-.007-1.441,0a.688.688,0,1,0,.007,1.376c.337,0,.674,0,1.011,0" transform="translate(0 0.001)" fill="#fff"/>
        </g>
      </g>
    </g>
  </g>
</svg>
