<svg xmlns="http://www.w3.org/2000/svg" xmlns:xlink="http://www.w3.org/1999/xlink" width="44" height="40"  viewBox="0 0 50 46">
  <defs>
    <clipPath id="clip-path">
      <rect id="Rectangle_7260" data-name="Rectangle 7260" width="16.35" height="16.104" transform="translate(0 0)" fill="#fff"/>
    </clipPath>
  </defs>
  <g id="Group_13246" data-name="Group 13246" transform="translate(-140 -2222)">
    <g id="Group_1912" data-name="Group 1912" transform="translate(-492 -253)">
      <circle id="Ellipse_396" data-name="Ellipse 396" cx="17.5" cy="17.5" r="17.5" transform="translate(647 2486)" fill="#2070df" style="mix-blend-mode: multiply;isolation: isolate"/>
      <circle id="Ellipse_395" data-name="Ellipse 395" cx="17.5" cy="17.5" r="17.5" transform="translate(632 2475)" fill="#4cc3ff"/>
      <path id="Path_3101" data-name="Path 3101" d="M66.492,25.2l-5.08-5.084,1.906-1.907,3.239,3.237,6.562-5.964,1.839,2.02-8.466,7.7" transform="translate(596.588 2483.518)" fill="#fff"/>
      <path id="Intersection_2" data-name="Intersection 2" d="M16.229,34.955A17.511,17.511,0,0,1,32.5,11q.642,0,1.271.046A17.51,17.51,0,0,1,17.5,35Q16.859,35,16.229,34.955Z" transform="translate(632 2475)" fill="#4cc3ff" style="mix-blend-mode: multiply;isolation: isolate"/>
      <g id="Group_13247" data-name="Group 13247" transform="translate(641.325 2484.449)">
        <g id="Group_13246-2" data-name="Group 13246" transform="translate(0 -0.001)" clip-path="url(#clip-path)">
          <path id="Path_13985" data-name="Path 13985" d="M16.35,6.1v.256a.856.856,0,0,1-.4.385c-.275.15-.542.315-.816.467a.15.15,0,0,0-.082.164q.009.676,0,1.352a.151.151,0,0,0,.082.164c.274.152.541.317.816.467a.854.854,0,0,1,.4.385V10l-.078.135q-1.121,1.94-2.242,3.88a.479.479,0,0,1-.709.186c-.309-.176-.619-.353-.924-.536a.163.163,0,0,0-.2.008c-.383.229-.769.452-1.16.666a.186.186,0,0,0-.118.193c.006.351,0,.7,0,1.054a.474.474,0,0,1-.515.518q-2.235,0-4.47,0a.474.474,0,0,1-.513-.52c0-.346,0-.692,0-1.038a.207.207,0,0,0-.134-.216c-.383-.207-.759-.426-1.132-.651a.185.185,0,0,0-.225-.005c-.3.178-.6.349-.9.519A.486.486,0,0,1,2.309,14Q1.2,12.08.093,10.159a.482.482,0,0,1,.193-.73c.3-.176.607-.352.913-.524a.174.174,0,0,0,.1-.186c-.01-.446-.009-.892,0-1.337a.161.161,0,0,0-.088-.177c-.3-.168-.6-.344-.9-.517A.491.491,0,0,1,.1,5.928Q1.2,4.022,2.3,2.116a.491.491,0,0,1,.753-.2c.3.171.6.342.9.519a.162.162,0,0,0,.2-.006c.383-.229.769-.452,1.16-.666a.187.187,0,0,0,.118-.194c-.006-.351,0-.7,0-1.054A.474.474,0,0,1,5.94,0q2.235,0,4.47,0a.474.474,0,0,1,.514.518c0,.351,0,.7,0,1.054a.186.186,0,0,0,.119.193q.586.322,1.159.666a.162.162,0,0,0,.2.008c.278-.166.561-.326.841-.488.39-.225.618-.166.841.22L16.35,6.1m-9.081,4a1.254,1.254,0,0,0-.042-.171Q6.467,7.911,5.7,5.891a.573.573,0,0,0-1.089,0Q3.842,7.911,3.076,9.93a.479.479,0,1,0,.9.335c.075-.187.147-.376.214-.566a.143.143,0,0,1,.158-.116q.806.008,1.613,0a.144.144,0,0,1,.161.113c.074.21.151.42.239.625a.469.469,0,0,0,.522.277.5.5,0,0,0,.391-.495M8.817,8.79c.272,0,.531.009.79,0a1.655,1.655,0,0,0,1.563-1.565A1.627,1.627,0,0,0,9.788,5.534,12.171,12.171,0,0,0,8.418,5.5a.493.493,0,0,0-.558.56c0,.394,0,.787,0,1.181q0,1.4,0,2.792a.876.876,0,0,0,.023.22.474.474,0,0,0,.5.353.469.469,0,0,0,.428-.459c.006-.441,0-.881,0-1.355m2.967-.756q0,1.021,0,2.041a.481.481,0,1,0,.957,0q0-2.017,0-4.035a.482.482,0,1,0-.958,0q0,1,0,1.993" transform="translate(-0.001 0)" fill="#fff"/>
          <path id="Path_13986" data-name="Path 13986" d="M108.391,167.73l.552,1.465h-1.108l.556-1.465" transform="translate(-103.235 -160.574)" fill="#fff"/>
          <path id="Path_13987" data-name="Path 13987" d="M206.959,152.717v-1.369a6.431,6.431,0,0,1,.794.006.688.688,0,0,1,.589.7.705.705,0,0,1-.679.656c-.227.01-.455,0-.7,0" transform="translate(-198.13 -144.881)" fill="#fff"/>
        </g>
      </g>
    </g>
  </g>
</svg>
