<svg xmlns="http://www.w3.org/2000/svg" xmlns:xlink="http://www.w3.org/1999/xlink" width="44" height="40" viewBox="0 0 50 46">
  <defs>
    <style>
      .cls-1 {
        fill: #fff;
      }

      .cls-2 {
        fill: #ff8c66;
        mix-blend-mode: multiply;
        isolation: isolate;
      }

      .cls-3 {
        fill: #ffb399;
      }

      .cls-4 {
        clip-path: url(#clip-path);
      }
    </style>
    <clipPath id="clip-path">
      <rect id="Rectangle_2386" data-name="Rectangle 2386" class="cls-1" width="16.489" height="12.359"/>
    </clipPath>
  </defs>
  <g id="Group_4212" data-name="Group 4212" transform="translate(-140 -2222)">
    <g id="Group_1912" data-name="Group 1912" transform="translate(-492 -253)">
      <path id="Ellipse_396" data-name="Ellipse 396" class="cls-2" d="M17.5,0A17.5,17.5,0,1,1,0,17.5,17.5,17.5,0,0,1,17.5,0Z" transform="translate(647 2486)"/>
      <circle id="Ellipse_395" data-name="Ellipse 395" class="cls-3" cx="17.5" cy="17.5" r="17.5" transform="translate(632 2475)"/>
      <g id="Group_3962" data-name="Group 3962" transform="translate(657 2498)">
        <g id="Group_3962-2" data-name="Group 3962" class="cls-4">
          <path id="Path_8889" data-name="Path 8889" class="cls-1" d="M16.585,80.53v7.6a.159.159,0,0,0-.025.04,1.518,1.518,0,0,1-1.586,1.245H1.68A1.517,1.517,0,0,1,.1,87.834q0-3.565,0-7.13c0-.056,0-.112.008-.186l.1.062L6.88,85.03a2.471,2.471,0,0,0,2.918.006q3.306-2.2,6.61-4.406c.057-.038.118-.067.178-.1" transform="translate(-0.096 -77.055)"/>
          <path id="Path_8890" data-name="Path 8890" class="cls-1" d="M16.488,1.768a.223.223,0,0,0-.029.054,1.425,1.425,0,0,1-.627.917Q12.463,4.988,9.091,7.232a1.44,1.44,0,0,1-1.692,0Q4.015,4.988.642,2.728a1.445,1.445,0,0,1-.6-1.564A1.516,1.516,0,0,1,1.265.03,2.549,2.549,0,0,1,1.648,0Q8.231,0,14.814,0a1.528,1.528,0,0,1,1.655,1.26c0,.009.013.017.019.025Z" transform="translate(0.001 0)"/>
        </g>
      </g>
      <path id="Intersection_2" data-name="Intersection 2" class="cls-2" d="M16.229,34.955A17.511,17.511,0,0,1,32.5,11q.642,0,1.271.046A17.51,17.51,0,0,1,17.5,35Q16.859,35,16.229,34.955Z" transform="translate(632 2475)"/>
    </g>
    <g id="Group_3961" data-name="Group 3961" transform="translate(150.56 2230.153)">
      <g id="Group_4213" data-name="Group 4213" transform="translate(-1 2)">
        <path id="Path_8888" data-name="Path 8888" class="cls-1" d="M90.105,78.6a5.7,5.7,0,0,0-5.665-4.36c-2.518-.013-5.036-.006-7.554,0a5.706,5.706,0,0,0-5.813,5.728c-.045,2.989-.011,5.98-.011,8.97v.233l.111.076a1.792,1.792,0,0,1,.188-.274c1.068-1.074,2.144-2.141,3.208-3.22a.666.666,0,0,1,.526-.213q4.68.009,9.36,0a7.91,7.91,0,0,0,.929-.057A5.652,5.652,0,0,0,90.105,78.6m-13.739,1.88a.565.565,0,0,1-.539-.542.537.537,0,0,1,.553-.546.524.524,0,0,1,.535.529.553.553,0,0,1-.549.559M83.421,77.3H81.948a1.156,1.156,0,0,1,.378.727h1.1v.707H82.345a1.623,1.623,0,0,1-.368.838A1.31,1.31,0,0,1,81.3,80v.019a1.546,1.546,0,0,1,.737.388,2.286,2.286,0,0,1,.475.93,14.279,14.279,0,0,1,.4,1.948h-1.57q-.136-.94-.242-1.444a4.078,4.078,0,0,0-.194-.7,1.165,1.165,0,0,0-.2-.325,1.07,1.07,0,0,0-.775-.271H78.576v-.882h.988a1.959,1.959,0,0,0,.969-.208.906.906,0,0,0,.436-.722H78.576v-.707H80.95a.825.825,0,0,0-.412-.557,1.725,1.725,0,0,0-.819-.17H78.576v-.707h4.845Zm1.8,3.185a.574.574,0,0,1-.552-.564.548.548,0,0,1,.55-.524.516.516,0,0,1,.54.521.549.549,0,0,1-.538.567" transform="translate(-71.409 -73.375)"/>
      </g>
    </g>
  </g>
</svg>
