<svg xmlns="http://www.w3.org/2000/svg" xmlns:xlink="http://www.w3.org/1999/xlink" width="44" height="40" viewBox="0 0 50 46">
  <defs>
    <style>
      .cls-1 {
        fill: #fff;
      }

      .cls-2 {
        fill: #ff8c66;
        mix-blend-mode: multiply;
        isolation: isolate;
      }

      .cls-3 {
        fill: #ffb399;
      }

      .cls-4 {
        clip-path: url(#clip-path);
      }

      .cls-5 {
        clip-path: url(#clip-path-2);
      }
    </style>
    <clipPath id="clip-path">
      <rect id="Rectangle_2554" data-name="Rectangle 2554" class="cls-1" width="18.348" height="18.255"/>
    </clipPath>
    <clipPath id="clip-path-2">
      <rect id="Rectangle_2553" data-name="Rectangle 2553" class="cls-1" width="18" height="17.996"/>
    </clipPath>
  </defs>
  <g id="Group_1912" data-name="Group 1912" transform="translate(-632 -2475)">
    <path id="Ellipse_396" data-name="Ellipse 396" class="cls-2" d="M17.5,0A17.5,17.5,0,1,1,0,17.5,17.5,17.5,0,0,1,17.5,0Z" transform="translate(647 2486)"/>
    <circle id="Ellipse_395" data-name="Ellipse 395" class="cls-3" cx="17.5" cy="17.5" r="17.5" transform="translate(632 2475)"/>
    <g id="Group_4204" data-name="Group 4204" transform="translate(939.326 3462.436)">
      <g id="Group_4204-2" data-name="Group 4204" class="cls-4" transform="translate(-284 -968)">
        <path id="Path_9297" data-name="Path 9297" class="cls-1" d="M5.362,2.356c.563-.22,1.085-.42,1.6-.632a.231.231,0,0,0,.1-.176c.011-.273,0-.546.005-.819A.689.689,0,0,1,7.783,0Q9.175,0,10.567,0a.687.687,0,0,1,.711.706c0,.281-.005.562.006.842a.229.229,0,0,0,.1.173c.517.212,1.038.412,1.6.632.184-.192.4-.42.617-.64a.7.7,0,0,1,1.056-.01q.974.961,1.936,1.936A.7.7,0,0,1,16.584,4.7c-.212.218-.426.433-.64.65-.005.005-.007.014.008-.017.214.547.414,1.069.627,1.585a.23.23,0,0,0,.175.1c.288.011.577,0,.866.005a.689.689,0,0,1,.726.715q.005,1.392,0,2.784a.687.687,0,0,1-.707.71c-.288,0-.577-.006-.866.006a.256.256,0,0,0-.2.1c-.214.516-.414,1.038-.634,1.6.193.186.423.4.641.619a.7.7,0,0,1,.009,1.056q-.961.975-1.936,1.936a.7.7,0,0,1-1.056-.016c-.221-.219-.434-.445-.618-.635-.563.22-1.084.42-1.6.632a.231.231,0,0,0-.1.176c-.011.273,0,.546-.005.819a.69.69,0,0,1-.716.725q-1.392,0-2.784,0a.687.687,0,0,1-.709-.708c0-.273.006-.546-.006-.819a.256.256,0,0,0-.1-.2c-.516-.214-1.037-.413-1.6-.632-.182.189-.389.412-.6.625a.7.7,0,0,1-1.09.008q-.955-.948-1.9-1.9a.7.7,0,0,1,0-1.073c.219-.221.446-.434.636-.619-.22-.562-.42-1.083-.632-1.6a.231.231,0,0,0-.176-.1c-.288-.01-.577,0-.866-.005A.689.689,0,0,1,0,10.517Q0,9.125,0,7.733a.687.687,0,0,1,.707-.71c.289,0,.577.006.866-.006a.256.256,0,0,0,.2-.1c.214-.516.413-1.037.633-1.6-.188-.181-.41-.388-.625-.6a.7.7,0,0,1-.009-1.089q.948-.955,1.9-1.9a.7.7,0,0,1,1.073,0c.222.218.434.447.618.637m-1.1,6.769A4.915,4.915,0,1,0,9.17,4.213,4.939,4.939,0,0,0,4.259,9.125" transform="translate(0 0)"/>
      </g>
    </g>
    <path id="Intersection_2" data-name="Intersection 2" class="cls-2" d="M16.229,34.955A17.511,17.511,0,0,1,32.5,11q.642,0,1.271.046A17.51,17.51,0,0,1,17.5,35Q16.859,35,16.229,34.955Z" transform="translate(632 2475)"/>
    <g id="Group_4203" data-name="Group 4203" transform="translate(640.356 2483.358)">
      <g id="Group_4203-2" data-name="Group 4203" class="cls-5">
        <path id="Path_9294" data-name="Path 9294" class="cls-1" d="M.391,314.322A.645.645,0,0,1,0,313.633c.017-.708,0-1.417.005-2.125a.533.533,0,0,1,.561-.58c.041,0,.082,0,.123,0q8.316,0,16.631,0a.634.634,0,0,1,.679.41v2.6a.744.744,0,0,1-.387.387Z" transform="translate(0.001 -296.326)"/>
        <path id="Path_9295" data-name="Path 9295" class="cls-1" d="M34.057,6.174a4.248,4.248,0,0,1,2.878,1.412,4.144,4.144,0,0,1,1.01,2.09c-.41,0-.807-.008-1.2,0a2.359,2.359,0,0,0-.605.079,1.556,1.556,0,0,0-1.1,1.488c-.006.7,0,1.394,0,2.091v.207H29.584a.488.488,0,0,1-.015-.086c0-1.1-.027-2.192.021-3.285A4.194,4.194,0,0,1,32.668,6.33c.261-.074.531-.112.784-.164a3.113,3.113,0,0,1-2.74-3.406,3.093,3.093,0,0,1,6.146-.031,3.116,3.116,0,0,1-2.8,3.445" transform="translate(-28.175 0)"/>
        <path id="Path_9296" data-name="Path 9296" class="cls-1" d="M175.2,135.592v1.2h.935c.258,0,.516,0,.773,0a.526.526,0,0,1,.535.518c.006.744,0,1.488,0,2.231a.516.516,0,0,1-.012.076H168.5c0-.052-.012-.1-.012-.152q0-1.045,0-2.091a.535.535,0,0,1,.593-.583h5.034v-1.2h-.194c-.5,0-1,0-1.494,0a.526.526,0,0,1-.557-.53q-.01-1.124,0-2.249a.526.526,0,0,1,.573-.533c.592,0,1.183,0,1.775,0h2.6c.436,0,.631.2.631.632q0,1.045,0,2.091a.533.533,0,0,1-.584.59H175.2" transform="translate(-160.574 -126.067)"/>
      </g>
    </g>
  </g>
</svg>
