<svg xmlns="http://www.w3.org/2000/svg" xmlns:xlink="http://www.w3.org/1999/xlink" width="35" height="40" viewBox="0 0 50 46.048">
  <defs>
    <style>
      .cls-1, .cls-3 {
        fill: #fff;
      }

      .cls-2 {
        fill: #ff8c66;
        mix-blend-mode: multiply;
        isolation: isolate;
      }

      .cls-3 {
        opacity: 0.8;
      }

      .cls-4 {
        fill: #ffb399;
      }

      .cls-5 {
        clip-path: url(#clip-path);
      }

      .cls-6 {
        clip-path: url(#clip-path-2);
      }
    </style>
    <clipPath id="clip-path">
      <rect id="Rectangle_2550" data-name="Rectangle 2550" class="cls-1" width="16.702" height="16.718"/>
    </clipPath>
    <clipPath id="clip-path-2">
      <rect id="Rectangle_2549" data-name="Rectangle 2549" class="cls-1" width="15" height="14.992"/>
    </clipPath>
  </defs>
  <g id="Group_1912" data-name="Group 1912" transform="translate(-632 -2474.952)">
    <circle id="Ellipse_396" data-name="Ellipse 396" class="cls-2" cx="17.5" cy="17.5" r="17.5" transform="translate(647 2486)"/>
    <path id="Path_2989" data-name="Path 2989" class="cls-3" d="M68.193,11.313H67.08a.875.875,0,0,1,.286.549h.827V12.4H67.38a1.222,1.222,0,0,1-.278.633.99.99,0,0,1-.512.326v.015a1.167,1.167,0,0,1,.556.293,1.723,1.723,0,0,1,.359.7,10.8,10.8,0,0,1,.3,1.471H66.619q-.1-.71-.183-1.091a3.091,3.091,0,0,0-.147-.531.885.885,0,0,0-.154-.245.809.809,0,0,0-.586-.2H64.533V13.1h.746a1.48,1.48,0,0,0,.732-.157.685.685,0,0,0,.329-.545H64.533v-.534h1.793a.622.622,0,0,0-.311-.421,1.3,1.3,0,0,0-.618-.128h-.864v-.534h3.66Z" transform="translate(597.158 2464.171)"/>
    <path id="Ellipse_395" data-name="Ellipse 395" class="cls-4" d="M17.5,0A17.5,17.5,0,1,1,0,17.5,17.5,17.5,0,0,1,17.5,0Z" transform="translate(632 2475)"/>
    <g id="Group_4198" data-name="Group 4198" transform="translate(656 2495.141)">
      <g id="Group_4198-2" data-name="Group 4198" class="cls-5">
        <path id="Path_9281" data-name="Path 9281" class="cls-1" d="M99.036,1.014c-.077.387-.158.774-.23,1.162q-.45,2.417-.9,4.835c-.192,1.035-.387,2.07-.572,3.106a.372.372,0,0,1-.244.317q-2.808,1.237-5.608,2.492a.2.2,0,0,1-.265-.051Q88.7,10.342,86.168,7.82a.208.208,0,0,1-.047-.279Q87.379,4.724,88.627,1.9a.28.28,0,0,1,.23-.188c1.377-.251,2.753-.508,4.13-.762l4.322-.8L98.124,0c-.06.065-.1.1-.132.142q-2.031,2.031-4.06,4.064a.243.243,0,0,1-.268.075,1.5,1.5,0,1,0-.657,2.924,1.51,1.51,0,0,0,1.751-1.862.242.242,0,0,1,.043-.2Q96.883,3.055,98.975.969c.019-.019.041-.035.062-.053Z" transform="translate(-82.334 -0.001)"/>
        <path id="Path_9282" data-name="Path 9282" class="cls-1" d="M7.04,182.251a1.751,1.751,0,0,0-.119-.148q-3.391-3.394-6.785-6.786A1.536,1.536,0,0,0,0,175.206l2.125-2.126,7.058,7.059c-.03.032-.069.076-.11.117q-.928.929-1.857,1.859a1.71,1.71,0,0,0-.111.135Z" transform="translate(0 -165.532)"/>
        <path id="Path_9283" data-name="Path 9283" class="cls-1" d="M240.567,120.917a.5.5,0,0,1-.5-.493.5.5,0,1,1,.5.493" transform="translate(-229.595 -114.682)"/>
      </g>
    </g>
    <path id="Intersection_2" data-name="Intersection 2" class="cls-2" d="M16.229,34.955A17.511,17.511,0,0,1,32.5,11q.642,0,1.271.046A17.51,17.51,0,0,1,17.5,35Q16.859,35,16.229,34.955Z" transform="translate(632 2475)"/>
    <g id="Group_4197" data-name="Group 4197" transform="translate(642 2485.05)">
      <g id="Group_4197-2" data-name="Group 4197" class="cls-6">
        <path id="Path_9279" data-name="Path 9279" class="cls-1" d="M.237,129.723H15.226v.164q0,3.421,0,6.841a2.569,2.569,0,0,1-2.6,2.6q-4.889,0-9.778,0a2.569,2.569,0,0,1-2.606-2.611q0-3.413,0-6.825v-.167m6.538,8.193a.693.693,0,0,0,.675-.455c.1-.251.179-.506.267-.76q.794-2.283,1.589-4.565a.725.725,0,0,0-.089-.734.7.7,0,0,0-1.214.21q-.413,1.177-.822,2.355c-.348,1-.7,2-1.04,3a.694.694,0,0,0,.633.947m-2.731-3.51c.046-.048.084-.089.123-.129.417-.418.839-.832,1.251-1.255a.7.7,0,0,0-.99-.982q-.946.934-1.879,1.88a.666.666,0,0,0-.017.953c.633.649,1.277,1.287,1.923,1.924a.646.646,0,0,0,.679.146.693.693,0,0,0,.272-1.166c-.409-.419-.827-.829-1.241-1.244-.04-.04-.077-.081-.121-.128m7.416.032a.843.843,0,0,0-.161.1c-.42.416-.84.831-1.253,1.253a.7.7,0,0,0,.961,1.009q.973-.951,1.923-1.924a.665.665,0,0,0-.016-.953q-.939-.952-1.891-1.891a.648.648,0,0,0-.569-.187.7.7,0,0,0-.4,1.191c.233.236.468.47.7.7l.7.7" transform="translate(-0.227 -124.334)"/>
        <path id="Path_9280" data-name="Path 9280" class="cls-1" d="M15,3.979H.037C.027,3.968.015,3.96.015,3.952A10.646,10.646,0,0,1,.074,2.014,2.564,2.564,0,0,1,2.553,0q4.952,0,9.9,0A2.573,2.573,0,0,1,15,2.539c0,.476,0,.951,0,1.441M10.542,2.805c.528,0,1.057,0,1.585,0a.968.968,0,0,0,.245-.024.694.694,0,0,0,.513-.753.7.7,0,0,0-.72-.618q-1.616-.006-3.232,0a.687.687,0,0,0-.718.711.683.683,0,0,0,.726.683c.533,0,1.067,0,1.6,0M4.934,1.425a.669.669,0,0,0-.7.685.685.685,0,0,0,.682.695.7.7,0,0,0,.713-.7.678.678,0,0,0-.695-.681M2.827,2.8a.7.7,0,0,0,.7-.7.679.679,0,0,0-.716-.675.673.673,0,0,0-.685.688.692.692,0,0,0,.7.69" transform="translate(0 0)"/>
      </g>
    </g>
  </g>
</svg>
