<svg xmlns="http://www.w3.org/2000/svg" xmlns:xlink="http://www.w3.org/1999/xlink" width="50" height="46.048" viewBox="0 0 50 46.048">
  <defs>
    <style>
      .cls-1, .cls-3 {
        fill: #fff;
      }

      .cls-2 {
        fill: #ff8c66;
        mix-blend-mode: multiply;
        isolation: isolate;
      }

      .cls-3 {
        opacity: 0.8;
      }

      .cls-4 {
        fill: #ffb399;
      }

      .cls-5 {
        clip-path: url(#clip-path);
      }
    </style>
    <clipPath id="clip-path">
      <rect id="Rectangle_2552" data-name="Rectangle 2552" class="cls-1" width="15.001" height="16.988"/>
    </clipPath>
  </defs>
  <g id="Group_1912" data-name="Group 1912" transform="translate(-632 -2474.952)">
    <circle id="Ellipse_396" data-name="Ellipse 396" class="cls-2" cx="17.5" cy="17.5" r="17.5" transform="translate(647 2486)"/>
    <path id="Path_2989" data-name="Path 2989" class="cls-3" d="M68.193,11.313H67.08a.875.875,0,0,1,.286.549h.827V12.4H67.38a1.222,1.222,0,0,1-.278.633.99.99,0,0,1-.512.326v.015a1.167,1.167,0,0,1,.556.293,1.723,1.723,0,0,1,.359.7,10.8,10.8,0,0,1,.3,1.471H66.619q-.1-.71-.183-1.091a3.091,3.091,0,0,0-.147-.531.885.885,0,0,0-.154-.245.809.809,0,0,0-.586-.2H64.533V13.1h.746a1.48,1.48,0,0,0,.732-.157.685.685,0,0,0,.329-.545H64.533v-.534h1.793a.622.622,0,0,0-.311-.421,1.3,1.3,0,0,0-.618-.128h-.864v-.534h3.66Z" transform="translate(597.158 2464.171)"/>
    <circle id="Ellipse_395" data-name="Ellipse 395" class="cls-4" cx="17.5" cy="17.5" r="17.5" transform="translate(632 2475)"/>
    <path id="Path_3101" data-name="Path 3101" class="cls-1" d="M66.492,25.2l-5.08-5.084,1.906-1.907,3.239,3.237,6.562-5.964,1.839,2.02-8.466,7.7" transform="translate(597.166 2483.158)"/>
    <path id="Intersection_2" data-name="Intersection 2" class="cls-2" d="M16.229,34.955A17.511,17.511,0,0,1,32.5,11q.642,0,1.271.046A17.51,17.51,0,0,1,17.5,35Q16.859,35,16.229,34.955Z" transform="translate(632 2475)"/>
    <g id="Group_4202" data-name="Group 4202" transform="translate(642 2483.515)">
      <g id="Group_4201" data-name="Group 4201" class="cls-5">
        <path id="Path_9287" data-name="Path 9287" class="cls-1" d="M123.863,264.263a1.839,1.839,0,0,1-.735-.511c-.627-.616-1.261-1.224-1.893-1.834a1.189,1.189,0,0,0-.138-.1l1.43-1.425.984.947c.247-.241.5-.467.726-.714a.465.465,0,0,0-.034-.659c-.193-.2-.4-.385-.615-.6l.825-.626a9.382,9.382,0,0,1,.659.711,1.451,1.451,0,0,1-.1,1.859c-.229.246-.484.468-.733.707.2.2.38.38.552.562a.989.989,0,0,1-.117,1.475,2.544,2.544,0,0,1-.408.206Z" transform="translate(-115.73 -247.275)"/>
        <path id="Path_9288" data-name="Path 9288" class="cls-1" d="M80.887,67.608a10.706,10.706,0,0,0,2.387-4.985l6.184,6.185A10.637,10.637,0,0,0,84.5,71.218l-3.61-3.61" transform="translate(-77.302 -59.848)"/>
        <path id="Path_9289" data-name="Path 9289" class="cls-1" d="M2.892,192.823l3.516,3.514c-.012.014-.03.04-.053.062-.786.786-1.568,1.575-2.358,2.357a1.486,1.486,0,0,1-2.186-.009c-.145-.144-.289-.289-.434-.434-.3-.3-.6-.6-.9-.9a1.484,1.484,0,0,1,0-2.174q1.17-1.176,2.346-2.346c.027-.027.056-.052.072-.067m-.51,3.486a.571.571,0,0,0,.326.464.467.467,0,0,0,.548-.1c.234-.225.463-.456.691-.689a.494.494,0,1,0-.7-.7c-.229.223-.461.444-.675.681a1.731,1.731,0,0,0-.194.346" transform="translate(0 -184.277)"/>
        <path id="Path_9290" data-name="Path 9290" class="cls-1" d="M140.287,2.961a1.051,1.051,0,0,1,.763.326q.924.929,1.852,1.853,2.351,2.351,4.7,4.7a1,1,0,0,1-1.327,1.491c-.033-.029-.065-.06-.1-.092L139.65,4.71a1,1,0,0,1-.2-1.253.978.978,0,0,1,.838-.5" transform="translate(-133.135 -2.83)"/>
        <path id="Path_9291" data-name="Path 9291" class="cls-1" d="M271.445,24.358a.519.519,0,0,1-.489-.3.457.457,0,0,1,.07-.527q.515-.54,1.055-1.056a.49.49,0,0,1,.665.015.473.473,0,0,1,.052.66c-.349.377-.717.736-1.09,1.09a.726.726,0,0,1-.262.113" transform="translate(-258.897 -21.365)"/>
        <path id="Path_9292" data-name="Path 9292" class="cls-1" d="M226.1.982c0-.171-.005-.342,0-.513a.5.5,0,0,1,.991-.007c.011.353.01.706,0,1.059a.5.5,0,0,1-.992-.01c-.006-.176,0-.353,0-.529" transform="translate(-216.076 0)"/>
        <path id="Path_9293" data-name="Path 9293" class="cls-1" d="M294.514,90.791c-.166,0-.331,0-.5,0a.5.5,0,0,1,.008-.992c.336,0,.673,0,1.009,0a.5.5,0,0,1-.008.992c-.171,0-.342,0-.513,0" transform="translate(-280.523 -85.815)"/>
      </g>
    </g>
  </g>
</svg>
