<svg xmlns="http://www.w3.org/2000/svg" width="44" height="40" viewBox="0 0 50 46">
  <g id="Group_13167" data-name="Group 13167" transform="translate(-1080 -1157)">
    <g id="Group_3539" data-name="Group 3539" transform="translate(940 -1322)">
      <g id="Group_1912" data-name="Group 1912" transform="translate(-492 4)">
        <circle id="Ellipse_395" data-name="Ellipse 395" cx="17.5" cy="17.5" r="17.5" transform="translate(632 2475)" fill="#ffb399"/>
        <circle id="Ellipse_396" data-name="Ellipse 396" cx="17.5" cy="17.5" r="17.5" transform="translate(647 2486)" fill="#f98965" style="mix-blend-mode: multiply;isolation: isolate"/>
        <g id="money-bag-svgrepo-com" transform="translate(653.518 2494.966)">
          <path id="Path_13939" data-name="Path 13939" d="M8.5,5.163,6.482,1.276A5.729,5.729,0,0,0,6.994.661.733.733,0,0,1,8.242.447,1.379,1.379,0,0,0,10.256.408a1.892,1.892,0,0,1,2.341,0A2.543,2.543,0,0,0,15.63.388c.068-.048.146-.121.217-.119.276.007.64-.058.8.09a.838.838,0,0,1,.041.767c-.363.738-.8,1.441-1.165,2.084a4.882,4.882,0,0,1,1.425.9,2.336,2.336,0,0,1,.369,1.527c-.066.77-.884.952-2.643.577.639.74,1.128,1.349,1.661,1.917A9.5,9.5,0,0,1,18.949,14.2a3.212,3.212,0,0,1-2.887,3.7c-1.321.152-2.652.22-3.98.293-1.287.071-2.579.059-3.864.154-3.452.254-4.5-2.171-4.718-4.606-.15-1.663.719-2.965,1.642-4.214C6.205,8.084,7.323,6.682,8.5,5.163Zm6.243-3.156c-1.424.321-2.337-.555-3.417-.981a3.4,3.4,0,0,1-3.115.832c1.343,2.92,1.532,3.033,4.182,2.134A3.9,3.9,0,0,0,14.739,2.007Zm1.37,3.521c-.294-1.055-.294-1.055-1.13-.766Z" transform="translate(0 0)" fill="#fff"/>
        </g>
        <path id="Intersection_2" data-name="Intersection 2" d="M16.229,34.955A17.511,17.511,0,0,1,32.5,11q.642,0,1.271.046A17.51,17.51,0,0,1,17.5,35Q16.859,35,16.229,34.955Z" transform="translate(632 2475)" fill="#ff623d" opacity="0.313" style="mix-blend-mode: multiply;isolation: isolate"/>
      </g>
    </g>
    <g id="ic-shopping-discount" transform="translate(1089 1167)">
      <rect id="Rectangle_219" data-name="Rectangle 219" width="15" height="15" fill="none"/>
      <g id="Layer" transform="translate(0.625 0.625)">
        <g id="Vrstva_227" data-name="Vrstva 227">
          <path id="Path_463" data-name="Path 463" d="M12.875,1h-10A1.875,1.875,0,0,0,1,2.875v10A1.875,1.875,0,0,0,2.875,14.75h10a1.875,1.875,0,0,0,1.875-1.875v-10A1.875,1.875,0,0,0,12.875,1ZM13.5,12.875a.625.625,0,0,1-.625.625h-10a.625.625,0,0,1-.625-.625v-10a.625.625,0,0,1,.625-.625h10a.625.625,0,0,1,.625.625Z" transform="translate(-1 -1)" fill="#fff" fill-rule="evenodd"/>
          <path id="Path_464" data-name="Path 464" d="M13.529,6.021a.625.625,0,0,0-.881,0L5.579,13.1a.625.625,0,1,0,.881.881l7.069-7.069a.625.625,0,0,0,0-.887Z" transform="translate(-2.635 -2.815)" fill="#fff" fill-rule="evenodd"/>
          <path id="Path_465" data-name="Path 465" d="M6.563,8.555A1.563,1.563,0,1,0,5,6.993,1.563,1.563,0,0,0,6.563,8.555Zm0-1.875a.313.313,0,1,1-.312.312A.312.312,0,0,1,6.563,6.68Z" transform="translate(-2.5 -2.661)" fill="#fff" fill-rule="evenodd"/>
          <path id="Path_466" data-name="Path 466" d="M15.562,14.43a1.556,1.556,0,1,0,1.107.456,1.563,1.563,0,0,0-1.107-.456Zm0,1.875a.313.313,0,1,1,.313-.313A.313.313,0,0,1,15.562,16.3Z" transform="translate(-5.875 -6.036)" fill="#fff" fill-rule="evenodd"/>
        </g>
      </g>
    </g>
  </g>
</svg>
