<svg xmlns="http://www.w3.org/2000/svg" xmlns:xlink="http://www.w3.org/1999/xlink" width="44" height="40" viewBox="0 0 50 46">
  <defs>
    <style>
      .cls-1 {
        fill: #fff;
      }

      .cls-2 {
        fill: #fa0;
      }

      .cls-2, .cls-5 {
        mix-blend-mode: multiply;
        isolation: isolate;
      }

      .cls-3, .cls-5 {
        fill: #fc3;
      }

      .cls-4 {
        clip-path: url(#clip-path);
      }

      .cls-5 {
        opacity: 0.5;
      }
    </style>
    <clipPath id="clip-path">
      <rect id="Rectangle_2386" data-name="Rectangle 2386" class="cls-1" width="16.489" height="12.359"/>
    </clipPath>
  </defs>
  <g id="Group_3533" data-name="Group 3533" transform="translate(-422 -2222)">
    <g id="Group_1912" data-name="Group 1912" transform="translate(-210 -253)">
      <circle id="Ellipse_396" data-name="Ellipse 396" class="cls-2" cx="17.5" cy="17.5" r="17.5" transform="translate(647 2486)"/>
      <circle id="Ellipse_395" data-name="Ellipse 395" class="cls-3" cx="17.5" cy="17.5" r="17.5" transform="translate(632 2475)"/>
      <g id="Group_4217" data-name="Group 4217" transform="translate(658 2497)">
        <g id="Group_3962" data-name="Group 3962" class="cls-4">
          <path id="Path_8889" data-name="Path 8889" class="cls-1" d="M16.585,80.53v7.6a.159.159,0,0,0-.025.04,1.518,1.518,0,0,1-1.586,1.245H1.68A1.517,1.517,0,0,1,.1,87.834q0-3.565,0-7.13c0-.056,0-.112.008-.186l.1.062L6.88,85.03a2.471,2.471,0,0,0,2.918.006q3.306-2.2,6.61-4.406c.057-.038.118-.067.178-.1" transform="translate(-0.096 -77.055)"/>
          <path id="Path_8890" data-name="Path 8890" class="cls-1" d="M16.488,1.768a.223.223,0,0,0-.029.054,1.425,1.425,0,0,1-.627.917Q12.463,4.988,9.091,7.232a1.44,1.44,0,0,1-1.692,0Q4.015,4.988.642,2.728a1.445,1.445,0,0,1-.6-1.564A1.516,1.516,0,0,1,1.265.03,2.549,2.549,0,0,1,1.648,0Q8.231,0,14.814,0a1.528,1.528,0,0,1,1.655,1.26c0,.009.013.017.019.025Z" transform="translate(0.001 0)"/>
        </g>
      </g>
      <path id="Intersection_2" data-name="Intersection 2" class="cls-2" d="M16.229,34.955A17.511,17.511,0,0,1,32.5,11q.642,0,1.271.046A17.51,17.51,0,0,1,17.5,35Q16.859,35,16.229,34.955Z" transform="translate(632 2475)"/>
    </g>
    <g id="Group_3532" data-name="Group 3532">
      <rect id="Rectangle_1139" data-name="Rectangle 1139" class="cls-1" width="19.624" height="15.428" rx="1" transform="translate(447 2229.785) rotate(90)"/>
      <rect id="Rectangle_1140" data-name="Rectangle 1140" class="cls-5" width="1.666" height="8.328" transform="translate(443.432 2233.719) rotate(90)"/>
      <rect id="Rectangle_1141" data-name="Rectangle 1141" class="cls-5" width="1.666" height="8.328" transform="translate(443.432 2236.842) rotate(90)"/>
      <rect id="Rectangle_1142" data-name="Rectangle 1142" class="cls-5" width="1.666" height="4.581" transform="translate(439.684 2239.757) rotate(90)"/>
    </g>
  </g>
</svg>
