<svg xmlns="http://www.w3.org/2000/svg" xmlns:xlink="http://www.w3.org/1999/xlink" width="44" height="40" viewBox="0 0 50 46">
  <defs>
    <style>
      .cls-1 {
        fill: #fff;
      }

      .cls-2, .cls-4 {
        fill: #fa0;
      }

      .cls-2 {
        mix-blend-mode: multiply;
        isolation: isolate;
      }

      .cls-3 {
        fill: #fc3;
      }

      .cls-5 {
        clip-path: url(#clip-path);
      }
    </style>
    <clipPath id="clip-path">
      <rect id="Rectangle_2556" data-name="Rectangle 2556" class="cls-1" width="17" height="17" transform="translate(-0.001 -0.004)"/>
    </clipPath>
  </defs>
  <g id="Group_3548" data-name="Group 3548" transform="translate(-924 -2479)">
    <g id="Group_3547" data-name="Group 3547" transform="translate(66)">
      <g id="Group_3542" data-name="Group 3542" transform="translate(718)">
        <g id="Group_1912" data-name="Group 1912" transform="translate(-492 4)">
          <circle id="Ellipse_396" data-name="Ellipse 396" class="cls-2" cx="17.5" cy="17.5" r="17.5" transform="translate(647 2486)"/>
          <circle id="Ellipse_395" data-name="Ellipse 395" class="cls-3" cx="17.5" cy="17.5" r="17.5" transform="translate(632 2475)"/>
          <g id="Group_4220" data-name="Group 4220" transform="translate(-289.695 40.789)">
            <rect id="Rectangle_1139" data-name="Rectangle 1139" class="cls-1" width="18.881" height="14.211" rx="1" transform="translate(945 2456)"/>
            <g id="Group_3544" data-name="Group 3544" transform="translate(947.676 2458.379)">
              <rect id="Rectangle_1140" data-name="Rectangle 1140" class="cls-4" width="1.624" height="8.121" transform="translate(12.181 1.218)"/>
              <rect id="Rectangle_1141" data-name="Rectangle 1141" class="cls-4" width="1.624" height="6.091" transform="translate(9.136 3.248)"/>
              <rect id="Rectangle_1142" data-name="Rectangle 1142" class="cls-4" width="1.624" height="4.466" transform="translate(6.293 4.872)"/>
              <circle id="Ellipse_478" data-name="Ellipse 478" class="cls-4" cx="1.32" cy="1.32" r="1.32" transform="translate(0)"/>
            </g>
          </g>
          <path id="Intersection_2" data-name="Intersection 2" class="cls-2" d="M16.229,34.955A17.511,17.511,0,0,1,32.5,11q.642,0,1.271.046A17.51,17.51,0,0,1,17.5,35Q16.859,35,16.229,34.955Z" transform="translate(632 2475)"/>
        </g>
      </g>
      <g id="Group_4219" data-name="Group 4219" transform="translate(867.001 2488.002)">
        <g id="Group_4207" data-name="Group 4207" class="cls-5">
          <path id="Path_9298" data-name="Path 9298" class="cls-1" d="M7.009,17H6.445c-.014-.009-.026-.023-.041-.026A2.222,2.222,0,0,1,5.175,16.3Q2.928,14.045.672,11.8a2.066,2.066,0,0,1,0-3.054l3.109-3.11C5.369,4.048,6.948,2.459,8.539.883A2.981,2.981,0,0,1,10.693,0C12.208,0,13.723,0,15.238,0a1.725,1.725,0,0,1,1.295.572A2,2,0,0,1,17,1.528V6.64a.3.3,0,0,0-.031.073,3.12,3.12,0,0,1-.912,1.817q-3.922,3.925-7.848,7.846a1.806,1.806,0,0,1-.46.347A7.145,7.145,0,0,1,7.009,17M11.341,3.883a1.767,1.767,0,0,0,3.534.023,1.767,1.767,0,1,0-3.534-.023" transform="translate(0 0)"/>
        </g>
      </g>
    </g>
  </g>
</svg>
