<svg xmlns="http://www.w3.org/2000/svg" xmlns:xlink="http://www.w3.org/1999/xlink" width="44" height="40" viewBox="0 0 50 46">
  <defs>
    <clipPath id="clip-path">
      <rect id="Rectangle_1165" data-name="Rectangle 1165" width="18.654" height="19.394" fill="#fff"/>
    </clipPath>
  </defs>
  <g id="Group_4086" data-name="Group 4086" transform="translate(-140 -2222)">
    <g id="Group_1912" data-name="Group 1912" transform="translate(-492 -253)">
      <circle id="Ellipse_396" data-name="Ellipse 396" cx="17.5" cy="17.5" r="17.5" transform="translate(647 2486)" fill="#fa0" style="mix-blend-mode: multiply;isolation: isolate"/>
      <circle id="Ellipse_395" data-name="Ellipse 395" cx="17.5" cy="17.5" r="17.5" transform="translate(632 2475)" fill="#fc3"/>
      <path id="Path_3101" data-name="Path 3101" d="M66.492,25.2l-5.08-5.084,1.906-1.907,3.239,3.237,6.562-5.964,1.839,2.02-8.466,7.7" transform="translate(596.588 2483.803)" fill="#fff"/>
      <path id="Intersection_2" data-name="Intersection 2" d="M16.229,34.955A17.511,17.511,0,0,1,32.5,11q.642,0,1.271.046A17.51,17.51,0,0,1,17.5,35Q16.859,35,16.229,34.955Z" transform="translate(632 2475)" fill="#fa0" style="mix-blend-mode: multiply;isolation: isolate"/>
      <g id="Group_12704" data-name="Group 12704" transform="translate(-179.086 159.3)">
        <rect id="Rectangle_1167" data-name="Rectangle 1167" width="5.704" height="1.901" transform="translate(813.378 2330.038)" fill="#fff"/>
        <rect id="Rectangle_1168" data-name="Rectangle 1168" width="3.327" height="1.901" transform="translate(815.754 2333.602)" fill="#fff"/>
        <g id="Group_1836" data-name="Group 1836" transform="translate(820.139 2323.502)">
          <g id="Group_1831" data-name="Group 1831" clip-path="url(#clip-path)">
            <path id="Path_3080" data-name="Path 3080" d="M2.4,319.4l-.282-.086A2.032,2.032,0,0,1,.7,317.395c0-.466,0-.931,0-1.41H12.1c0,.166,0,.328,0,.49a7.923,7.923,0,0,1-.043,1.264,1.938,1.938,0,0,1-1.607,1.625.267.267,0,0,0-.063.034Z" transform="translate(-0.66 -300.004)" fill="#fff"/>
            <path id="Path_3081" data-name="Path 3081" d="M.921,90.345H19.529v10.263H.921Zm4.865,7.983,4.79-4.79-.787-.786L5.782,96.76,4.2,95.178l-.784.785,2.366,2.365M17.246,97.2H12.139v1.1h5.107Zm-5.109-1.168h3.388V94.922H12.137Zm.006-2.283h2.243V92.643H12.143Z" transform="translate(-0.874 -85.776)" fill="#fff"/>
            <path id="Path_3082" data-name="Path 3082" d="M0,3.42A13.99,13.99,0,0,1,.127,1.487,1.963,1.963,0,0,1,2.265.013a.275.275,0,0,1,.157.132q.6.993,1.2,1.992a.253.253,0,0,0,.252.148q1.874-.008,3.747,0a.239.239,0,0,0,.238-.136C8.239,1.5,8.636.854,9.015.2A.35.35,0,0,1,9.371,0,2,2,0,0,1,11.41,1.693a7.272,7.272,0,0,1,.033,1.076c0,.213,0,.426,0,.652Z" transform="translate(0 0.001)" fill="#fff"/>
            <path id="Path_3083" data-name="Path 3083" d="M72.531.336h4.143c-.224.373-.434.729-.653,1.079-.022.034-.1.05-.146.05q-1.268,0-2.536,0a.215.215,0,0,1-.16-.061c-.217-.345-.424-.7-.647-1.068" transform="translate(-68.863 -0.319)" fill="#fff"/>
          </g>
        </g>
      </g>
    </g>
  </g>
</svg>
