<svg xmlns="http://www.w3.org/2000/svg" xmlns:xlink="http://www.w3.org/1999/xlink" width="44" height="40"  viewBox="0 0 50 46">
  <defs>
    <clipPath id="clip-path">
      <rect id="Rectangle_1165" data-name="Rectangle 1165" width="16.389" height="17.039" fill="#fff"/>
    </clipPath>
  </defs>
  <g id="Group_13242" data-name="Group 13242" transform="translate(-140 -2222)">
    <g id="Group_1912" data-name="Group 1912" transform="translate(-492 -253)">
      <path id="Ellipse_396" data-name="Ellipse 396" d="M17.5,0A17.5,17.5,0,1,1,0,17.5,17.5,17.5,0,0,1,17.5,0Z" transform="translate(647 2486)" fill="#2070df" style="mix-blend-mode: multiply;isolation: isolate"/>
      <circle id="Ellipse_395" data-name="Ellipse 395" cx="17.5" cy="17.5" r="17.5" transform="translate(632 2475)" fill="#4cc3ff"/>
      <g id="Group_13251" data-name="Group 13251" transform="translate(659.133 2495.98)">
        <g id="Group_1831" data-name="Group 1831" clip-path="url(#clip-path)">
          <path id="Path_3080" data-name="Path 3080" d="M2.193,318.983l-.248-.076A1.785,1.785,0,0,1,.7,317.224c0-.409,0-.818,0-1.239H10.718c0,.146,0,.288,0,.43a6.961,6.961,0,0,1-.038,1.11,1.7,1.7,0,0,1-1.412,1.428.234.234,0,0,0-.056.03Z" transform="translate(-0.664 -301.945)" fill="#fff"/>
          <path id="Path_3081" data-name="Path 3081" d="M.921,90.345H17.269v9.017H.921ZM5.2,97.359,9.4,93.151l-.692-.69-3.52,3.52L3.8,94.591l-.688.69L5.2,97.359m10.069-.989H10.777v.968h4.487Zm-4.488-1.026h2.977v-.977H10.775Zm.005-2.006h1.971v-.974H10.781Z" transform="translate(-0.88 -86.331)" fill="#fff"/>
          <path id="Path_3082" data-name="Path 3082" d="M0,3a12.291,12.291,0,0,1,.112-1.7A1.724,1.724,0,0,1,1.99.011a.241.241,0,0,1,.138.116Q2.658,1,3.179,1.878a.223.223,0,0,0,.221.13q1.646-.007,3.292,0a.21.21,0,0,0,.209-.12C7.238,1.316,7.587.751,7.92.176A.308.308,0,0,1,8.233,0a1.761,1.761,0,0,1,1.792,1.484,6.389,6.389,0,0,1,.029.945c0,.187,0,.374,0,.572Z" transform="translate(0 0.001)" fill="#fff"/>
          <path id="Path_3083" data-name="Path 3083" d="M72.531.336h3.64c-.2.328-.382.64-.574.948-.019.03-.085.044-.129.044q-1.114,0-2.228,0a.189.189,0,0,1-.14-.054c-.191-.3-.372-.612-.568-.939" transform="translate(-69.308 -0.321)" fill="#fff"/>
        </g>
      </g>
      <path id="Intersection_2" data-name="Intersection 2" d="M16.229,34.955A17.511,17.511,0,0,1,32.5,11q.642,0,1.271.046A17.51,17.51,0,0,1,17.5,35Q16.859,35,16.229,34.955Z" transform="translate(632 2475)" fill="#4cc3ff" style="mix-blend-mode: multiply;isolation: isolate"/>
      <path id="Subtraction_1" data-name="Subtraction 1" d="M17,19H2a2,2,0,0,1-2-2V2A2,2,0,0,1,2,0H17a2,2,0,0,1,2,2V17A2,2,0,0,1,17,19Zm-5.82-4.737a2.113,2.113,0,0,0,.355,1.211,2.375,2.375,0,0,0,1.028.823,3.652,3.652,0,0,0,1.494.3,3.073,3.073,0,0,0,1.88-.525,1.718,1.718,0,0,0,.7-1.447,1.865,1.865,0,0,0-.571-1.387,4.457,4.457,0,0,0-1.822-.932,3.939,3.939,0,0,1-1.028-.44.686.686,0,0,1-.349-.581.718.718,0,0,1,.3-.6A1.36,1.36,0,0,1,14,10.46a1.269,1.269,0,0,1,.864.271.964.964,0,0,1,.308.76h1.464a2.051,2.051,0,0,0-.329-1.143,2.166,2.166,0,0,0-.925-.779,3.2,3.2,0,0,0-1.357-.276,3.534,3.534,0,0,0-1.365.254,2.134,2.134,0,0,0-.932.706A1.729,1.729,0,0,0,11.4,11.28a1.98,1.98,0,0,0,1.211,1.763,7.561,7.561,0,0,0,1.206.486A3.862,3.862,0,0,1,14.872,14a.756.756,0,0,1,.293.637.7.7,0,0,1-.293.594,1.376,1.376,0,0,1-.815.212c-.933,0-1.407-.4-1.407-1.177ZM5.452,14.4a2.1,2.1,0,0,0,.63,1.624A2.528,2.528,0,0,0,7.84,16.6a2.657,2.657,0,0,0,1.236-.283,2.043,2.043,0,0,0,.847-.8,2.359,2.359,0,0,0,.3-1.2V9.391H8.758v4.921a1.227,1.227,0,0,1-.248.821.846.846,0,0,1-.67.288.882.882,0,0,1-.693-.249,1.146,1.146,0,0,1-.22-.771Z" transform="translate(640 2483.129)" fill="#fff"/>
    </g>
  </g>
</svg>
