<svg xmlns="http://www.w3.org/2000/svg" xmlns:xlink="http://www.w3.org/1999/xlink" width="44" height="40"  viewBox="0 0 50 46">
  <defs>
    <clipPath id="clip-path">
      <rect id="Rectangle_7264" data-name="Rectangle 7264" width="10.535" height="18.584" fill="#fff"/>
    </clipPath>
    <clipPath id="clip-path-2">
      <rect id="Rectangle_7257" data-name="Rectangle 7257" width="19.014" height="19.014" fill="#fff"/>
    </clipPath>
  </defs>
  <g id="Group_13238" data-name="Group 13238" transform="translate(-150 -2208)">
    <g id="Group_1912" data-name="Group 1912" transform="translate(-482 -267)">
      <circle id="Ellipse_396" data-name="Ellipse 396" cx="17.5" cy="17.5" r="17.5" transform="translate(647 2486)" fill="#2070df" style="mix-blend-mode: multiply;isolation: isolate"/>
      <circle id="Ellipse_395" data-name="Ellipse 395" cx="17.5" cy="17.5" r="17.5" transform="translate(632 2475)" fill="#4cc3ff"/>
      <g id="Group_13255" data-name="Group 13255" transform="translate(659.951 2494.208)">
        <g id="Group_13254" data-name="Group 13254" transform="translate(0 0)" clip-path="url(#clip-path)">
          <path id="Path_13990" data-name="Path 13990" d="M1.163,18.585A1.656,1.656,0,0,1,.416,18.2,1.4,1.4,0,0,1,0,17.172Q0,16.4,0,15.63,0,8.553,0,1.476A1.343,1.343,0,0,1,.77.148,1.53,1.53,0,0,1,1.4.008Q5.264-.006,9.129,0a1.357,1.357,0,0,1,1.4,1.454q0,6.3,0,12.593c0,.962-.02,1.924.007,2.886a1.464,1.464,0,0,1-1.168,1.649ZM9.508,2.3H1.029V14.28H9.508ZM5.246,1.479H7.059c.224,0,.308-.09.31-.323s-.079-.328-.3-.328c-1.2,0-2.407,0-3.609,0-.237,0-.3.116-.3.33-.006.233.085.325.306.326H5.246m.025,15.766a.858.858,0,1,0-.871-.857.867.867,0,0,0,.871.857" transform="translate(0 0)" fill="#fff"/>
        </g>
      </g>
      <path id="Intersection_2" data-name="Intersection 2" d="M16.229,34.955A17.511,17.511,0,0,1,32.5,11q.642,0,1.271.046A17.51,17.51,0,0,1,17.5,35Q16.859,35,16.229,34.955Z" transform="translate(632 2475)" fill="#4cc3ff" style="mix-blend-mode: multiply;isolation: isolate"/>
      <g id="Group_13239" data-name="Group 13239" transform="translate(639.993 2482.993)">
        <g id="Group_13239-2" data-name="Group 13239" clip-path="url(#clip-path-2)">
          <path id="Path_13972" data-name="Path 13972" d="M7.836,0h3.342a.675.675,0,0,1,.414.728c-.019.356,0,.715,0,1.005.629.279,1.214.541,1.8.794a.208.208,0,0,0,.182-.039c.251-.238.493-.487.739-.731a.567.567,0,0,1,.894,0q1.026,1.022,2.048,2.048a.568.568,0,0,1,0,.894c-.244.247-.487.493-.736.734a.153.153,0,0,0-.034.206c.236.549.467,1.1.687,1.657a.163.163,0,0,0,.184.127c.309-.005.62.013.928-.006a.672.672,0,0,1,.728.414v3.342a.673.673,0,0,1-.728.414c-.308-.019-.619,0-.928-.006a.163.163,0,0,0-.185.127c-.22.556-.451,1.108-.687,1.657a.153.153,0,0,0,.033.207q.386.375.762.761a.551.551,0,0,1,.01.827q-1.057,1.069-2.126,2.127a.553.553,0,0,1-.827-.007c-.178-.172-.351-.35-.526-.524-.322-.322-.316-.308-.72-.126-.488.22-.988.412-1.505.626,0,.364,0,.759,0,1.155a.558.558,0,0,1-.6.6q-1.476,0-2.952,0a.559.559,0,0,1-.6-.6c0-.346-.006-.693,0-1.039a.186.186,0,0,0-.147-.209q-.817-.322-1.622-.673a.175.175,0,0,0-.237.042c-.237.245-.479.484-.721.723a.564.564,0,0,1-.88.007Q2.783,16.23,1.748,15.19a.561.561,0,0,1,0-.866c.243-.247.487-.493.736-.734a.174.174,0,0,0,.039-.237q-.351-.805-.673-1.623a.184.184,0,0,0-.209-.146c-.34.008-.681,0-1.021,0A.561.561,0,0,1,0,10.981Q0,9.505,0,8.03a.558.558,0,0,1,.6-.6c.346,0,.693-.006,1.039,0,.119,0,.163-.037.207-.148q.322-.817.674-1.622a.175.175,0,0,0-.042-.237C2.235,5.185,2,4.943,1.757,4.7a.563.563,0,0,1-.006-.88Q2.778,2.789,3.811,1.76a.567.567,0,0,1,.893,0c.246.244.493.487.734.736a.154.154,0,0,0,.207.034c.549-.236,1.1-.467,1.657-.687a.163.163,0,0,0,.127-.185c-.005-.309.013-.62-.006-.928A.673.673,0,0,1,7.836,0M4.086,9.5A5.422,5.422,0,1,0,9.512,4.085,5.432,5.432,0,0,0,4.086,9.5" transform="translate(0)" fill="#fff"/>
          <path id="Path_13973" data-name="Path 13973" d="M113.427,109.114a4.308,4.308,0,1,1-4.3-4.316,4.315,4.315,0,0,1,4.3,4.316m-5.281.96c.075-.085.116-.13.156-.177a.56.56,0,0,0-.036-.8.555.555,0,0,0-.8.06q-.5.538-.984,1.085a.54.54,0,0,0-.017.758q.5.572,1.021,1.127a.555.555,0,0,0,.829-.738c-.047-.06-.1-.117-.167-.2h.242c.971,0,1.941,0,2.912,0a.558.558,0,1,0,.011-1.114c-.977,0-1.954,0-2.931,0h-.24m1.947-1.937c-.084.1-.141.155-.189.219a.555.555,0,0,0,.068.755.537.537,0,0,0,.755-.018q.543-.571,1.059-1.168a.518.518,0,0,0,0-.7q-.512-.587-1.046-1.155a.548.548,0,0,0-.77-.022.556.556,0,0,0-.046.77c.047.06.1.117.17.2h-.242c-.971,0-1.942,0-2.913,0a.558.558,0,1,0-.014,1.114c.977,0,1.954,0,2.931,0h.24" transform="translate(-99.612 -99.599)" fill="#fff"/>
        </g>
      </g>
    </g>
  </g>
</svg>
