<svg xmlns="http://www.w3.org/2000/svg" xmlns:xlink="http://www.w3.org/1999/xlink" width="44" height="40"  viewBox="0 0 50 46">
  <defs>
    <clipPath id="clip-path">
      <rect id="Rectangle_7252" data-name="Rectangle 7252" width="17" height="17.005" fill="#fff"/>
    </clipPath>
  </defs>
  <g id="Group_13227" data-name="Group 13227" transform="translate(-140 -2222)">
    <g id="Group_1912" data-name="Group 1912" transform="translate(-492 -253)">
      <circle id="Ellipse_396" data-name="Ellipse 396" cx="17.5" cy="17.5" r="17.5" transform="translate(647 2486)" fill="#2070df" style="mix-blend-mode: multiply;isolation: isolate"/>
      <circle id="Ellipse_395" data-name="Ellipse 395" cx="17.5" cy="17.5" r="17.5" transform="translate(632 2475)" fill="#4cc3ff"/>
      <path id="Path_3101" data-name="Path 3101" d="M66.492,25.2l-5.08-5.084,1.906-1.907,3.239,3.237,6.562-5.964,1.839,2.02-8.466,7.7" transform="translate(596.588 2483.803)" fill="#fff"/>
      <path id="Intersection_2" data-name="Intersection 2" d="M16.229,34.955A17.511,17.511,0,0,1,32.5,11q.642,0,1.271.046A17.51,17.51,0,0,1,17.5,35Q16.859,35,16.229,34.955Z" transform="translate(632 2475)" fill="#4cc3ff" style="mix-blend-mode: multiply;isolation: isolate"/>
      <g id="Group_13228" data-name="Group 13228" transform="translate(641 2483.998)">
        <g id="Group_13228-2" data-name="Group 13228" clip-path="url(#clip-path)">
          <path id="Path_13957" data-name="Path 13957" d="M63.827,69.008q0-1.644,0-3.287a1.7,1.7,0,0,1,1.8-1.813h6.594a1.7,1.7,0,0,1,1.8,1.812q0,3.287,0,6.574A1.7,1.7,0,0,1,72.2,74.108H65.65a1.7,1.7,0,0,1-1.823-1.833q0-1.634,0-3.267" transform="translate(-60.429 -60.506)" fill="#fff"/>
          <path id="Path_13958" data-name="Path 13958" d="M194.289,198.417c-.6,0-1.208.008-1.812,0a.823.823,0,0,1-.8-.723.835.835,0,0,1,.6-.931,1.374,1.374,0,0,1,.355-.033c1.049,0,2.1,0,3.147,0a.877.877,0,0,0,.986-.979c0-1.089-.005-2.177,0-3.266a.838.838,0,0,1,1.147-.8.775.775,0,0,1,.537.744c.007,1.221.026,2.444-.009,3.664a2.5,2.5,0,0,1-2.326,2.318c-.61.026-1.221,0-1.832,0v.005" transform="translate(-181.468 -181.421)" fill="#fff"/>
          <path id="Path_13959" data-name="Path 13959" d="M198.462,4.167c0,.6.007,1.208,0,1.812a.827.827,0,0,1-.711.811.835.835,0,0,1-.939-.592,1.3,1.3,0,0,1-.037-.354c0-1.056,0-2.111,0-3.167a.876.876,0,0,0-.987-.978c-1.082,0-2.164,0-3.246,0a.83.83,0,0,1-.865-.845.824.824,0,0,1,.806-.842c.491-.012.982,0,1.474,0,.617,0,1.235.019,1.852,0a2.568,2.568,0,0,1,2.663,2.672c-.021.5,0,1,0,1.494Z" transform="translate(-181.469 0)" fill="#fff"/>
          <path id="Path_13960" data-name="Path 13960" d="M.008,194.373c0-.6-.007-1.208,0-1.812a.825.825,0,0,1,.716-.806.834.834,0,0,1,.936.6,1.328,1.328,0,0,1,.036.354c0,1.055,0,2.111,0,3.167a.874.874,0,0,0,.971.974c1.089,0,2.178,0,3.266,0a.838.838,0,0,1,.809,1.141.771.771,0,0,1-.739.543c-1.228.009-2.457.028-3.684-.01a2.5,2.5,0,0,1-2.3-2.318c-.026-.61,0-1.221,0-1.832H.008" transform="translate(-0.005 -181.541)" fill="#fff"/>
          <path id="Path_13961" data-name="Path 13961" d="M0,4.2c0-.518,0-1.036,0-1.553A2.527,2.527,0,0,1,2.583.061q1.693-.008,3.386,0A.823.823,0,0,1,6.786.79a.837.837,0,0,1-.607.93,1.385,1.385,0,0,1-.355.032c-1.049,0-2.1,0-3.147,0a.875.875,0,0,0-.983.981c0,1.089.006,2.178,0,3.266A.842.842,0,0,1,.54,6.8.832.832,0,0,1,0,6.011C0,5.407,0,4.8,0,4.2Z" transform="translate(0 -0.055)" fill="#fff"/>
        </g>
      </g>
    </g>
  </g>
</svg>
