<svg xmlns="http://www.w3.org/2000/svg" xmlns:xlink="http://www.w3.org/1999/xlink" width="44" height="40"  viewBox="0 0 50 46">
  <defs>
    <clipPath id="clip-path">
      <rect id="Rectangle_7259" data-name="Rectangle 7259" width="17.062" height="14.971" fill="#fff"/>
    </clipPath>
    <clipPath id="clip-path-2">
      <rect id="Rectangle_7251" data-name="Rectangle 7251" width="16" height="16.003" fill="#fff"/>
    </clipPath>
  </defs>
  <g id="Group_13243" data-name="Group 13243" transform="translate(-140 -2222)">
    <g id="Group_1912" data-name="Group 1912" transform="translate(-492 -253)">
      <circle id="Ellipse_396" data-name="Ellipse 396" cx="17.5" cy="17.5" r="17.5" transform="translate(647 2486)" fill="#2070df" style="mix-blend-mode: multiply;isolation: isolate"/>
      <circle id="Ellipse_395" data-name="Ellipse 395" cx="17.5" cy="17.5" r="17.5" transform="translate(632 2475)" fill="#4cc3ff"/>
      <g id="Group_13245" data-name="Group 13245" transform="translate(658 2497.015)">
        <g id="Group_13244" data-name="Group 13244" clip-path="url(#clip-path)">
          <path id="Path_13979" data-name="Path 13979" d="M166.68,4.866a4.156,4.156,0,0,1-.283.362c-.328.339-.667.668-1,1a1.117,1.117,0,0,0-.305,1.01c.023.155.02.314.031.493L161.688,4.3l-.17.157a1.786,1.786,0,0,1-1.962.358,4.3,4.3,0,0,1-.672-.361,1.484,1.484,0,0,0-1.711.128,2.026,2.026,0,0,1-.756.47,1.48,1.48,0,0,1-1.475-.375.479.479,0,0,1,0-.713c.262-.272.532-.536.8-.8.433-.43.863-.865,1.3-1.286A1.44,1.44,0,0,1,158.09,1.5c.539,0,1.077-.005,1.616,0a1.169,1.169,0,0,0,.908-.375c.3-.309.6-.606.906-.908a.514.514,0,0,1,.835-.005q2.056,2.055,4.109,4.113a2.158,2.158,0,0,1,.217.309Z" transform="translate(-149.618 0.001)" fill="#fff"/>
          <path id="Path_13980" data-name="Path 13980" d="M6.405,2.95c-.6.6-1.17,1.152-1.717,1.726a1.873,1.873,0,0,0-.414.631,1.488,1.488,0,0,0,.563,1.751,2.493,2.493,0,0,0,3.226-.12c.322-.29.545-.3.843-.03a2.487,2.487,0,0,0,3.032.309l.055-.028c.029.025.065.05.095.08q1.45,1.448,2.9,2.9a.75.75,0,1,1-1.021,1.1c-.375-.363-.74-.737-1.109-1.105-.035-.035-.07-.072-.107-.105a.5.5,0,0,0-.717,0,.49.49,0,0,0,.011.7c.356.366.726.719,1.079,1.088a1.512,1.512,0,0,1,.325.452.714.714,0,0,1-.306.854.735.735,0,0,1-.92-.1c-.384-.37-.756-.751-1.133-1.128-.039-.039-.077-.08-.119-.116a.5.5,0,0,0-.692,0,.487.487,0,0,0-.009.7c.358.372.727.733,1.092,1.1.063.063.127.125.184.193a.744.744,0,0,1-1.051,1.047c-.235-.211-.455-.44-.676-.666A1.766,1.766,0,0,0,8.6,13.6c-.043,0-.119-.057-.121-.091A1.728,1.728,0,0,0,7.23,11.9a1.752,1.752,0,0,0-2.356-2.35,1.686,1.686,0,0,0-1.357-1.22,1.773,1.773,0,0,0-1.727.652c-.055-.157-.1-.289-.146-.422A2.685,2.685,0,0,0,.962,7.45C.706,7.2.454,6.937.2,6.678a.509.509,0,0,1,0-.812Q2.267,3.8,4.335,1.732a.511.511,0,0,1,.813,0c.413.4.828.8,1.258,1.221" transform="translate(0 -1.478)" fill="#fff"/>
          <path id="Path_13981" data-name="Path 13981" d="M95.185,269.03a.717.717,0,0,1-.671-.435.684.684,0,0,1,.11-.79c.289-.314.6-.61.9-.912s.608-.615.92-.914a.7.7,0,0,1,.785-.155.711.711,0,0,1,.472.629.662.662,0,0,1-.18.551q-.912.923-1.833,1.835a.673.673,0,0,1-.5.191" transform="translate(-91.283 -256.893)" fill="#fff"/>
          <path id="Path_13982" data-name="Path 13982" d="M42.3,236.566a.772.772,0,0,1-.765-.434.668.668,0,0,1,.093-.777c.377-.405.768-.8,1.174-1.176a.741.741,0,0,1,1.042,1.043c-.373.4-.763.788-1.165,1.161a1.215,1.215,0,0,1-.379.183" transform="translate(-40.071 -226.191)" fill="#fff"/>
          <path id="Path_13983" data-name="Path 13983" d="M148.176,342.472a.771.771,0,0,1-.769-.432.675.675,0,0,1,.1-.792q.558-.595,1.153-1.154a.741.741,0,0,1,1.045,1.043q-.556.6-1.156,1.151a1.228,1.228,0,0,1-.377.184" transform="translate(-142.407 -328.564)" fill="#fff"/>
          <path id="Path_13984" data-name="Path 13984" d="M222.285,394.779a.782.782,0,0,1-.764-.435.687.687,0,0,1,.092-.778,3.909,3.909,0,0,1,.468-.471.743.743,0,0,1,1.045,1.046,3.2,3.2,0,0,1-.473.465,1.566,1.566,0,0,1-.367.174" transform="translate(-214.048 -379.808)" fill="#fff"/>
        </g>
      </g>
      <path id="Intersection_2" data-name="Intersection 2" d="M16.229,34.955A17.511,17.511,0,0,1,32.5,11q.642,0,1.271.046A17.51,17.51,0,0,1,17.5,35Q16.859,35,16.229,34.955Z" transform="translate(632 2475)" fill="#4cc3ff" style="mix-blend-mode: multiply;isolation: isolate"/>
      <g id="Group_13226" data-name="Group 13226" transform="translate(642 2484.499)">
        <g id="Group_13225" data-name="Group 13225" clip-path="url(#clip-path-2)">
          <path id="Path_13955" data-name="Path 13955" d="M64.176,14.054c-.614.526-1.229,1.029-1.818,1.563-.542.492-.884.516-1.452,0-.587-.535-1.2-1.038-1.816-1.562l-.509.433c-.5.428-1,.855-1.5,1.286a.739.739,0,0,1-1.268-.582q0-6.1,0-12.2A2.86,2.86,0,0,0,54.006.23c-.031-.013-.061-.029-.1-.048A.741.741,0,0,1,54.444,0h2.691q3.671,0,7.342,0a2.867,2.867,0,0,1,2.447,1.246,2.811,2.811,0,0,1,.527,1.678q0,6.142,0,12.284a.736.736,0,0,1-1.256.573q-.954-.824-1.914-1.641c-.03-.026-.061-.05-.106-.087M61.64,10.184c.71,0,1.42,0,2.13,0a.729.729,0,1,0,0-1.455q-2.138-.005-4.276,0a.729.729,0,1,0,.012,1.456q1.065,0,2.13,0m-.006-2.906h.579c.528,0,1.056.006,1.584,0a.728.728,0,1,0-.018-1.454c-.307,0-.613,0-.92,0q-1.687,0-3.373,0a.728.728,0,1,0,0,1.455c.715.006,1.431,0,2.147,0m-.018-2.916h0c.732,0,1.465,0,2.2,0a.722.722,0,1,0,0-1.444q-2.18-.007-4.361,0a.822.822,0,0,0-.371.1.718.718,0,0,0,.337,1.339c.732.007,1.465,0,2.2,0" transform="translate(-51.452 0)" fill="#fff"/>
          <path id="Path_13956" data-name="Path 13956" d="M2.915,36.15H1.543c-.256,0-.511,0-.767,0A.726.726,0,0,1,0,35.369c0-.415,0-.829,0-1.244q0-1.968,0-3.936a1.46,1.46,0,1,1,2.919.01q0,2.862-.006,5.725c0,.067,0,.134,0,.226" transform="translate(0 -27.424)" fill="#fff"/>
        </g>
      </g>
    </g>
  </g>
</svg>
