<svg xmlns="http://www.w3.org/2000/svg" xmlns:xlink="http://www.w3.org/1999/xlink" width="44" height="40"  viewBox="0 0 50 46">
  <defs>
    <clipPath id="clip-path">
      <rect id="Rectangle_7245" data-name="Rectangle 7245" width="11.446" height="21.965" fill="#fff"/>
    </clipPath>
    <clipPath id="clip-path-2">
      <rect id="Rectangle_7250" data-name="Rectangle 7250" width="18.027" height="17.824" fill="#fff"/>
    </clipPath>
  </defs>
  <g id="Group_13218" data-name="Group 13218" transform="translate(-140 -2479)">
    <g id="Group_1912" data-name="Group 1912" transform="translate(-492 4)">
      <circle id="Ellipse_396" data-name="Ellipse 396" cx="17.5" cy="17.5" r="17.5" transform="translate(647 2486)" fill="#2070df" style="mix-blend-mode: multiply;isolation: isolate"/>
      <circle id="Ellipse_395" data-name="Ellipse 395" cx="17.5" cy="17.5" r="17.5" transform="translate(632 2475)" fill="#4cc3ff"/>
      <g id="Group_13223" data-name="Group 13223" transform="translate(659.032 2493.498)">
        <g id="Group_13204" data-name="Group 13204" clip-path="url(#clip-path)">
          <path id="Path_13946" data-name="Path 13946" d="M9.08.309c-.045.179-.069.292-.1.4q-1,3.388-2,6.775a1.338,1.338,0,0,0,.6,1.657q1.754,1.162,3.509,2.321c.43.284.465.544.135.938L3.449,21.652c-.021.025-.041.052-.064.076-.11.115-.2.31-.4.208A.411.411,0,0,1,2.8,21.42q.291-1.235.583-2.469Q3.94,16.615,4.5,14.28a1.377,1.377,0,0,0-.654-1.6q-1.75-1.146-3.5-2.294c-.418-.274-.455-.544-.123-.917Q4.357,4.809,8.5.156c.076-.085.251-.183.32-.15.119.058.19.213.262.3" transform="translate(0 0.001)" fill="#fff"/>
        </g>
      </g>
      <path id="Intersection_2" data-name="Intersection 2" d="M16.229,34.955A17.511,17.511,0,0,1,32.5,11q.642,0,1.271.046A17.51,17.51,0,0,1,17.5,35Q16.859,35,16.229,34.955Z" transform="translate(632 2475)" fill="#4cc3ff" style="mix-blend-mode: multiply;isolation: isolate"/>
      <g id="Group_13222" data-name="Group 13222" transform="translate(640.484 2484.586)">
        <g id="Group_13222-2" data-name="Group 13222" clip-path="url(#clip-path-2)">
          <path id="Path_13954" data-name="Path 13954" d="M2.715,4.924a3.2,3.2,0,0,1-.275.329A1.438,1.438,0,1,1,.446,3.181Q1.8,1.815,3.169.458a1.437,1.437,0,0,1,2.1,0Q6.664,1.839,8.047,3.234a1.37,1.37,0,0,1-.044,2,1.371,1.371,0,0,1-2.012.022c-.1-.1-.188-.2-.309-.324a1.716,1.716,0,0,0-.021.174c0,.6,0,1.206,0,1.809a.948.948,0,0,0,.977.988A3.766,3.766,0,0,1,8.9,8.663a.163.163,0,0,0,.234-.006,3.8,3.8,0,0,1,2.247-.748.948.948,0,0,0,.977-.986c0-.6,0-1.206,0-1.809,0-.043,0-.086-.009-.186-.137.143-.24.256-.348.362a1.371,1.371,0,0,1-1.983-.043,1.369,1.369,0,0,1-.051-2Q11.36,1.85,12.76.459a1.429,1.429,0,0,1,2.1,0c.9.89,1.785,1.791,2.684,2.68a1.453,1.453,0,0,1-.357,2.4A1.43,1.43,0,0,1,15.6,5.278c-.112-.1-.21-.222-.314-.334l-.047.024c0,.068,0,.136,0,.2-.012.764.022,1.533-.047,2.292a3.8,3.8,0,0,1-3.26,3.28c-.167.019-.335.033-.5.038a.956.956,0,0,0-.973.993c0,1.53,0,3.06,0,4.59a1.437,1.437,0,1,1-2.873.006c-.005-1.491,0-2.982,0-4.474a.978.978,0,0,0-1.085-1.117,3.846,3.846,0,0,1-3.7-3.736c-.01-.629,0-1.258,0-1.887q0-.094,0-.189l-.074-.047" transform="translate(0 0)" fill="#fff"/>
        </g>
      </g>
    </g>
  </g>
</svg>
