<svg xmlns="http://www.w3.org/2000/svg" xmlns:xlink="http://www.w3.org/1999/xlink" width="44" height="40"  viewBox="0 0 50 46">
  <defs>
    <clipPath id="clip-path">
      <rect id="Rectangle_7256" data-name="Rectangle 7256" width="21.486" height="19.992" fill="#fff"/>
    </clipPath>
  </defs>
  <g id="Group_13236" data-name="Group 13236" transform="translate(-140 -2222)">
    <g id="Group_1912" data-name="Group 1912" transform="translate(-492 -253)">
      <circle id="Ellipse_396" data-name="Ellipse 396" cx="17.5" cy="17.5" r="17.5" transform="translate(647 2486)" fill="#2070df" style="mix-blend-mode: multiply;isolation: isolate"/>
      <circle id="Ellipse_395" data-name="Ellipse 395" cx="17.5" cy="17.5" r="17.5" transform="translate(632 2475)" fill="#4cc3ff"/>
      <path id="Path_3101" data-name="Path 3101" d="M66.492,25.2l-5.08-5.084,1.906-1.907,3.239,3.237,6.562-5.964,1.839,2.02-8.466,7.7" transform="translate(596.588 2483.435)" fill="#fff"/>
      <path id="Intersection_2" data-name="Intersection 2" d="M16.229,34.955A17.511,17.511,0,0,1,32.5,11q.642,0,1.271.046A17.51,17.51,0,0,1,17.5,35Q16.859,35,16.229,34.955Z" transform="translate(632 2475)" fill="#4cc3ff" style="mix-blend-mode: multiply;isolation: isolate"/>
      <g id="Group_13237" data-name="Group 13237" transform="translate(638.762 2482.785)">
        <g id="Group_13237-2" data-name="Group 13237" clip-path="url(#clip-path)">
          <path id="Path_13969" data-name="Path 13969" d="M31.842,8.461c-.814,1.363-1.62,2.738-2.455,4.1a1.858,1.858,0,0,0-.242,1.624,2.052,2.052,0,0,1-1.65,2.672,2.144,2.144,0,1,1-.7-4.229,1.03,1.03,0,0,0,.859-.569c.432-.768.878-1.529,1.357-2.269a.749.749,0,0,0-.09-1.092A5.12,5.12,0,0,1,31.093.273,4.862,4.862,0,0,1,36.339,1.6a4.832,4.832,0,0,1,1.194,4.956l-1.719-.446a3.267,3.267,0,0,0-.855-3.182A4.176,4.176,0,0,0,33.151,2a3.1,3.1,0,0,0-3.486,1.892c-.712,1.659-.225,2.693,2.176,4.573" transform="translate(-21.88 -0.001)" fill="#fff"/>
          <path id="Path_13970" data-name="Path 13970" d="M3.928,79.474l.461,1.678c-2.42,1.714-2.944,2.752-2.268,4.461a3.214,3.214,0,0,0,3.316,2.04c1.966-.249,2.63-1.14,2.973-4.074,1.169,0,2.351,0,3.533,0,.431,0,.862.023,1.292.022a2.057,2.057,0,0,0,1.537-.644,2.029,2.029,0,0,1,3,.082,2.164,2.164,0,0,1-.113,3.043,2.071,2.071,0,0,1-3.019-.113,1.545,1.545,0,0,0-1.463-.622c-.758.031-1.52.038-2.277,0a.717.717,0,0,0-.858.607,5.13,5.13,0,0,1-6.915,3.232A5.193,5.193,0,0,1,.014,83.949a5.142,5.142,0,0,1,3.914-4.475" transform="translate(0 -69.686)" fill="#fff"/>
          <path id="Path_13971" data-name="Path 13971" d="M74.2,40.607a1.061,1.061,0,0,0,.2-.134,1.684,1.684,0,0,1,2.386-.481,2.607,2.607,0,0,0,3.231-.522,3.1,3.1,0,0,0,.9-3.423,3.017,3.017,0,0,0-2.629-2.2,4.5,4.5,0,0,0-2.856.929c-.76-1.355-1.527-2.684-2.254-4.034A2.2,2.2,0,0,0,71.69,29.5a2.009,2.009,0,0,1-1.454-2.525A2.12,2.12,0,0,1,72.88,25.4a2.06,2.06,0,0,1,1.484,2.63,1.621,1.621,0,0,0,.192,1.588,21.07,21.07,0,0,1,1.21,2.14c.21.437.478.382.838.311a5.069,5.069,0,0,1,5.4,1.944,5.158,5.158,0,0,1-.794,6.947,5.09,5.09,0,0,1-7.009-.357" transform="translate(-61.518 -22.202)" fill="#fff"/>
        </g>
      </g>
    </g>
  </g>
</svg>
