<svg xmlns="http://www.w3.org/2000/svg" xmlns:xlink="http://www.w3.org/1999/xlink" width="63" height="51" viewBox="0 0 63 51">
  <defs>
    <style>
      .cls-1, .cls-2 {
        fill: #fff;
      }

      .cls-2 {
        opacity: 0.8;
      }

      .cls-3, .cls-4 {
        fill: #4cc3ff;
      }

      .cls-4 {
        mix-blend-mode: multiply;
        isolation: isolate;
      }

      .cls-5 {
        fill: #1a59b2;
      }

      .cls-6 {
        clip-path: url(#clip-path);
      }
    </style>
    <clipPath id="clip-path">
      <rect id="Rectangle_2397" data-name="Rectangle 2397" class="cls-1" width="17.987" height="22.126"/>
    </clipPath>
  </defs>
  <g id="Salary_credits" data-name="Salary credits" transform="translate(-1182 -4716)">
    <g id="Group_1912" data-name="Group 1912" transform="translate(550 2244.04)">
      <path id="Path_2989" data-name="Path 2989" class="cls-2" d="M69.338,12.907H68.271a1.6,1.6,0,0,1-.365.831,1.3,1.3,0,0,1-.672.428v.02a1.532,1.532,0,0,1,.73.385,2.262,2.262,0,0,1,.471.919,14.18,14.18,0,0,1,.394,1.931H67.272q-.131-.932-.24-1.432a4.059,4.059,0,0,0-.193-.7,1.162,1.162,0,0,0-.2-.322,1.062,1.062,0,0,0-.769-.263H64.533v-.881h.979a1.943,1.943,0,0,0,.961-.206.9.9,0,0,0,.432-.716H64.533v-.7h2.354a.817.817,0,0,0-.408-.553,1.707,1.707,0,0,0-.811-.168H64.533v-.7h4.805Z" transform="translate(606.45 2465.721)"/>
      <circle id="Ellipse_395" data-name="Ellipse 395" class="cls-3" cx="23" cy="23" r="23" transform="translate(632 2476.96)"/>
      <path id="Intersection_2" data-name="Intersection 2" class="cls-4" d="M16.614,42.452A22.991,22.991,0,0,1,37.977,11q.843,0,1.669.06a22.99,22.99,0,0,1-21.363,31.45Q17.441,42.511,16.614,42.452Z" transform="translate(636.694 2480.007)"/>
    </g>
    <rect id="Rectangle_1243" data-name="Rectangle 1243" class="cls-5" width="30" height="30" rx="15" transform="translate(1215 4716)"/>
    <path id="Path_3101" data-name="Path 3101" class="cls-3" d="M68.18,28.428l-6.768-6.773,2.539-2.541,4.315,4.312,8.742-7.945,2.45,2.691L68.18,28.431" transform="translate(1159.564 4709.043)"/>
    <g id="Group_3978" data-name="Group 3978" transform="translate(1195.513 4733.252)">
      <g id="Group_3978-2" data-name="Group 3978" class="cls-6">
        <path id="Path_8915" data-name="Path 8915" class="cls-1" d="M0,11.063q0-4.2,0-8.4A2.617,2.617,0,0,1,2.025.074,2.528,2.528,0,0,1,2.614,0Q8.993,0,15.373,0a2.616,2.616,0,0,1,2.611,2.614q.006,8.446,0,16.892a2.622,2.622,0,0,1-2.635,2.615q-6.333,0-12.666,0A2.626,2.626,0,0,1,0,19.44Q0,15.251,0,11.063m6.838-2.97c-.035.019-.054.032-.074.042a4.641,4.641,0,0,0-2.655,3.4.688.688,0,0,0,.73.9q4.014,0,8.029,0c.046,0,.092,0,.137,0a.652.652,0,0,0,.654-.891,4.947,4.947,0,0,0-2.483-3.354c-.057-.032-.111-.069-.167-.1a2.817,2.817,0,0,0-.345-4,2.777,2.777,0,0,0-3.542.049,2.841,2.841,0,0,0-.285,3.957m2.129,7.8q2.775,0,5.55,0a.616.616,0,0,0,.679-.617.627.627,0,0,0-.606-.734,2.613,2.613,0,0,0-.3-.014H3.7a2.768,2.768,0,0,0-.343.019.6.6,0,0,0-.566.609.635.635,0,0,0,.7.738q2.74,0,5.481,0M9.019,17.3q-2.752,0-5.5,0c-.465,0-.715.226-.727.64-.013.45.221.693.7.72.069,0,.138,0,.206,0h10.6a3.064,3.064,0,0,0,.366-.018.6.6,0,0,0,.54-.561.644.644,0,0,0-.716-.784q-2.729,0-5.458,0" transform="translate(0 0)"/>
        <path id="Path_8916" data-name="Path 8916" class="cls-1" d="M93.031,148.643a3.452,3.452,0,0,1,3.12-2.063,3.381,3.381,0,0,1,3.188,2.063Z" transform="translate(-87.328 -137.594)"/>
        <path id="Path_8917" data-name="Path 8917" class="cls-1" d="M124.693,80.2a1.381,1.381,0,1,1-1.382-1.385,1.382,1.382,0,0,1,1.382,1.385" transform="translate(-114.457 -73.981)"/>
      </g>
    </g>
  </g>
</svg>
