<svg xmlns="http://www.w3.org/2000/svg" xmlns:xlink="http://www.w3.org/1999/xlink" width="63" height="51" viewBox="0 0 63 51">
  <defs>
    <style>
      .cls-1, .cls-2 {
        fill: #fff;
      }

      .cls-2 {
        opacity: 0.8;
      }

      .cls-3, .cls-4 {
        fill: #4cc3ff;
      }

      .cls-4 {
        mix-blend-mode: multiply;
        isolation: isolate;
      }

      .cls-5 {
        fill: #1a59b2;
      }

      .cls-6 {
        clip-path: url(#clip-path);
      }
    </style>
    <clipPath id="clip-path">
      <rect id="Rectangle_1245" data-name="Rectangle 1245" class="cls-1" width="25.891" height="25.898"/>
    </clipPath>
  </defs>
  <g id="Utility_payments" data-name="Utility payments" transform="translate(-14967 -569)">
    <g id="Group_1912" data-name="Group 1912" transform="translate(14335 -1902.96)">
      <path id="Path_2989" data-name="Path 2989" class="cls-2" d="M69.338,12.907H68.271a1.6,1.6,0,0,1-.365.831,1.3,1.3,0,0,1-.672.428v.02a1.532,1.532,0,0,1,.73.385,2.262,2.262,0,0,1,.471.919,14.18,14.18,0,0,1,.394,1.931H67.272q-.131-.932-.24-1.432a4.059,4.059,0,0,0-.193-.7,1.162,1.162,0,0,0-.2-.322,1.062,1.062,0,0,0-.769-.263H64.533v-.881h.979a1.943,1.943,0,0,0,.961-.206.9.9,0,0,0,.432-.716H64.533v-.7h2.354a.817.817,0,0,0-.408-.553,1.707,1.707,0,0,0-.811-.168H64.533v-.7h4.805Z" transform="translate(606.45 2465.721)"/>
      <circle id="Ellipse_395" data-name="Ellipse 395" class="cls-3" cx="23" cy="23" r="23" transform="translate(632 2476.96)"/>
      <path id="Intersection_2" data-name="Intersection 2" class="cls-4" d="M16.614,42.452A22.991,22.991,0,0,1,37.977,11q.843,0,1.669.06a22.99,22.99,0,0,1-21.363,31.45Q17.441,42.511,16.614,42.452Z" transform="translate(636.694 2480.007)"/>
    </g>
    <rect id="Rectangle_1246" data-name="Rectangle 1246" class="cls-5" width="30" height="30" rx="15" transform="translate(15000 569)"/>
    <path id="Path_3101" data-name="Path 3101" class="cls-3" d="M68.18,28.428l-6.768-6.773,2.539-2.541,4.315,4.312,8.742-7.945,2.45,2.691L68.18,28.431" transform="translate(14944.564 562.043)"/>
    <g id="Group_2010" data-name="Group 2010" transform="translate(14977.055 583.822)">
      <g id="Group_2009" data-name="Group 2009" class="cls-6">
        <path id="Path_3137" data-name="Path 3137" class="cls-1" d="M14.418,25.9H11.585a1.149,1.149,0,0,1-.753-1.033c-.086-.633-.211-1.261-.31-1.892a.3.3,0,0,0-.249-.292,9.171,9.171,0,0,1-2.237-.909.249.249,0,0,0-.314.022c-.579.421-1.163.834-1.747,1.247A.945.945,0,0,1,4.6,22.933q-.77-.766-1.537-1.537a.942.942,0,0,1-.11-1.358c.4-.553.8-1.108,1.207-1.652a.369.369,0,0,0,.039-.443c-.321-.711-.62-1.432-.9-2.157a.334.334,0,0,0-.3-.246c-.64-.1-1.276-.229-1.918-.313A1.09,1.09,0,0,1,0,14.315V11.786a1.049,1.049,0,0,1,1-.905c.642-.09,1.279-.216,1.919-.313a.344.344,0,0,0,.331-.3,8.416,8.416,0,0,1,.917-2.234.278.278,0,0,0-.021-.357c-.417-.572-.826-1.15-1.233-1.728A.936.936,0,0,1,3.02,4.592L4.533,3.064a.947.947,0,0,1,1.4-.131c.565.4,1.131.794,1.687,1.2a.361.361,0,0,0,.426.022c.7-.308,1.4-.605,2.118-.873a.417.417,0,0,0,.314-.382q.159-1.036.345-2.068A.944.944,0,0,1,11.826,0q1.1,0,2.2,0a.946.946,0,0,1,1.043.88c.118.7.242,1.394.348,2.093a.279.279,0,0,0,.237.27,9.245,9.245,0,0,1,2.233.925.264.264,0,0,0,.335-.023q.87-.63,1.75-1.247a.931.931,0,0,1,1.338.113q.772.766,1.538,1.538a.945.945,0,0,1,.121,1.377c-.4.571-.806,1.143-1.219,1.707a.326.326,0,0,0-.026.383c.313.715.614,1.436.9,2.163a.388.388,0,0,0,.345.292c.7.107,1.4.225,2.093.348a.913.913,0,0,1,.824.96q.018,1.163,0,2.326a.915.915,0,0,1-.839.972c-.7.121-1.394.242-2.093.351a.336.336,0,0,0-.325.281,7.715,7.715,0,0,1-.274.839,9.433,9.433,0,0,1-1.008,1.945,2.008,2.008,0,0,0-.181-.259c-.826-.831-1.638-1.677-2.49-2.481a3.151,3.151,0,0,1-1.006-2.732,4.2,4.2,0,0,0-.128-1.449,4.647,4.647,0,0,0-4-3.569,4.52,4.52,0,0,0-2,.158c-.208.06-.233.165-.089.328.033.038.071.072.107.108.6.6,1.207,1.2,1.806,1.806a1.494,1.494,0,0,1,.016,2.224c-.239.249-.487.491-.733.734a1.505,1.505,0,0,1-2.314-.011c-.585-.583-1.167-1.17-1.754-1.751-.183-.181-.288-.152-.339.095a4.79,4.79,0,0,0,5,5.846,2.778,2.778,0,0,1,2.2.881c.928.944,1.87,1.874,2.805,2.81.058.058.111.12.175.189a9.571,9.571,0,0,1-2.6,1.192.369.369,0,0,0-.322.344c-.091.633-.227,1.26-.308,1.894a1.139,1.139,0,0,1-.767,1.049" transform="translate(0 0)"/>
        <path id="Path_3138" data-name="Path 3138" class="cls-1" d="M245.7,246.854c-.039-.035-.1-.083-.149-.135l-5.329-5.328c-.281-.281-.353-.531-.234-.787a.594.594,0,0,1,.871-.256,1.045,1.045,0,0,1,.176.142q2.736,2.735,5.47,5.472a.348.348,0,0,1,.034.042l-.84.849" transform="translate(-224.059 -224.355)"/>
      </g>
    </g>
  </g>
</svg>
