<svg xmlns="http://www.w3.org/2000/svg" xmlns:xlink="http://www.w3.org/1999/xlink" width="50" height="46.057" viewBox="0 0 50 46.057">
  <defs>
    <style>
      .cls-1 {
        fill: #fff;
      }

      .cls-2 {
        fill: #2070df;
      }

      .cls-2, .cls-4 {
        mix-blend-mode: multiply;
        isolation: isolate;
      }

      .cls-3, .cls-4 {
        fill: #4cc3ff;
      }

      .cls-5 {
        clip-path: url(#clip-path);
      }
    </style>
    <clipPath id="clip-path">
      <rect id="Rectangle_2228" data-name="Rectangle 2228" class="cls-1" width="22.042" height="22.055"/>
    </clipPath>
  </defs>
  <g id="Group_1913" data-name="Group 1913" transform="translate(-569 -2933.943)">
    <g id="Group_1873" data-name="Group 1873" transform="translate(437 4587)">
      <circle id="Ellipse_502" data-name="Ellipse 502" class="cls-2" cx="17.5" cy="17.5" r="17.5" transform="translate(147 -1642)"/>
      <circle id="Ellipse_503" data-name="Ellipse 503" class="cls-3" cx="17.5" cy="17.5" r="17.5" transform="translate(132 -1653.057)"/>
      <path id="Path_3101" data-name="Path 3101" class="cls-1" d="M66.492,25.2l-5.08-5.084,1.906-1.907,3.239,3.237,6.562-5.964,1.839,2.02-8.466,7.7" transform="translate(97.439 -1644.197)"/>
      <path id="Intersection_24" data-name="Intersection 24" class="cls-4" d="M16.229,34.955A17.511,17.511,0,0,1,32.5,11q.642,0,1.271.046A17.51,17.51,0,0,1,17.5,35Q16.859,35,16.229,34.955Z" transform="translate(132 -1653)"/>
      <g id="Group_3776" data-name="Group 3776" transform="translate(138 -1647.057)">
        <g id="Group_3776-2" data-name="Group 3776" class="cls-5">
          <path id="Path_8644" data-name="Path 8644" class="cls-1" d="M0,45.531c.055-.359.1-.719.167-1.077a10.685,10.685,0,0,1,1.466-3.823.245.245,0,0,0-.045-.375c-.27-.247-.518-.517-.78-.772a.657.657,0,0,1,.354-1.134q2.24-.45,4.481-.9a.66.66,0,0,1,.8.8q-.446,2.241-.9,4.481a.657.657,0,0,1-1.134.355c-.244-.251-.492-.5-.757-.767A8.274,8.274,0,0,0,7.136,53.776a8.148,8.148,0,0,0,4.2.956,8.458,8.458,0,0,0,7.934-6.712,12.6,12.6,0,0,0,.185-1.684.653.653,0,0,1,.7-.675c.409,0,.818,0,1.227,0a.631.631,0,0,1,.662.662,10.769,10.769,0,0,1-2.652,7.134A10.594,10.594,0,0,1,13.678,57a10.693,10.693,0,0,1-9.494-2.073A10.805,10.805,0,0,1,.14,48.1C.08,47.761.046,47.42,0,47.081v-1.55" transform="translate(0 -35.284)"/>
          <path id="Path_8645" data-name="Path 8645" class="cls-1" d="M149.636,0c.476.187.479.629.551,1.03.13.731.253,1.464.382,2.2a.674.674,0,0,1-.517.813.655.655,0,0,1-.762-.578c-.157-.872-.306-1.744-.464-2.616A.749.749,0,0,1,149.249,0Z" transform="translate(-140.251)"/>
          <path id="Path_8646" data-name="Path 8646" class="cls-1" d="M125.637,140.619h1.7a.648.648,0,1,1-.008,1.291h-2.453a.643.643,0,0,1-.706-.705,2.434,2.434,0,0,1,1.095-2.1c.346-.242.707-.463,1.049-.711a1.13,1.13,0,0,0,.432-1.047.65.65,0,0,0-.644-.6.663.663,0,0,0-.639.654.633.633,0,0,1-.379.578.617.617,0,0,1-.668-.078.742.742,0,0,1-.237-.76,1.941,1.941,0,0,1,3.866.245,2.482,2.482,0,0,1-1.149,2.2c-.308.209-.627.4-.929.619a3.182,3.182,0,0,0-.361.353l.033.059" transform="translate(-117.02 -127.66)"/>
          <path id="Path_8647" data-name="Path 8647" class="cls-1" d="M194.2,139.255c0-.64,0-1.256,0-1.872a.647.647,0,1,1,1.291,0c0,.617,0,1.233,0,1.884h.6a.647.647,0,1,1,.006,1.291c-.192,0-.385,0-.6,0,0,.22,0,.425,0,.63a.645.645,0,1,1-1.29.007c0-.2,0-.4,0-.637h-.21c-.559,0-1.119,0-1.678,0a.639.639,0,0,1-.653-.88q.625-1.9,1.263-3.8a.652.652,0,1,1,1.234.412c-.3.924-.612,1.845-.918,2.768-.022.066-.041.132-.064.206Z" transform="translate(-180.594 -127.596)"/>
          <path id="Path_8648" data-name="Path 8648" class="cls-1" d="M205.673,3.156c-.087.51-.179,1.053-.274,1.6-.061.352-.118.705-.192,1.055a.645.645,0,0,1-.759.529.662.662,0,0,1-.506-.8c.149-.852.293-1.705.445-2.557a.651.651,0,0,1,.675-.54.674.674,0,0,1,.612.714" transform="translate(-192.201 -2.299)"/>
          <path id="Path_8649" data-name="Path 8649" class="cls-1" d="M248.438,28.18a.641.641,0,0,1-.541-.987c.372-.66.756-1.313,1.136-1.969.057-.1.11-.2.175-.295a.647.647,0,0,1,1.117.648c-.436.78-.886,1.553-1.341,2.322a.583.583,0,0,1-.546.282" transform="translate(-233.548 -23.222)"/>
          <path id="Path_8650" data-name="Path 8650" class="cls-1" d="M310.686,119.671a.618.618,0,0,1-.4.571c-.821.31-1.645.613-2.474.9a.649.649,0,0,1-.42-1.228q1.2-.441,2.4-.87a.659.659,0,0,1,.9.625" transform="translate(-289.294 -112.158)"/>
          <path id="Path_8651" data-name="Path 8651" class="cls-1" d="M282.772,67.1a1.844,1.844,0,0,1,.283-.452c.653-.57,1.321-1.124,1.99-1.676a.648.648,0,0,1,.907.082.64.64,0,0,1-.074.907q-1,.853-2.01,1.686a.645.645,0,0,1-1.045-.514l-.051-.033" transform="translate(-266.508 -61.092)"/>
        </g>
      </g>
    </g>
  </g>
</svg>
