<svg xmlns="http://www.w3.org/2000/svg" xmlns:xlink="http://www.w3.org/1999/xlink" width="50" height="46" viewBox="0 0 50 46">
  <defs>
    <style>
      .cls-1 {
        fill: #fff;
      }

      .cls-2 {
        fill: #2070df;
      }

      .cls-2, .cls-5 {
        mix-blend-mode: multiply;
        isolation: isolate;
      }

      .cls-3, .cls-5 {
        fill: #4cc3ff;
      }

      .cls-4 {
        clip-path: url(#clip-path);
      }

      .cls-6 {
        clip-path: url(#clip-path-2);
      }
    </style>
    <clipPath id="clip-path">
      <rect id="Rectangle_2330" data-name="Rectangle 2330" class="cls-1" width="16.856" height="18.857"/>
    </clipPath>
    <clipPath id="clip-path-2">
      <rect id="Rectangle_2392" data-name="Rectangle 2392" class="cls-1" width="18.489" height="17.59"/>
    </clipPath>
  </defs>
  <g id="Group_1912" data-name="Group 1912" transform="translate(-632 -2475)">
    <circle id="Ellipse_396" data-name="Ellipse 396" class="cls-2" cx="17.5" cy="17.5" r="17.5" transform="translate(647 2486)"/>
    <circle id="Ellipse_395" data-name="Ellipse 395" class="cls-3" cx="17.5" cy="17.5" r="17.5" transform="translate(632 2475)"/>
    <g id="Group_3972" data-name="Group 3972" transform="translate(657 2495.043)">
      <g id="Group_3901" data-name="Group 3901" class="cls-4">
        <path id="Path_8723" data-name="Path 8723" class="cls-1" d="M74.026,0c.226.048.455.083.677.144a4.742,4.742,0,0,1,3.629,3.783,4.624,4.624,0,0,1-1.423,4.5,4.628,4.628,0,0,1-3.937,1.315A4.68,4.68,0,0,1,69.2,7.1a4.657,4.657,0,0,1,.271-4.884A4.7,4.7,0,0,1,72.75.07c.107-.018.212-.046.319-.07Z" transform="translate(-65.119)"/>
        <path id="Path_8724" data-name="Path 8724" class="cls-1" d="M8.4,206.566a9.806,9.806,0,0,1-8.3-4.688.515.515,0,0,1-.045-.522,6.023,6.023,0,0,1,4.1-3.39,4.7,4.7,0,0,1,.685-.124.975.975,0,0,1,.654.248A5.042,5.042,0,0,0,8.259,199a4.7,4.7,0,0,0,2.909-.792,1.687,1.687,0,0,1,1.5-.259,6,6,0,0,1,3.374,2.177,12.607,12.607,0,0,1,.754,1.211.417.417,0,0,1-.027.466,9.878,9.878,0,0,1-3.837,3.633,9.14,9.14,0,0,1-3.379,1.037c-.384.039-.769.064-1.153.095" transform="translate(0 -187.708)"/>
      </g>
    </g>
    <path id="Intersection_2" data-name="Intersection 2" class="cls-5" d="M16.229,34.955A17.511,17.511,0,0,1,32.5,11q.642,0,1.271.046A17.51,17.51,0,0,1,17.5,35Q16.859,35,16.229,34.955Z" transform="translate(632 2475)"/>
    <g id="Group_3971" data-name="Group 3971" transform="translate(640.255 2483.705)">
      <g id="Group_3971-2" data-name="Group 3971" class="cls-6">
        <path id="Path_8903" data-name="Path 8903" class="cls-1" d="M18.489,8.762v.072c-.011,0-.025,0-.032.012q-1,1.111-2.006,2.225a.185.185,0,0,0-.042.127c.071.7.148,1.4.222,2.1.033.309.063.619.095.938l-.1.022c-.938.2-1.876.4-2.812.607a.391.391,0,0,0-.225.166c-.406.688-.8,1.383-1.2,2.075-.092.16-.185.319-.283.487-.068-.028-.123-.048-.177-.072-.838-.374-1.678-.747-2.514-1.126a.371.371,0,0,0-.339,0c-.836.379-1.676.748-2.511,1.129-.138.063-.2.051-.278-.086-.454-.806-.919-1.605-1.377-2.408a.315.315,0,0,0-.245-.18c-.207-.031-.411-.085-.616-.129l-2.273-.481c0-.064,0-.118,0-.171.1-.938.2-1.876.292-2.814A.322.322,0,0,0,2,11.033c-.316-.363-.641-.718-.963-1.076L0,8.8c.046-.053.084-.1.123-.142Q1.065,7.612,2,6.564A.26.26,0,0,0,2.08,6.4c-.069-.7-.146-1.4-.22-2.1-.033-.309-.062-.619-.093-.928a.564.564,0,0,1,.065-.025c.944-.2,1.888-.4,2.834-.6a.332.332,0,0,0,.245-.18C5.372,1.76,5.84.955,6.3.145c.07-.124.13-.134.252-.079Q7.819.643,9.1,1.2a.423.423,0,0,0,.3,0c.465-.195.923-.406,1.383-.612L12.1,0l.1.18c.453.786.908,1.57,1.357,2.359a.371.371,0,0,0,.281.213c.378.067.751.155,1.127.235l1.742.37c0,.067,0,.121,0,.174-.1.938-.2,1.876-.293,2.814a.32.32,0,0,0,.068.219c.393.448.792.89,1.192,1.33.266.292.538.579.808.868M8.5,11.943l4.613-5.169-.8-.715L8.425,10.412l-2.4-2.4L5.3,8.737l3.2,3.206"/>
      </g>
    </g>
  </g>
</svg>
