<svg xmlns="http://www.w3.org/2000/svg" xmlns:xlink="http://www.w3.org/1999/xlink" width="50" height="45.528" viewBox="0 0 50 45.528">
  <defs>
    <style>
      .cls-1 {
        fill: #fff;
      }

      .cls-2 {
        fill: #2070df;
      }

      .cls-2, .cls-5 {
        mix-blend-mode: multiply;
        isolation: isolate;
      }

      .cls-3, .cls-5 {
        fill: #4cc3ff;
      }

      .cls-4 {
        fill: #1e6ddf;
        opacity: 0.44;
      }

      .cls-6 {
        clip-path: url(#clip-path);
      }
    </style>
    <clipPath id="clip-path">
      <rect id="Rectangle_2394" data-name="Rectangle 2394" class="cls-1" width="21.644" height="21.65"/>
    </clipPath>
  </defs>
  <g id="Group_3882" data-name="Group 3882" transform="translate(-924 -2479.472)">
    <g id="Group_3547" data-name="Group 3547" transform="translate(66)">
      <g id="Group_3542" data-name="Group 3542" transform="translate(718)">
        <g id="Group_1912" data-name="Group 1912" transform="translate(-492 4)">
          <circle id="Ellipse_396" data-name="Ellipse 396" class="cls-2" cx="17.5" cy="17.5" r="17.5" transform="translate(647 2486)"/>
          <circle id="Ellipse_395" data-name="Ellipse 395" class="cls-3" cx="17.5" cy="17.5" r="17.5" transform="translate(632 2475.472)"/>
          <g id="Group_3546" data-name="Group 3546" transform="translate(656.273 2497.291)">
            <rect id="Rectangle_1139" data-name="Rectangle 1139" class="cls-1" width="16.454" height="12.418" rx="1" transform="translate(0 0)"/>
            <path id="Path_3079" data-name="Path 3079" class="cls-4" d="M188.947,2994.21v-2.4l2.1-1.625,2,1.283,3.182-3.072,1.8,1.789,1.857-2.7v6.721Z" transform="translate(-186.191 -2984.406)"/>
          </g>
          <path id="Intersection_2" data-name="Intersection 2" class="cls-5" d="M16.229,34.955A17.511,17.511,0,0,1,32.5,11q.642,0,1.271.046A17.51,17.51,0,0,1,17.5,35Q16.859,35,16.229,34.955Z" transform="translate(632 2475)"/>
          <g id="Group_3975" data-name="Group 3975" transform="translate(639 2482.472)">
            <g id="Group_3975-2" data-name="Group 3975" class="cls-6">
              <path id="Path_8907" data-name="Path 8907" class="cls-1" d="M19.049,15.206l.185.169a1.538,1.538,0,0,1,.087,2.29q-.82.836-1.659,1.654a1.533,1.533,0,0,1-2.318-.121c-.046-.055-.1-.107-.131-.146-.536.208-1.059.408-1.577.62-.051.021-.089.119-.1.186a5.362,5.362,0,0,1-.072.692,1.511,1.511,0,0,1-1.452,1.1q-1.183,0-2.367,0A1.514,1.514,0,0,1,8.129,20.13a.455.455,0,0,0-.372-.521c-.444-.156-.869-.367-1.312-.558l-.19.21A1.539,1.539,0,0,1,4,19.34c-.558-.546-1.108-1.1-1.655-1.659a1.538,1.538,0,0,1,.109-2.337c.054-.047.106-.1.146-.134-.209-.535-.408-1.058-.621-1.576a.253.253,0,0,0-.182-.1,5.722,5.722,0,0,1-.669-.062A1.514,1.514,0,0,1,0,12.018Q0,10.822,0,9.626A1.53,1.53,0,0,1,1.514,8.12c.41,0,.4-.007.557-.4.166-.425.348-.843.528-1.276-.078-.07-.163-.144-.245-.22a1.536,1.536,0,0,1-.077-2.188q.861-.9,1.759-1.759a1.518,1.518,0,0,1,2.229.137.3.3,0,0,0,.453.1,6.619,6.619,0,0,1,1.088-.45.381.381,0,0,0,.318-.453A1.522,1.522,0,0,1,9.359.028.782.782,0,0,1,9.526.006c.861,0,1.723-.014,2.584,0a1.529,1.529,0,0,1,1.415,1.427c.006.16,0,.321,0,.483.289.11.569.209.843.322s.542.241.825.368c.068-.076.137-.154.207-.231a1.533,1.533,0,0,1,2.221-.09q.878.847,1.722,1.728a1.524,1.524,0,0,1-.131,2.265.285.285,0,0,0-.091.415,12.663,12.663,0,0,1,.49,1.2c.062.173.14.238.325.224a1.513,1.513,0,0,1,1.423.647,1.458,1.458,0,0,1,.284.879c0,.773,0,1.546,0,2.319a1.52,1.52,0,0,1-1.537,1.552.431.431,0,0,0-.493.342c-.159.453-.369.888-.564,1.343M10.828,3.868a6.958,6.958,0,1,0,6.95,6.94,6.98,6.98,0,0,0-6.95-6.94" transform="translate(0 0)"/>
              <path id="Path_8908" data-name="Path 8908" class="cls-1" d="M83.884,89.328a5.41,5.41,0,1,1,5.429,5.417,5.4,5.4,0,0,1-5.429-5.417m8.223-.171c-.476.526-.936,1.031-1.393,1.539a.765.765,0,1,0,1.124,1.036q.931-1.028,1.853-2.064a.763.763,0,0,0-.065-1.2q-.866-.8-1.74-1.6a.769.769,0,1,0-1.034,1.125c.412.382.824.765,1.255,1.166m-5.626.068c.452-.419.893-.819,1.323-1.229a.762.762,0,0,0,.052-1.066.753.753,0,0,0-1.081-.062q-.961.863-1.9,1.749a.732.732,0,0,0-.055,1.028c.662.735,1.33,1.467,2.023,2.174a.747.747,0,0,0,1.261-.391.767.767,0,0,0-.238-.743c-.458-.484-.917-.967-1.384-1.459M88.992,92a.782.782,0,0,0,.787-.753q.271-1.833.553-3.665a.781.781,0,0,0-.6-.907.769.769,0,0,0-.917.646q-.3,1.89-.582,3.782a.743.743,0,0,0,.756.9" transform="translate(-78.472 -78.508)"/>
            </g>
          </g>
        </g>
      </g>
    </g>
  </g>
</svg>
