<svg xmlns="http://www.w3.org/2000/svg" xmlns:xlink="http://www.w3.org/1999/xlink" width="44" height="40" viewBox="0 0 50 46">
  <defs>
    <style>
      .cls-1 {
        fill: #fff;
      }

      .cls-2 {
        fill: #ff8c66;
      }

      .cls-2, .cls-4 {
        mix-blend-mode: multiply;
        isolation: isolate;
      }

      .cls-3 {
        fill: #ffb399;
      }

      .cls-4 {
        fill: #f48763;
        opacity: 0.5;
      }

      .cls-5 {
        clip-path: url(#clip-path);
      }
    </style>
    <clipPath id="clip-path">
      <path id="Path_7836" data-name="Path 7836" class="cls-1" d="M11.217,6.456a1.357,1.357,0,1,1,1.927,1.91L8.306,13.247a1.357,1.357,0,0,1-1.907.02L3.767,10.72a1.357,1.357,0,0,1,1.887-1.95l1.668,1.614ZM1.6,2.638A1.452,1.452,0,0,0,.642,3.887L.207,9.3s-.637,3.1,2.419,6.2c2.116,2.145,5.439,4.138,5.819,4.042.38.1,3.7-1.9,5.819-4.042,3.056-3.1,2.419-6.2,2.419-6.2l-.434-5.413A1.452,1.452,0,0,0,15.3,2.638L8.441.162Z" transform="translate(-0.152 -0.162)"/>
    </clipPath>
  </defs>
  <g id="Group_1912" data-name="Group 1912" transform="translate(-632 -2475)">
    <circle id="Ellipse_396" data-name="Ellipse 396" class="cls-2" cx="17.5" cy="17.5" r="17.5" transform="translate(647 2486)"/>
    <circle id="Ellipse_395" data-name="Ellipse 395" class="cls-3" cx="17.5" cy="17.5" r="17.5" transform="translate(632 2475)"/>
    <g id="Group_3532" data-name="Group 3532" transform="translate(226.735 265.027)">
      <rect id="Rectangle_1139" data-name="Rectangle 1139" class="cls-1" width="16.436" height="12.921" rx="1" transform="translate(444.493 2229.785) rotate(90)"/>
      <rect id="Rectangle_1140" data-name="Rectangle 1140" class="cls-4" width="1.395" height="6.975" transform="translate(441.505 2233.08) rotate(90)"/>
      <rect id="Rectangle_1141" data-name="Rectangle 1141" class="cls-4" width="1.395" height="6.975" transform="translate(441.505 2235.695) rotate(90)"/>
      <rect id="Rectangle_1142" data-name="Rectangle 1142" class="cls-4" width="1.395" height="3.836" transform="translate(438.366 2238.136) rotate(90)"/>
    </g>
    <path id="Intersection_2" data-name="Intersection 2" class="cls-2" d="M16.229,34.955A17.511,17.511,0,0,1,32.5,11q.642,0,1.271.046A17.51,17.51,0,0,1,17.5,35Q16.859,35,16.229,34.955Z" transform="translate(632 2475)"/>
    <g id="Group_3684" data-name="Group 3684" transform="translate(640.413 2482.81)">
      <g id="Group_3194" data-name="Group 3194" class="cls-5">
        <rect id="Rectangle_1929" data-name="Rectangle 1929" class="cls-1" width="17.75" height="19.472" transform="translate(-0.582 0)"/>
      </g>
    </g>
  </g>
</svg>
