<svg xmlns="http://www.w3.org/2000/svg" xmlns:xlink="http://www.w3.org/1999/xlink" width="44" height="40" viewBox="0 0 50 46">
  <defs>
    <style>
      .cls-1 {
        fill: #fff;
      }

      .cls-2 {
        fill: #f48763;
        mix-blend-mode: multiply;
        isolation: isolate;
      }

      .cls-3 {
        fill: #ffb399;
      }

      .cls-4 {
        clip-path: url(#clip-path);
      }

      .cls-5 {
        clip-path: url(#clip-path-2);
      }
    </style>
    <clipPath id="clip-path">
      <rect id="Rectangle_2558" data-name="Rectangle 2558" class="cls-1" width="17.497" height="17.496"/>
    </clipPath>
    <clipPath id="clip-path-2">
      <rect id="Rectangle_2557" data-name="Rectangle 2557" class="cls-1" width="15" height="19.401"/>
    </clipPath>
  </defs>
  <g id="Group_1912" data-name="Group 1912" transform="translate(-632 -2475)">
    <circle id="Ellipse_396" data-name="Ellipse 396" class="cls-2" cx="17.5" cy="17.5" r="17.5" transform="translate(647 2486)"/>
    <circle id="Ellipse_395" data-name="Ellipse 395" class="cls-3" cx="17.5" cy="17.5" r="17.5" transform="translate(632 2475)"/>
    <g id="Group_4210" data-name="Group 4210" transform="translate(655.949 2494.437)">
      <g id="Group_4210-2" data-name="Group 4210" class="cls-4">
        <path id="Path_9302" data-name="Path 9302" class="cls-1" d="M8.136,53.259c-.3-.044-.595-.081-.89-.133A8.57,8.57,0,0,1,2.588,50.7,8.541,8.541,0,0,1,.12,45.934a8.428,8.428,0,0,1,1.155-5.878c.1-.172.094-.265-.053-.392-.2-.175-.38-.377-.571-.564a.521.521,0,0,1,.274-.9q1.787-.359,3.575-.714a.517.517,0,0,1,.619.62Q4.766,39.893,4.4,41.68a.52.52,0,0,1-.9.273c-.192-.2-.387-.4-.595-.61a6.01,6.01,0,0,0-.643,1.6,6.482,6.482,0,0,0,2.068,6.567A6.26,6.26,0,0,0,7.767,51.13a6.475,6.475,0,0,0,5.093-1.355,6.59,6.59,0,0,0,2.51-4.278,9.086,9.086,0,0,0,.077-.969A.513.513,0,0,1,15.991,44c.285,0,.57.013.854,0a.6.6,0,0,1,.653.379v.752c-.039.28-.071.561-.119.839a8.6,8.6,0,0,1-2.094,4.345,8.633,8.633,0,0,1-4.978,2.809c-.311.058-.626.093-.939.139Z" transform="translate(0 -35.763)"/>
        <path id="Path_9303" data-name="Path 9303" class="cls-1" d="M125.558,139.572h1.068c.125,0,.251-.005.376,0a.5.5,0,0,1,.468.5.494.494,0,0,1-.46.52q-1.076.014-2.152,0a.491.491,0,0,1-.461-.5,1.939,1.939,0,0,1,.854-1.71c.241-.171.493-.326.741-.488a.962.962,0,0,0,.453-.849.513.513,0,1,0-1.024-.047.514.514,0,1,1-1.024-.051,1.549,1.549,0,0,1,1.365-1.47,1.524,1.524,0,0,1,1.668,1.2,1.932,1.932,0,0,1-.824,2.043c-.212.153-.443.279-.654.432-.151.11-.285.244-.426.368l.032.054" transform="translate(-118.72 -129.285)"/>
        <path id="Path_9304" data-name="Path 9304" class="cls-1" d="M193.82,139.569c-.513,0-1,0-1.491,0a.51.51,0,0,1-.523-.709q.495-1.5,1-3a.518.518,0,1,1,.975.339q-.36,1.091-.726,2.181l-.052.158h.818v-.421c0-.37,0-.74,0-1.11a.511.511,0,0,1,1.021,0c0,.506,0,1.012,0,1.544h.478a.513.513,0,1,1,0,1.023h-.474c0,.173,0,.331,0,.489a.512.512,0,1,1-1.023.007c0-.158,0-.317,0-.5" transform="translate(-183.018 -129.284)"/>
        <path id="Path_9305" data-name="Path 9305" class="cls-1" d="M149.016.529a.512.512,0,0,1,1.016-.113q.2,1.1.381,2.2a.514.514,0,0,1-1.009.2c-.134-.731-.256-1.463-.382-2.2a.691.691,0,0,1-.006-.087" transform="translate(-142.215 0.001)"/>
        <path id="Path_9306" data-name="Path 9306" class="cls-1" d="M205.432,3.077c-.071.409-.144.839-.219,1.269-.049.279-.093.559-.151.837a.512.512,0,0,1-.605.413.523.523,0,0,1-.4-.619c.119-.681.234-1.363.355-2.044a.513.513,0,0,1,.539-.422.531.531,0,0,1,.479.566" transform="translate(-194.737 -2.394)"/>
        <path id="Path_9307" data-name="Path 9307" class="cls-1" d="M248.307,27.451a.5.5,0,0,1-.469-.726c.342-.629.705-1.246,1.074-1.86a.491.491,0,0,1,.678-.151.5.5,0,0,1,.2.668c-.346.62-.7,1.234-1.065,1.846a.464.464,0,0,1-.417.223" transform="translate(-236.471 -23.515)"/>
        <path id="Path_9308" data-name="Path 9308" class="cls-1" d="M310.078,119.583a.494.494,0,0,1-.325.453c-.648.243-1.3.482-1.95.711a.514.514,0,1,1-.342-.97c.639-.236,1.278-.47,1.92-.7a.518.518,0,0,1,.7.5" transform="translate(-293.099 -113.618)"/>
        <path id="Path_9309" data-name="Path 9309" class="cls-1" d="M286.349,65.388a1.582,1.582,0,0,1-.238.369c-.509.445-1.03.876-1.551,1.307a.513.513,0,1,1-.663-.783q.779-.663,1.566-1.315a.494.494,0,0,1,.558-.069.592.592,0,0,1,.327.491" transform="translate(-270.757 -61.882)"/>
      </g>
    </g>
    <path id="Intersection_2" data-name="Intersection 2" class="cls-2" d="M16.229,34.955A17.511,17.511,0,0,1,32.5,11q.642,0,1.271.046A17.51,17.51,0,0,1,17.5,35Q16.859,35,16.229,34.955Z" transform="translate(632 2475)"/>
    <g id="Group_4209" data-name="Group 4209" transform="translate(642 2482.8)">
      <g id="Group_4208" data-name="Group 4208" class="cls-5">
        <path id="Path_9299" data-name="Path 9299" class="cls-1" d="M9.463,11.436c-.347,0-.683,0-1.019,0a1.145,1.145,0,0,1-1.131-1.058,1.117,1.117,0,0,1,.919-1.22A4.117,4.117,0,0,1,9.2,9.125a2.743,2.743,0,0,1,.7.188,1.877,1.877,0,0,0,.958-.159.315.315,0,0,0,.039-.074A6.261,6.261,0,0,0,11.4,4.928,3.61,3.61,0,0,0,9.154,2.237,4.427,4.427,0,0,0,6.9,2a3.621,3.621,0,0,0-3.063,2.3,5.516,5.516,0,0,0-.225,3.2,7.26,7.26,0,0,0,1.52,3.169,3.163,3.163,0,0,1,.339.5.935.935,0,0,1-.343,1.267,2.336,2.336,0,0,1-.467.237,13.925,13.925,0,0,0-2.476,1.236,10.635,10.635,0,0,0-1.4,1,2.2,2.2,0,0,0-.734,2.222,2.061,2.061,0,0,0,1.3,1.438,8.471,8.471,0,0,0,3.051.7c1.159.081,2.324.106,3.487.113a20.753,20.753,0,0,0,4.391-.352,5.438,5.438,0,0,0,1.822-.668,1.637,1.637,0,0,0,.826-1.067,2.573,2.573,0,0,0-.88-2.609,7.536,7.536,0,0,0-1.794-1.121c-.681-.309-1.377-.585-2.06-.889a1.032,1.032,0,0,1-.728-1.2.226.226,0,0,0-.013-.059M.81,7.769c0,.316,0,.631,0,.947a1.021,1.021,0,0,0,1,1.072,1,1,0,0,0,1.07-1.023c.015-.666,0-1.333,0-2a.8.8,0,0,0-.3-.711c-.313-.2-.254-.449-.209-.721.006-.035.017-.068.022-.1a5.176,5.176,0,0,1,10.26.478.239.239,0,0,1-.077.187,1.061,1.061,0,0,0-.472.954c0,.379,0,.758,0,1.136a8.529,8.529,0,0,0,.031.987.246.246,0,0,1-.14.294,5.137,5.137,0,0,1-1.936.651.434.434,0,0,1-.452-.123.464.464,0,0,0-.3-.118,7.963,7.963,0,0,0-.883,0,.605.605,0,0,0,.039,1.209,5.415,5.415,0,0,0,.8-.008,1.736,1.736,0,0,0,.463-.2,1.006,1.006,0,0,1,.264-.125,5.524,5.524,0,0,0,2.443-.824.277.277,0,0,1,.3-.023,1.028,1.028,0,0,0,1.452-.966c0-.645,0-1.291,0-1.936a1.057,1.057,0,0,0-.458-.9A.4.4,0,0,1,13.6,5.67c-.045-.248-.053-.5-.1-.748A6.081,6.081,0,0,0,5.25.45,5.926,5.926,0,0,0,1.394,5.692a.339.339,0,0,1-.126.211,1.048,1.048,0,0,0-.458.9c0,.323,0,.645,0,.968" transform="translate(0 0)"/>
        <path id="Path_9300" data-name="Path 9300" class="cls-1" d="M9.463,44.208a.223.223,0,0,1,.013.059,1.032,1.032,0,0,0,.728,1.2c.683.3,1.379.58,2.06.889a7.536,7.536,0,0,1,1.794,1.121,2.573,2.573,0,0,1,.88,2.609,1.637,1.637,0,0,1-.826,1.067,5.438,5.438,0,0,1-1.822.668,20.753,20.753,0,0,1-4.391.352c-1.163-.007-2.328-.032-3.487-.113a8.471,8.471,0,0,1-3.051-.7,2.061,2.061,0,0,1-1.3-1.438A2.2,2.2,0,0,1,.79,47.7a10.63,10.63,0,0,1,1.4-1,13.925,13.925,0,0,1,2.476-1.236,2.333,2.333,0,0,0,.467-.237.935.935,0,0,0,.343-1.267,3.159,3.159,0,0,0-.339-.5,7.26,7.26,0,0,1-1.52-3.169,5.516,5.516,0,0,1,.225-3.2,3.621,3.621,0,0,1,3.063-2.3,4.427,4.427,0,0,1,2.253.236A3.61,3.61,0,0,1,11.4,37.7a6.261,6.261,0,0,1-.511,4.152.315.315,0,0,1-.039.074,1.877,1.877,0,0,1-.958.159,2.743,2.743,0,0,0-.7-.188,4.12,4.12,0,0,0-.963.032,1.117,1.117,0,0,0-.919,1.22,1.145,1.145,0,0,0,1.131,1.058c.336,0,.672,0,1.019,0" transform="translate(0 -32.773)"/>
        <path id="Path_9301" data-name="Path 9301" class="cls-1" d="M14.39,7.769c0-.323,0-.645,0-.968a1.048,1.048,0,0,1,.458-.9.34.34,0,0,0,.126-.211A5.926,5.926,0,0,1,18.831.45,6.081,6.081,0,0,1,27.08,4.922c.052.246.06.5.1.748a.4.4,0,0,0,.126.232,1.057,1.057,0,0,1,.458.9c0,.645,0,1.291,0,1.936a1.028,1.028,0,0,1-1.452.966.277.277,0,0,0-.3.023,5.523,5.523,0,0,1-2.443.824,1,1,0,0,0-.264.125,1.737,1.737,0,0,1-.463.2,5.415,5.415,0,0,1-.8.008.605.605,0,0,1-.039-1.209,7.965,7.965,0,0,1,.883,0,.464.464,0,0,1,.3.118.434.434,0,0,0,.452.123,5.138,5.138,0,0,0,1.937-.651.246.246,0,0,0,.14-.294,8.529,8.529,0,0,1-.031-.987c0-.379,0-.758,0-1.136a1.061,1.061,0,0,1,.472-.954.239.239,0,0,0,.077-.187A5.176,5.176,0,0,0,15.98,5.23c-.006.034-.017.068-.022.1-.045.272-.1.523.209.721a.8.8,0,0,1,.3.711c0,.666.013,1.333,0,2a1,1,0,0,1-1.07,1.023,1.021,1.021,0,0,1-1-1.072c0-.316,0-.631,0-.947" transform="translate(-13.581 0)"/>
      </g>
    </g>
  </g>
</svg>
