<svg xmlns="http://www.w3.org/2000/svg" xmlns:xlink="http://www.w3.org/1999/xlink" width="44" height="40" viewBox="0 0 50 46">
  <defs>
    <style>
      .cls-1 {
        fill: #fff;
      }

      .cls-2 {
        fill: #ff8c66;
        mix-blend-mode: multiply;
        isolation: isolate;
      }

      .cls-3 {
        fill: #ffb399;
      }

      .cls-4 {
        clip-path: url(#clip-path);
      }

      .cls-5 {
        clip-path: url(#clip-path-2);
      }
    </style>
    <clipPath id="clip-path">
      <rect id="Rectangle_2554" data-name="Rectangle 2554" class="cls-1" width="18.348" height="18.255"/>
    </clipPath>
    <clipPath id="clip-path-2">
      <rect id="Rectangle_2556" data-name="Rectangle 2556" class="cls-1" width="19.263" height="19.261"/>
    </clipPath>
  </defs>
  <g id="Group_1912" data-name="Group 1912" transform="translate(-632 -2475)">
    <circle id="Ellipse_396" data-name="Ellipse 396" class="cls-2" cx="17.5" cy="17.5" r="17.5" transform="translate(647 2486)"/>
    <circle id="Ellipse_395" data-name="Ellipse 395" class="cls-3" cx="17.5" cy="17.5" r="17.5" transform="translate(632 2475)"/>
    <g id="Group_4205" data-name="Group 4205" transform="translate(940 3462.002)">
      <g id="Group_4204" data-name="Group 4204" class="cls-4" transform="translate(-284 -968)">
        <path id="Path_9297" data-name="Path 9297" class="cls-1" d="M5.362,2.356c.563-.22,1.085-.42,1.6-.632a.231.231,0,0,0,.1-.176c.011-.273,0-.546.005-.819A.689.689,0,0,1,7.783,0Q9.175,0,10.567,0a.687.687,0,0,1,.711.706c0,.281-.005.562.006.842a.229.229,0,0,0,.1.173c.517.212,1.038.412,1.6.632.184-.192.4-.42.617-.64a.7.7,0,0,1,1.056-.01q.974.961,1.936,1.936A.7.7,0,0,1,16.584,4.7c-.212.218-.426.433-.64.65-.005.005-.007.014.008-.017.214.547.414,1.069.627,1.585a.23.23,0,0,0,.175.1c.288.011.577,0,.866.005a.689.689,0,0,1,.726.715q.005,1.392,0,2.784a.687.687,0,0,1-.707.71c-.288,0-.577-.006-.866.006a.256.256,0,0,0-.2.1c-.214.516-.414,1.038-.634,1.6.193.186.423.4.641.619a.7.7,0,0,1,.009,1.056q-.961.975-1.936,1.936a.7.7,0,0,1-1.056-.016c-.221-.219-.434-.445-.618-.635-.563.22-1.084.42-1.6.632a.231.231,0,0,0-.1.176c-.011.273,0,.546-.005.819a.69.69,0,0,1-.716.725q-1.392,0-2.784,0a.687.687,0,0,1-.709-.708c0-.273.006-.546-.006-.819a.256.256,0,0,0-.1-.2c-.516-.214-1.037-.413-1.6-.632-.182.189-.389.412-.6.625a.7.7,0,0,1-1.09.008q-.955-.948-1.9-1.9a.7.7,0,0,1,0-1.073c.219-.221.446-.434.636-.619-.22-.562-.42-1.083-.632-1.6a.231.231,0,0,0-.176-.1c-.288-.01-.577,0-.866-.005A.689.689,0,0,1,0,10.517Q0,9.125,0,7.733a.687.687,0,0,1,.707-.71c.289,0,.577.006.866-.006a.256.256,0,0,0,.2-.1c.214-.516.413-1.037.633-1.6-.188-.181-.41-.388-.625-.6a.7.7,0,0,1-.009-1.089q.948-.955,1.9-1.9a.7.7,0,0,1,1.073,0c.222.218.434.447.618.637m-1.1,6.769A4.915,4.915,0,1,0,9.17,4.213,4.939,4.939,0,0,0,4.259,9.125" transform="translate(0 0)"/>
      </g>
    </g>
    <path id="Intersection_2" data-name="Intersection 2" class="cls-2" d="M16.229,34.955A17.511,17.511,0,0,1,32.5,11q.642,0,1.271.046A17.51,17.51,0,0,1,17.5,35Q16.859,35,16.229,34.955Z" transform="translate(632 2475)"/>
    <g id="Group_4207" data-name="Group 4207" transform="translate(638.868 2483.869)">
      <g id="Group_4207-2" data-name="Group 4207" class="cls-5">
        <path id="Path_9298" data-name="Path 9298" class="cls-1" d="M7.942,19.261H7.3c-.015-.01-.03-.026-.046-.029a2.518,2.518,0,0,1-1.392-.758q-2.547-2.559-5.1-5.108a2.341,2.341,0,0,1,0-3.461L4.289,6.382C6.084,4.587,7.873,2.787,9.677,1a3.378,3.378,0,0,1,2.44-1C13.834,0,15.551,0,17.268,0a1.955,1.955,0,0,1,1.467.648,2.262,2.262,0,0,1,.528,1.081V7.524a.34.34,0,0,0-.035.082,3.535,3.535,0,0,1-1.034,2.059Q13.75,14.113,9.3,18.556a2.047,2.047,0,0,1-.521.394,8.1,8.1,0,0,1-.837.311M12.851,4.4a2,2,0,0,0,4,.026,2,2,0,1,0-4-.026" transform="translate(0 0)"/>
      </g>
    </g>
  </g>
</svg>
