<svg xmlns="http://www.w3.org/2000/svg" xmlns:xlink="http://www.w3.org/1999/xlink" width="35" height="40" viewBox="0 0 50 46.048">
  <defs>
    <style>
      .cls-1, .cls-3 {
        fill: #fff;
      }

      .cls-2 {
        fill: #ff8c66;
        mix-blend-mode: multiply;
        isolation: isolate;
      }

      .cls-3 {
        opacity: 0.8;
      }

      .cls-4 {
        fill: #ffb399;
      }

      .cls-5 {
        clip-path: url(#clip-path);
      }

      .cls-6 {
        clip-path: url(#clip-path-2);
      }
    </style>
    <clipPath id="clip-path">
      <rect id="Rectangle_2099" data-name="Rectangle 2099" class="cls-1" width="18.431" height="18.419"/>
    </clipPath>
    <clipPath id="clip-path-2">
      <rect id="Rectangle_2551" data-name="Rectangle 2551" class="cls-1" width="22.67" height="22.672"/>
    </clipPath>
  </defs>
  <g id="Group_1912" data-name="Group 1912" transform="translate(-632 -2474.952)">
    <circle id="Ellipse_396" data-name="Ellipse 396" class="cls-2" cx="17.5" cy="17.5" r="17.5" transform="translate(647 2486)"/>
    <path id="Path_2989" data-name="Path 2989" class="cls-3" d="M68.193,11.313H67.08a.875.875,0,0,1,.286.549h.827V12.4H67.38a1.222,1.222,0,0,1-.278.633.99.99,0,0,1-.512.326v.015a1.167,1.167,0,0,1,.556.293,1.723,1.723,0,0,1,.359.7,10.8,10.8,0,0,1,.3,1.471H66.619q-.1-.71-.183-1.091a3.091,3.091,0,0,0-.147-.531.885.885,0,0,0-.154-.245.809.809,0,0,0-.586-.2H64.533V13.1h.746a1.48,1.48,0,0,0,.732-.157.685.685,0,0,0,.329-.545H64.533v-.534h1.793a.622.622,0,0,0-.311-.421,1.3,1.3,0,0,0-.618-.128h-.864v-.534h3.66Z" transform="translate(597.158 2464.171)"/>
    <circle id="Ellipse_395" data-name="Ellipse 395" class="cls-4" cx="17.5" cy="17.5" r="17.5" transform="translate(632 2475)"/>
    <g id="Group_3688" data-name="Group 3688" transform="translate(655.136 2494.291)">
      <g id="Group_3688-2" data-name="Group 3688" class="cls-5">
        <path id="Path_8548" data-name="Path 8548" class="cls-1" d="M4.725,18.482a1.66,1.66,0,0,1-.291-.25.533.533,0,0,1,.214-.778c.052-.026.108-.046.183-.078-.058-.038-.1-.069-.143-.095a9.077,9.077,0,0,1-4.473-6.14A8.839,8.839,0,0,1,2.26,3.272,8.91,8.91,0,0,1,7.5.229,13.715,13.715,0,0,1,9.21.068.515.515,0,0,1,9.761.6a.529.529,0,0,1-.549.54A7.99,7.99,0,0,0,4.794,2.479,8.028,8.028,0,0,0,1.229,7.844a8.136,8.136,0,0,0,3.693,8.3c.044.028.092.051.163.09,0-.083,0-.145,0-.207a.539.539,0,0,1,.4-.516.518.518,0,0,1,.592.233c.25.5.49,1.012.71,1.529a.514.514,0,0,1-.341.661c-.411.162-.827.313-1.24.47-.054.02-.1.05-.155.076Z" transform="translate(0 -0.063)"/>
        <path id="Path_8549" data-name="Path 8549" class="cls-1" d="M180.905,18.419c-.325-.182-.452-.4-.385-.667a.542.542,0,0,1,.542-.412,8.148,8.148,0,0,0,7.978-6.7,8.154,8.154,0,0,0-3.66-8.3c-.065-.041-.132-.078-.2-.119a1.643,1.643,0,0,1,0,.338.522.522,0,0,1-.423.417.513.513,0,0,1-.557-.242c-.245-.5-.483-1-.7-1.512a.518.518,0,0,1,.319-.673q.573-.255,1.152-.5a.548.548,0,0,1,.725.239.542.542,0,0,1-.228.727l-.066.039c.384.255.783.489,1.147.767a9.145,9.145,0,0,1,3.612,5.994c.04.247.072.5.107.743v1.3c-.011.046-.027.092-.034.138-.061.4-.1.807-.185,1.2a9.261,9.261,0,0,1-7.335,7.074c-.335.057-.672.1-1.008.147Z" transform="translate(-171.828 0)"/>
        <path id="Path_8550" data-name="Path 8550" class="cls-1" d="M213.378,213.124Z" transform="translate(-194.947 -194.705)"/>
        <path id="Path_8551" data-name="Path 8551" class="cls-1" d="M57.406,55.578c.146.14.322.3.49.473a.537.537,0,0,1,0,.825q-.733.742-1.475,1.475a.536.536,0,0,1-.812,0c-.168-.163-.332-.328-.5-.493,0,0-.01-.006.009,0-.422.164-.828.319-1.231.484-.036.015-.064.093-.066.142-.007.21,0,.42,0,.629a.528.528,0,0,1-.543.545q-1.079,0-2.158,0a.526.526,0,0,1-.535-.535c0-.216,0-.432,0-.647a.192.192,0,0,0-.089-.143c-.391-.162-.786-.313-1.221-.484-.134.14-.29.313-.455.477a.544.544,0,0,1-.851,0q-.727-.723-1.449-1.45a.542.542,0,0,1,0-.838c.143-.145.293-.284.429-.435a.19.19,0,0,0,.026-.164q-.215-.54-.45-1.073a.209.209,0,0,0-.149-.1c-.221-.011-.443,0-.665-.005a.529.529,0,0,1-.55-.556q0-1.061,0-2.122a.531.531,0,0,1,.566-.558c.216,0,.432.005.647,0a.194.194,0,0,0,.147-.085c.161-.391.312-.787.485-1.229-.136-.129-.307-.285-.472-.448a.546.546,0,0,1,0-.863q.711-.714,1.424-1.424a.55.55,0,0,1,.876,0c.16.16.314.328.444.464.438-.171.839-.324,1.236-.487a.179.179,0,0,0,.074-.137c.008-.215,0-.432,0-.647a.525.525,0,0,1,.533-.537q1.088,0,2.176,0a.523.523,0,0,1,.527.524c0,.216,0,.432,0,.647a.2.2,0,0,0,.08.15c.4.164.8.317,1.229.485.143-.148.306-.324.476-.492a.533.533,0,0,1,.812-.007q.749.738,1.488,1.488a.534.534,0,0,1-.008.812c-.168.171-.344.333-.492.475.169.432.323.833.487,1.23a.2.2,0,0,0,.151.079c.221.009.443,0,.665,0a.528.528,0,0,1,.541.547q0,1.07,0,2.14a.529.529,0,0,1-.557.55c-.222,0-.444,0-.665,0a.177.177,0,0,0-.135.076c-.163.4-.317.8-.487,1.233m-1.429-2.935a3.777,3.777,0,1,0-3.769,3.781,3.8,3.8,0,0,0,3.769-3.781" transform="translate(-42.979 -43.437)"/>
      </g>
    </g>
    <path id="Intersection_2" data-name="Intersection 2" class="cls-2" d="M16.229,34.955A17.511,17.511,0,0,1,32.5,11q.642,0,1.271.046A17.51,17.51,0,0,1,17.5,35Q16.859,35,16.229,34.955Z" transform="translate(632 2475)"/>
    <g id="Group_4200" data-name="Group 4200" transform="translate(638.457 2481.009)">
      <g id="Group_4199" data-name="Group 4199" class="cls-6">
        <path id="Path_9284" data-name="Path 9284" class="cls-1" d="M2.208,43.94C1.784,43.518,1.375,43.1.959,42.7a.434.434,0,0,1-.165-.5c.083-.213.263-.236.466-.235,1.314,0,2.627,0,3.941,0,.357,0,.475.12.475.484,0,1.314,0,2.628,0,3.942,0,.194-.027.363-.226.449a.418.418,0,0,1-.5-.15c-.357-.366-.718-.727-1.1-1.113-.06.085-.11.15-.154.22A9.058,9.058,0,0,0,14.752,59.044c.088-.035.172-.078.261-.109a.385.385,0,0,1,.53.208c.212.412.419.827.623,1.243a.393.393,0,0,1-.225.624,10.823,10.823,0,0,1-2.719.819,10.957,10.957,0,0,1-6.706-.934,11.333,11.333,0,0,1-4.4-16.81c.027-.038.05-.079.093-.145" transform="translate(0 -39.318)"/>
        <path id="Path_9285" data-name="Path 9285" class="cls-1" d="M116.178,18.042l1.088,1.084c.061.061.12.125.184.183a.393.393,0,0,1-.289.711c-1.282,0-2.564,0-3.847,0-.079,0-.158,0-.236,0a.357.357,0,0,1-.367-.377c0-1.385-.007-2.769.008-4.154a.438.438,0,0,1,.228-.334.5.5,0,0,1,.419.091c.341.3.654.636.974.961a2.267,2.267,0,0,1,.172.23,8.46,8.46,0,0,0,.959-1.79,9.056,9.056,0,0,0-6.3-12.118,8.941,8.941,0,0,0-5.61.446c-.464.191-.577.151-.8-.29-.182-.366-.367-.73-.545-1.1a.385.385,0,0,1,.22-.606,11.338,11.338,0,0,1,12.889,2.629,10.96,10.96,0,0,1,2.955,6.29,11.17,11.17,0,0,1-1.989,7.973c-.035.05-.067.1-.112.173" transform="translate(-95.703 0.001)"/>
        <path id="Path_9286" data-name="Path 9286" class="cls-1" d="M90.124,83.931a6.041,6.041,0,1,0,6.042,6.039,6.033,6.033,0,0,0-6.042-6.039m2.106,3.747H90.95a1,1,0,0,1,.328.631h.951v.615h-.934a1.41,1.41,0,0,1-.32.728,1.139,1.139,0,0,1-.589.375v.017a1.344,1.344,0,0,1,.64.337,1.986,1.986,0,0,1,.412.808,12.4,12.4,0,0,1,.345,1.692H90.419q-.118-.817-.21-1.254a3.559,3.559,0,0,0-.168-.61,1.014,1.014,0,0,0-.177-.282.93.93,0,0,0-.674-.236H88.02v-.766h.859a1.7,1.7,0,0,0,.842-.181.787.787,0,0,0,.379-.627H88.02V88.31h2.063a.717.717,0,0,0-.358-.484,1.5,1.5,0,0,0-.711-.147H88.02v-.615h4.209Z" transform="translate(-78.783 -78.64)"/>
      </g>
    </g>
  </g>
</svg>
