<svg xmlns="http://www.w3.org/2000/svg" xmlns:xlink="http://www.w3.org/1999/xlink" width="35" height="40" viewBox="0 0 50 46.048">
  <defs>
    <style>
      .cls-1, .cls-3 {
        fill: #fff;
      }

      .cls-2 {
        fill: #ff8c66;
        mix-blend-mode: multiply;
        isolation: isolate;
      }

      .cls-3 {
        opacity: 0.8;
      }

      .cls-4 {
        fill: #ffb399;
      }

      .cls-5 {
        clip-path: url(#clip-path);
      }
    </style>
    <clipPath id="clip-path">
      <rect id="Rectangle_2548" data-name="Rectangle 2548" class="cls-1" width="17" height="16.997"/>
    </clipPath>
  </defs>
  <g id="Group_1912" data-name="Group 1912" transform="translate(-632 -2474.952)">
    <circle id="Ellipse_396" data-name="Ellipse 396" class="cls-2" cx="17.5" cy="17.5" r="17.5" transform="translate(647 2486)"/>
    <path id="Path_2989" data-name="Path 2989" class="cls-3" d="M68.193,11.313H67.08a.875.875,0,0,1,.286.549h.827V12.4H67.38a1.222,1.222,0,0,1-.278.633.99.99,0,0,1-.512.326v.015a1.167,1.167,0,0,1,.556.293,1.723,1.723,0,0,1,.359.7,10.8,10.8,0,0,1,.3,1.471H66.619q-.1-.71-.183-1.091a3.091,3.091,0,0,0-.147-.531.885.885,0,0,0-.154-.245.809.809,0,0,0-.586-.2H64.533V13.1h.746a1.48,1.48,0,0,0,.732-.157.685.685,0,0,0,.329-.545H64.533v-.534h1.793a.622.622,0,0,0-.311-.421,1.3,1.3,0,0,0-.618-.128h-.864v-.534h3.66Z" transform="translate(597.158 2464.171)"/>
    <path id="Ellipse_395" data-name="Ellipse 395" class="cls-4" d="M17.5,0A17.5,17.5,0,1,1,0,17.5,17.5,17.5,0,0,1,17.5,0Z" transform="translate(632 2475)"/>
    <path id="Path_3101" data-name="Path 3101" class="cls-1" d="M66.492,25.2l-5.08-5.084,1.906-1.907,3.239,3.237,6.562-5.964,1.839,2.02-8.466,7.7" transform="translate(597.166 2483.158)"/>
    <path id="Intersection_2" data-name="Intersection 2" class="cls-2" d="M16.229,34.955A17.511,17.511,0,0,1,32.5,11q.642,0,1.271.046A17.51,17.51,0,0,1,17.5,35Q16.859,35,16.229,34.955Z" transform="translate(632 2475)"/>
    <g id="Group_4196" data-name="Group 4196" transform="translate(640 2484.654)">
      <g id="Group_4196-2" data-name="Group 4196" class="cls-5">
        <path id="Path_9277" data-name="Path 9277" class="cls-1" d="M35.893,0a.53.53,0,0,1,.236.5,11.964,11.964,0,0,1-1.4,5.45,13.062,13.062,0,0,1-2.754,3.688.667.667,0,0,0-.233.5,8.847,8.847,0,0,1-2.031,5.236c-.16.2-.339.379-.512.566a.377.377,0,0,1-.682-.217c-.115-.848-.24-1.694-.362-2.541a.737.737,0,0,0-.027-.086l-.318.28a.362.362,0,0,1-.568-.007q-2.249-2.245-4.494-4.494a.354.354,0,0,1-.012-.543c.093-.107.188-.212.3-.343l-.829-.12c-.628-.09-1.257-.178-1.885-.269a.339.339,0,0,1-.292-.24.378.378,0,0,1,.12-.4,9.025,9.025,0,0,1,5.957-2.586.428.428,0,0,0,.268-.12A13.514,13.514,0,0,1,33.219.286c.534-.128,1.089-.172,1.634-.255C34.9.024,34.949.01,35,0ZM33.03,4.866a1.769,1.769,0,1,0-1.78,1.766,1.776,1.776,0,0,0,1.78-1.766" transform="translate(-19.129)"/>
        <path id="Path_9278" data-name="Path 9278" class="cls-1" d="M0,260.633c.144-.433.284-.868.433-1.3a19.153,19.153,0,0,1,1.146-2.78,2.177,2.177,0,0,1,4.068.807,2.119,2.119,0,0,1-1.068,2.132,14.584,14.584,0,0,1-2.416,1.032c-.525.185-1.056.352-1.586.523-.3.1-.391.064-.579-.183v-.232" transform="translate(0 -244.102)"/>
      </g>
    </g>
  </g>
</svg>
