<svg xmlns="http://www.w3.org/2000/svg" width="44" height="40" viewBox="0 0 50 46">
  <defs>
    <style>
      .cls-1 {
        fill: #f98965;
      }

      .cls-1, .cls-4 {
        mix-blend-mode: multiply;
        isolation: isolate;
      }

      .cls-2 {
        fill: #ffb399;
      }

      .cls-3 {
        fill: #fff;
      }

      .cls-4 {
        fill: #ff623d;
      }
    </style>
  </defs>
  <g id="Group_3539" data-name="Group 3539" transform="translate(-140 -2479)">
    <g id="Group_1912" data-name="Group 1912" transform="translate(-492 4)">
      <circle id="Ellipse_396" data-name="Ellipse 396" class="cls-1" cx="17.5" cy="17.5" r="17.5" transform="translate(647 2486)"/>
      <circle id="Ellipse_395" data-name="Ellipse 395" class="cls-2" cx="17.5" cy="17.5" r="17.5" transform="translate(632 2475)"/>
      <g id="Group_3541" data-name="Group 3541" transform="translate(75.299 17.008)">
        <path id="Path_3070" data-name="Path 3070" class="cls-3" d="M218.825,36.89a4.1,4.1,0,0,1-3.118,1.523c-2.455,0-4.016-2.373-4.016-5.3s1.561-5.3,4.016-5.3a4.1,4.1,0,0,1,3.118,1.523L220.156,28a5.781,5.781,0,0,0-4.507-2.309c-3.436,0-5.805,3.321-5.805,7.417s2.37,7.417,5.805,7.417a5.781,5.781,0,0,0,4.507-2.309Z" transform="translate(375.152 2453.133)"/>
        <rect id="Rectangle_1144" data-name="Rectangle 1144" class="cls-3" width="9.352" height="1.735" transform="translate(583.212 2484.114)"/>
        <rect id="Rectangle_1145" data-name="Rectangle 1145" class="cls-3" width="9.352" height="1.735" transform="translate(583.212 2486.643)"/>
      </g>
      <path id="Intersection_2" data-name="Intersection 2" class="cls-4" d="M16.229,34.955A17.511,17.511,0,0,1,32.5,11q.642,0,1.271.046A17.51,17.51,0,0,1,17.5,35Q16.859,35,16.229,34.955Z" transform="translate(632 2475)"/>
    </g>
    <g id="Group_3664" data-name="Group 3664" transform="translate(-398.162 24.131)">
      <path id="Path_3072" data-name="Path 3072" class="cls-3" d="M563.254,388.75h3.635l-5.2-8.7a5.352,5.352,0,0,0,2.743-.7,3.859,3.859,0,0,0,1.617-1.519,4.972,4.972,0,0,0,.836-2.781,4.7,4.7,0,0,0-1.738-3.982,7.142,7.142,0,0,0-4.61-1.327h-3.37v2.577h3.375a4.6,4.6,0,0,1,2.69.665,2.59,2.59,0,0,1,.069,3.923,3.5,3.5,0,0,1-2.245.688h-3.889Z" transform="translate(-6.826 2094.021)"/>
      <rect id="Rectangle_1146" data-name="Rectangle 1146" class="cls-3" width="12.613" height="2.58" transform="translate(549.207 2463.754)"/>
      <rect id="Rectangle_1147" data-name="Rectangle 1147" class="cls-3" width="12.613" height="2.58" transform="translate(549.207 2467.481)"/>
    </g>
  </g>
</svg>
