<svg xmlns="http://www.w3.org/2000/svg" xmlns:xlink="http://www.w3.org/1999/xlink" width="32.139" height="29.568" viewBox="0 0 32.139 29.568">
  <defs>
    <clipPath id="clip-path">
      <rect id="Rectangle_2331" data-name="Rectangle 2331" width="10.928" height="10.931" fill="#fff"/>
    </clipPath>
    <clipPath id="clip-path-2">
      <rect id="Rectangle_2391" data-name="Rectangle 2391" width="14.143" height="14.137" fill="#fff"/>
    </clipPath>
  </defs>
  <g id="Group_3796" data-name="Group 3796" transform="translate(0 0)">
    <g id="Group_1912" data-name="Group 1912" transform="translate(0 0)">
      <circle id="Ellipse_396" data-name="Ellipse 396" cx="11.249" cy="11.249" r="11.249" transform="translate(9.642 7.071)" fill="#2070df" style="mix-blend-mode: multiply;isolation: isolate"/>
      <circle id="Ellipse_395" data-name="Ellipse 395" cx="11.249" cy="11.249" r="11.249" transform="translate(0)" fill="#4cc3ff"/>
      <g id="Group_3970" data-name="Group 3970" transform="translate(15.426 12.856)">
        <g id="Group_3903" data-name="Group 3903" clip-path="url(#clip-path)">
          <path id="Path_8725" data-name="Path 8725" d="M5.827,10.93H5.1c-.13-.016-.26-.03-.389-.048A5.385,5.385,0,0,1,1.877,9.588,5.359,5.359,0,0,1,.084,6.417C.049,6.222.028,6.026,0,5.83V5.1A.826.826,0,0,0,.02,5,4.834,4.834,0,0,1,.445,3.308,5.371,5.371,0,0,1,5.033.025,5.054,5.054,0,0,1,7.415.364a5.449,5.449,0,0,1,3.463,5.851A5.264,5.264,0,0,1,9.608,9.027a5.376,5.376,0,0,1-3.318,1.84c-.154.024-.308.042-.463.063M5.471,6.146v0c-.394,0-.79-.02-1.183,0a1.8,1.8,0,0,0-1.7,1.738.771.771,0,0,0,.29.667,3.967,3.967,0,0,0,3.095.908,4.026,4.026,0,0,0,1.97-.817.916.916,0,0,0,.391-.892,1.813,1.813,0,0,0-1.645-1.6c-.4-.019-.81,0-1.215,0m1.8-2.7a1.8,1.8,0,1,0-1.8,1.807,1.8,1.8,0,0,0,1.8-1.807" transform="translate(0 0.001)" fill="#fff"/>
        </g>
      </g>
      <path id="Intersection_2" data-name="Intersection 2" d="M15.79,26.4A11.256,11.256,0,0,1,26.249,11q.413,0,.817.03a11.255,11.255,0,0,1-10.459,15.4Q16.195,26.427,15.79,26.4Z" transform="translate(-5.358 -3.929)" fill="#4cc3ff" style="mix-blend-mode: multiply;isolation: isolate"/>
    </g>
    <g id="Group_3969" data-name="Group 3969" transform="translate(4.504 3.863)">
      <g id="Group_3969-2" data-name="Group 3969" clip-path="url(#clip-path-2)">
        <path id="Path_8900" data-name="Path 8900" d="M175.442,172.086a7.27,7.27,0,0,1-.171.761,3.847,3.847,0,0,1-3.15,2.767,3.974,3.974,0,1,1,3.189-4.93c.057.206.089.419.132.629Zm-3.395.2c0-.336,0-.671,0-1.007a.583.583,0,1,0-1.165-.006q0,1.014,0,2.028a.583.583,0,1,0,1.165.006c0-.34,0-.68,0-1.021m-1.165-2.512a.583.583,0,1,0,1.165.032.583.583,0,1,0-1.165-.032" transform="translate(-161.299 -161.536)" fill="#fff"/>
        <path id="Path_8901" data-name="Path 8901" d="M66.566,0c.1.028.193.052.287.085a1.606,1.606,0,0,1,1,.981.138.138,0,0,0,.158.109c.17-.006.341-.006.511,0a.438.438,0,0,1,.458.449c.007.326.011.654-.01.98a1.012,1.012,0,0,1-1,.929q-1.63,0-3.259,0A1.035,1.035,0,0,1,63.67,2.513c-.006-.29,0-.58,0-.87a.446.446,0,0,1,.445-.466c.184-.009.368,0,.552-.007a.159.159,0,0,0,.119-.074A1.625,1.625,0,0,1,66.061.02.134.134,0,0,0,66.1,0h.47" transform="translate(-61.318)" fill="#fff"/>
        <path id="Path_8902" data-name="Path 8902" d="M8.237,48a1.621,1.621,0,0,1,1.784,1.563c.006.525,0,1.049,0,1.574,0,.027,0,.054-.007.083-.218.024-.432.044-.644.072a5.03,5.03,0,0,0-1.466.456.7.7,0,0,1-.288.067q-2.686.006-5.372,0a.435.435,0,0,0-.121.861,1.382,1.382,0,0,0,.22.012H6.554l-.078.1c-.22.277-.444.551-.656.833a.219.219,0,0,1-.2.106q-1.678,0-3.356,0a.465.465,0,0,0-.463.283.443.443,0,0,0,.441.6c.465,0,.93,0,1.395,0H5.3c-.075.329-.147.651-.225.971-.006.026-.045.052-.074.061a.374.374,0,0,1-.11,0c-.865,0-1.731,0-2.6,0a.7.7,0,0,0-.316.071.406.406,0,0,0-.19.473.427.427,0,0,0,.426.325q1.312,0,2.624,0h.179a5.285,5.285,0,0,0,.489,2.068H1.637A1.611,1.611,0,0,1,0,56.954q0-3.694,0-7.387a1.612,1.612,0,0,1,1.767-1.575c0,.231,0,.464,0,.7a1.609,1.609,0,0,0,.557,1.244,1.517,1.517,0,0,0,1.017.4q1.664.006,3.328,0a1.591,1.591,0,0,0,1.564-1.485c.016-.28,0-.561,0-.847" transform="translate(0 -46.214)" fill="#fff"/>
      </g>
    </g>
  </g>
</svg>
