<svg xmlns="http://www.w3.org/2000/svg" xmlns:xlink="http://www.w3.org/1999/xlink" width="30" height="28" viewBox="0 0 50 46">
  <defs>
    <style>
      .cls-1 {
        fill: #fff;
      }

      .cls-2 {
        fill: #2070df;
      }

      .cls-2, .cls-4 {
        mix-blend-mode: multiply;
        isolation: isolate;
      }

      .cls-3, .cls-4 {
        fill: #4cc3ff;
      }

      .cls-5 {
        clip-path: url(#clip-path);
      }
    </style>
    <clipPath id="clip-path">
      <rect id="Rectangle_2388" data-name="Rectangle 2388" class="cls-1" width="19.068" height="19.067"/>
    </clipPath>
  </defs>
  <g id="Group_3798" data-name="Group 3798" transform="translate(-140 -2222)">
    <g id="Group_1912" data-name="Group 1912" transform="translate(-492 -253)">
      <circle id="Ellipse_396" data-name="Ellipse 396" class="cls-2" cx="17.5" cy="17.5" r="17.5" transform="translate(647 2486)"/>
      <circle id="Ellipse_395" data-name="Ellipse 395" class="cls-3" cx="17.5" cy="17.5" r="17.5" transform="translate(632 2475)"/>
      <path id="Polygon_111" data-name="Polygon 111" class="cls-1" d="M6.79,2.816a2,2,0,0,1,3.419,0l4.946,8.146A2,2,0,0,1,13.446,14H3.554a2,2,0,0,1-1.71-3.038Z" transform="translate(674.5 2495.154) rotate(90)"/>
      <path id="Intersection_2" data-name="Intersection 2" class="cls-4" d="M16.229,34.955A17.511,17.511,0,0,1,32.5,11q.642,0,1.271.046A17.51,17.51,0,0,1,17.5,35Q16.859,35,16.229,34.955Z" transform="translate(632 2475)"/>
    </g>
    <g id="Group_3965" data-name="Group 3965" transform="translate(147.932 2229.921)">
      <g id="Group_3965-2" data-name="Group 3965" class="cls-5">
        <path id="Path_8892" data-name="Path 8892" class="cls-1" d="M.022,129.693H19.086v.209q0,4.351,0,8.7a3.267,3.267,0,0,1-3.311,3.3q-6.219,0-12.438,0a3.267,3.267,0,0,1-3.314-3.319q0-4.341,0-8.682v-.213m10.723,1.8a.888.888,0,0,0-.871.671q-.389,1.116-.775,2.233-.782,2.251-1.564,4.5a.886.886,0,0,0,.473,1.139.9.9,0,0,0,1.223-.6c.388-1.109.771-2.22,1.156-3.33.4-1.141.8-2.28,1.187-3.423a.874.874,0,0,0-.83-1.2m-5.89,4.145c.591-.588,1.17-1.156,1.738-1.732a.873.873,0,0,0,.011-1.271.882.882,0,0,0-1.274.026Q4.158,133.828,3,135a.871.871,0,0,0,0,1.3q1.161,1.173,2.334,2.334a.889.889,0,1,0,1.248-1.264c-.514-.52-1.034-1.035-1.551-1.552-.051-.05-.1-.1-.167-.175m9.4,0c-.067.071-.115.123-.166.174-.521.522-1.046,1.042-1.564,1.567a.881.881,0,0,0-.028,1.273.891.891,0,0,0,1.275-.009c.209-.2.411-.409.616-.614.573-.573,1.149-1.143,1.718-1.72a.864.864,0,0,0,.062-1.256q-1.209-1.237-2.447-2.445a.885.885,0,1,0-1.19,1.31c.566.57,1.137,1.135,1.724,1.72" transform="translate(-0.02 -122.841)"/>
        <path id="Path_8893" data-name="Path 8893" class="cls-1" d="M19.066,5.055H.017A1.373,1.373,0,0,1,0,4.912C0,4.325,0,3.738,0,3.152A3.285,3.285,0,0,1,2.776.04,4.567,4.567,0,0,1,3.346,0Q9.534,0,15.722,0A3.258,3.258,0,0,1,19,2.644a4.883,4.883,0,0,1,.062.9c.009.5,0,1,0,1.507M13.391,3.566c.685,0,1.369,0,2.054,0a.886.886,0,1,0,.019-1.77q-2.064-.01-4.128,0a.868.868,0,0,0-.9.916.867.867,0,0,0,.918.852c.678,0,1.356,0,2.034,0m-9.8-1.75a.856.856,0,0,0-.9.87.88.88,0,0,0,.877.88.891.891,0,0,0,.9-.878.862.862,0,0,0-.882-.871m2.679,0a.85.85,0,0,0-.892.852.87.87,0,0,0,.873.9.881.881,0,0,0,.9-.88.861.861,0,0,0-.879-.872" transform="translate(0 0)"/>
      </g>
    </g>
  </g>
</svg>
