<svg xmlns="http://www.w3.org/2000/svg" xmlns:xlink="http://www.w3.org/1999/xlink" width="30" height="28" viewBox="0 0 50 46">
  <defs>
    <style>
      .cls-1 {
        fill: #fff;
      }

      .cls-2 {
        fill: #2070df;
      }

      .cls-2, .cls-4 {
        mix-blend-mode: multiply;
        isolation: isolate;
      }

      .cls-3, .cls-4 {
        fill: #4cc3ff;
      }

      .cls-5 {
        clip-path: url(#clip-path);
      }
    </style>
    <clipPath id="clip-path">
      <rect id="Rectangle_2389" data-name="Rectangle 2389" class="cls-1" width="18.433" height="16.018"/>
    </clipPath>
  </defs>
  <g id="Group_3799" data-name="Group 3799" transform="translate(-140 -2222)">
    <g id="Group_1912" data-name="Group 1912" transform="translate(-492 -253)">
      <circle id="Ellipse_396" data-name="Ellipse 396" class="cls-2" cx="17.5" cy="17.5" r="17.5" transform="translate(647 2486)"/>
      <circle id="Ellipse_395" data-name="Ellipse 395" class="cls-3" cx="17.5" cy="17.5" r="17.5" transform="translate(632 2475)"/>
      <path id="Polygon_112" data-name="Polygon 112" class="cls-1" d="M6.264,3.039a2,2,0,0,1,3.473,0l4.554,7.969A2,2,0,0,1,12.554,14H3.446A2,2,0,0,1,1.71,11.008Z" transform="translate(674.5 2495) rotate(90)"/>
      <path id="Intersection_2" data-name="Intersection 2" class="cls-4" d="M16.229,34.955A17.511,17.511,0,0,1,32.5,11q.642,0,1.271.046A17.51,17.51,0,0,1,17.5,35Q16.859,35,16.229,34.955Z" transform="translate(632 2475)"/>
    </g>
    <g id="Group_3966" data-name="Group 3966" transform="translate(147.784 2230.919)">
      <g id="Group_3966-2" data-name="Group 3966" class="cls-5">
        <path id="Path_8894" data-name="Path 8894" class="cls-1" d="M0,13.917V2.108c.01-.014.028-.027.03-.042A2.491,2.491,0,0,1,2.588,0c2.07.028,4.14.007,6.21.007q3.573,0,7.146,0a2.442,2.442,0,0,1,2.489,2.5q0,5.517,0,11.034a2.489,2.489,0,0,1-.06.569,2.435,2.435,0,0,1-2.426,1.909c-1.65,0-3.3,0-4.95,0q-4.239,0-8.478,0A2.452,2.452,0,0,1,.162,14.442c-.066-.17-.109-.35-.162-.525M9.757,5.442c0-.894,0-1.787,0-2.681a.54.54,0,0,0-.583-.583.551.551,0,0,0-.5.615q0,2.645,0,5.289a.237.237,0,0,1-.156.256,1.554,1.554,0,0,0-.935,1.475,1.552,1.552,0,0,0,.936,1.474.235.235,0,0,1,.155.256c-.007.57,0,1.139,0,1.709a.552.552,0,0,0,.3.535.537.537,0,0,0,.783-.511c.006-.588,0-1.175,0-1.763a.2.2,0,0,1,.134-.215,1.555,1.555,0,0,0,.955-1.48A1.557,1.557,0,0,0,9.9,8.332.214.214,0,0,1,9.754,8.1c.006-.887,0-1.775,0-2.663M3.988,10.613c0,.894,0,1.787,0,2.681a.525.525,0,0,0,.568.553.535.535,0,0,0,.491-.595q0-2.663,0-5.325A.214.214,0,0,1,5.189,7.7,1.562,1.562,0,0,0,6.15,6.219a1.563,1.563,0,0,0-.963-1.5.211.211,0,0,1-.141-.23c.006-.57,0-1.139,0-1.709a.829.829,0,0,0-.029-.247.527.527,0,0,0-1.028.147q-.01.908,0,1.817a.211.211,0,0,1-.147.225,1.564,1.564,0,0,0-.958,1.481,1.559,1.559,0,0,0,.951,1.485.225.225,0,0,1,.153.24c-.005.893,0,1.787,0,2.681m9.4-.007c0,.894,0,1.787,0,2.681a.528.528,0,0,0,.579.56.535.535,0,0,0,.48-.587q0-2.663,0-5.325a.213.213,0,0,1,.136-.233,1.562,1.562,0,0,0,.967-1.493,1.566,1.566,0,0,0-.972-1.49.2.2,0,0,1-.131-.217c0-.57,0-1.139,0-1.709a.866.866,0,0,0-.026-.248.528.528,0,0,0-1.031.152q-.008.9,0,1.8a.21.21,0,0,1-.14.229A1.562,1.562,0,0,0,12.283,6.2a1.565,1.565,0,0,0,.961,1.5.212.212,0,0,1,.143.228c-.005.893,0,1.787,0,2.681" transform="translate(0 0)"/>
        <path id="Path_8895" data-name="Path 8895" class="cls-1" d="M180.935,192.779a.569.569,0,1,1-.569-.577.589.589,0,0,1,.569.577" transform="translate(-171.15 -182.958)"/>
        <path id="Path_8896" data-name="Path 8896" class="cls-1" d="M83.43,117.879a.559.559,0,1,1-.564-.573.569.569,0,0,1,.564.573" transform="translate(-78.353 -111.664)"/>
        <path id="Path_8897" data-name="Path 8897" class="cls-1" d="M278.8,117.889a.56.56,0,1,1-.553-.583.57.57,0,0,1,.553.583" transform="translate(-264.323 -111.664)"/>
      </g>
    </g>
  </g>
</svg>
