<svg xmlns="http://www.w3.org/2000/svg" xmlns:xlink="http://www.w3.org/1999/xlink" width="31" height="28.52" viewBox="0 0 31 28.52">
  <defs>
    <clipPath id="clip-path">
      <rect id="Rectangle_2387" data-name="Rectangle 2387" width="12.584" height="12.581" fill="#fff"/>
    </clipPath>
    <clipPath id="clip-path-2">
      <rect id="Rectangle_2390" data-name="Rectangle 2390" width="9.877" height="10.953" fill="#fff"/>
    </clipPath>
  </defs>
  <g id="Group_3795" data-name="Group 3795" transform="translate(0 0)">
    <g id="Group_1912" data-name="Group 1912" transform="translate(0 0)">
      <circle id="Ellipse_396" data-name="Ellipse 396" cx="10.85" cy="10.85" r="10.85" transform="translate(9.3 6.82)" fill="#2070df" style="mix-blend-mode: multiply;isolation: isolate"/>
      <circle id="Ellipse_395" data-name="Ellipse 395" cx="10.85" cy="10.85" r="10.85" transform="translate(0)" fill="#4cc3ff"/>
      <g id="Group_3967" data-name="Group 3967" transform="translate(14.169 11.07)">
        <g id="Group_3963" data-name="Group 3963" clip-path="url(#clip-path)">
          <path id="Path_8891" data-name="Path 8891" d="M0,6.28a6.292,6.292,0,1,1,6.225,6.3A6.306,6.306,0,0,1,0,6.28M5.077,9.787a2.181,2.181,0,0,0,1.442-.512,7.373,7.373,0,0,0,.547-.531.567.567,0,1,0-.811-.792c-.131.128-.256.261-.389.387A1.145,1.145,0,0,1,4.247,6.72c.126-.133.259-.259.387-.39a.567.567,0,1,0-.8-.8c-.125.121-.249.243-.371.368A2.231,2.231,0,0,0,2.8,7.415,2.272,2.272,0,0,0,5.077,9.787M9.785,5.024c-.007-.066-.014-.2-.035-.323A2.284,2.284,0,0,0,6.424,3.068a3.541,3.541,0,0,0-.959.844.545.545,0,0,0,.071.75.568.568,0,0,0,.766,0c.14-.131.27-.273.409-.4A1.145,1.145,0,0,1,8.333,5.872c-.126.133-.259.259-.386.39a.567.567,0,1,0,.8.8q.193-.185.38-.377a2.3,2.3,0,0,0,.659-1.664M5.753,7.479a1.094,1.094,0,0,0,.312-.162c.426-.407.84-.827,1.252-1.247A.516.516,0,0,0,7.461,5.6a.553.553,0,0,0-.386-.455.54.54,0,0,0-.579.139c-.278.271-.551.548-.825.823-.139.139-.284.273-.413.42a.532.532,0,0,0-.088.611.611.611,0,0,0,.584.341" transform="translate(0 -0.001)" fill="#fff"/>
        </g>
      </g>
      <path id="Intersection_2" data-name="Intersection 2" d="M15.762,25.852A10.857,10.857,0,0,1,25.85,11q.4,0,.788.029A10.856,10.856,0,0,1,16.55,25.88Q16.153,25.88,15.762,25.852Z" transform="translate(-5.7 -4.18)" fill="#4cc3ff" style="mix-blend-mode: multiply;isolation: isolate"/>
    </g>
    <g id="Group_3968" data-name="Group 3968" transform="translate(6.2 5.45)">
      <g id="Group_3968-2" data-name="Group 3968" clip-path="url(#clip-path-2)">
        <path id="Path_8898" data-name="Path 8898" d="M.968,0H6.036a.041.041,0,0,1,.041.041c0,.847,0,1.694,0,2.541a1.481,1.481,0,0,0,.039.35A1.132,1.132,0,0,0,7.252,3.8c.827,0,1.654,0,2.481,0h.1a.042.042,0,0,1,.042.041V3.9c0,2.65,0,3.287,0,5.937A1.129,1.129,0,0,1,8.76,10.951q-3.817,0-7.634,0A1.13,1.13,0,0,1,0,9.822c0-3.57,0-5.127,0-8.7A1.11,1.11,0,0,1,.308.359,1.3,1.3,0,0,1,.956,0L.968,0M5.3,5.808h.089c.594,0,1.189,0,1.783,0a.382.382,0,0,0,.392-.514.4.4,0,0,0-.416-.245H3.485a.829.829,0,0,0-.088,0,.381.381,0,0,0-.329.513.4.4,0,0,0,.4.245H5.3m.01,1.519c.624,0,1.248,0,1.872,0a.38.38,0,0,0,.383-.512.4.4,0,0,0-.415-.247H3.7c-.1,0-.194,0-.291,0a.376.376,0,0,0-.333.533.393.393,0,0,0,.391.225H5.315m.012.76H3.468a.382.382,0,1,0-.005.759c.215,0,.43,0,.645,0q1.524,0,3.048,0a.4.4,0,0,0,.408-.238.378.378,0,0,0-.378-.522c-.62,0-1.239,0-1.859,0M2.278,5.427a.392.392,0,0,0-.38-.379.379.379,0,0,0,0,.758.392.392,0,0,0,.378-.38M1.9,6.568a.379.379,0,0,0-.006.758A.379.379,0,0,0,1.9,6.568m.376,1.895A.392.392,0,0,0,1.9,8.088a.379.379,0,0,0,.008.758.392.392,0,0,0,.375-.383" transform="translate(0 0)" fill="#fff"/>
        <path id="Path_8899" data-name="Path 8899" d="M202.176,9.06l2.65,2.649a.041.041,0,0,1-.028.071h-2.274a.378.378,0,0,1-.418-.412q0-1.139,0-2.278h0a.041.041,0,0,1,.071-.029" transform="translate(-195.268 -8.741)" fill="#fff"/>
      </g>
    </g>
  </g>
</svg>
