<svg xmlns="http://www.w3.org/2000/svg" width="15.001" height="14.167" viewBox="0 0 15.001 14.167">
  <defs>
    <style>
      .cls-1 {
        fill: #1a59b2;
      }
    </style>
  </defs>
  <g id="Group_3529" data-name="Group 3529" transform="translate(-142 -29)">
    <path id="Union_1" data-name="Union 1" class="cls-1" d="M-239,4161.167a1,1,0,0,1-1-1v-.5a1,1,0,0,1,1-1h13a1,1,0,0,1,1,1v.5a1,1,0,0,1-1,1Zm0-5.833a1,1,0,0,1-1-1v-.5a1,1,0,0,1,1-1h8.833a1,1,0,0,1,1,1v.5a1,1,0,0,1-1,1Zm0-5.833a1,1,0,0,1-1-1v-.5a1,1,0,0,1,1-1h13a1,1,0,0,1,1,1v.5a1,1,0,0,1-1,1Z" transform="translate(382 -4118)"/>
  </g>
</svg>
