<svg xmlns="http://www.w3.org/2000/svg" width="13" height="13" viewBox="0 0 20.52 21.598">
  <g id="Group_12586" data-name="Group 12586" transform="translate(0 0)">
    <path id="Path_9357" data-name="Path 9357" d="M1001.9,490.207a1.983,1.983,0,0,0,.106-3.026c-.988-.83-2.058-.591-3.219.375l-5.489,5.478,3.1,2.6Z" transform="translate(-982.146 -486.617)" fill="#fff"/>
    <path id="Path_9358" data-name="Path 9358" d="M1001.028,532.612l-3.275-2.739-2.885,2.861,3.661,3.1a2.3,2.3,0,0,0,2.9-.152A2.04,2.04,0,0,0,1001.028,532.612Z" transform="translate(-983.303 -518.56)" fill="#fff"/>
    <path id="Path_9359" data-name="Path 9359" d="M934.533,486.635c-.563-.4-1.148-.243-.4,1.34,1.341,2.851,3.851,8.647,3.851,8.647s-4.435,10.756-4.493,11a.321.321,0,0,0,.321.422.751.751,0,0,0,.321-.19c2.55-2.411,11.254-9.972,11.31-10.031a1.328,1.328,0,0,0,0-2.1C944.282,494.712,934.545,486.644,934.533,486.635Z" transform="translate(-933.474 -486.451)" fill="#fff"/>
  </g>
</svg>
