<svg xmlns="http://www.w3.org/2000/svg" width="25" height="18" viewBox="0 0 35 25">
  <defs>
    <style>
      .cls-1 {
        fill: #2dd248;
      }

      .cls-2 {
        fill: #1a59b2;
      }

      .cls-3 {
        fill: #4cc3ff;
      }

      .cls-4 {
        fill: #5ce6ff;
      }
    </style>
  </defs>
  <g id="Group_1914" data-name="Group 1914" transform="translate(-139 -421.402)">
    <circle id="Ellipse_440" data-name="Ellipse 440" class="cls-1" cx="3" cy="3" r="3" transform="translate(168 421.402)"/>
    <path id="Subtraction_3" data-name="Subtraction 3" class="cls-2" d="M33,39A13,13,0,0,1,20,26a13.148,13.148,0,0,1,.153-2H45.847A13.145,13.145,0,0,1,46,26,13,13,0,0,1,33,39Z" transform="translate(119 400.402)"/>
    <path id="Subtraction_4" data-name="Subtraction 4" class="cls-3" d="M33,39A13,13,0,0,1,20,26a13.148,13.148,0,0,1,.153-2H45.847A13.145,13.145,0,0,1,46,26,13,13,0,0,1,33,39Z" transform="translate(127 407.402)"/>
    <path id="Intersection_13" data-name="Intersection 13" class="cls-4" d="M9.182,14.433A12.959,12.959,0,0,1,8,9a13.125,13.125,0,0,1,.153-2L25.008,7a12.977,12.977,0,0,1-2.815,4.191A12.911,12.911,0,0,1,13,15a13.046,13.046,0,0,1-3.818-.567Z" transform="translate(139 424.402)"/>
  </g>
</svg>
