<svg xmlns="http://www.w3.org/2000/svg" width="25" height="25" viewBox="0 0 27.988 28.817">
  <defs>
    <style>
      .cls-1 {
        fill: #2dd248;
      }

      .cls-2 {
        fill: #1a59b2;
      }

      .cls-3 {
        fill: #4cc3ff;
      }

      .cls-4 {
        fill: #5ce6ff;
      }
    </style>
  </defs>
  <g id="_02" data-name="02" transform="translate(-161 -413.728)">
    <path id="Polygon_54" data-name="Polygon 54" class="cls-1" d="M3.133,1.508a1,1,0,0,1,1.734,0l2.271,3.95a1,1,0,0,1-.867,1.5H1.729a1,1,0,0,1-.867-1.5Z" transform="translate(174.478 413) rotate(90)"/>
    <path id="Polygon_40" data-name="Polygon 40" class="cls-2" d="M9.766,3.015a2,2,0,0,1,3.468,0L21.277,17a2,2,0,0,1-1.734,3H3.457a2,2,0,0,1-1.734-3Z" transform="translate(181 421) rotate(90)"/>
    <path id="Polygon_41" data-name="Polygon 41" class="cls-3" d="M9.766,3.015a2,2,0,0,1,3.468,0L21.277,17a2,2,0,0,1-1.734,3H3.457a2,2,0,0,1-1.734-3Z" transform="translate(191 421) rotate(90)"/>
    <path id="Intersection_17" data-name="Intersection 17" class="cls-4" d="M10,5.75l6.985,4.016a2,2,0,0,1,0,3.468L10,17.25Z" transform="translate(161 421)"/>
  </g>
</svg>
