<svg xmlns="http://www.w3.org/2000/svg" width="25" height="25" viewBox="0 0 28.994 27.545">
  <defs>
    <style>
      .cls-1 {
        fill: #2070df;
      }

      .cls-2 {
        fill: #4cc3ff;
      }

      .cls-3 {
        fill: #2dd248;
      }

      .cls-4 {
        fill: #5ce6ff;
      }
    </style>
  </defs>
  <g id="_04" data-name="04" transform="translate(-161 -210)">
    <path id="Polygon_31" data-name="Polygon 31" class="cls-1" d="M9.766,3.015a2,2,0,0,1,3.468,0L21.277,17a2,2,0,0,1-1.734,3H3.457a2,2,0,0,1-1.734-3Z" transform="translate(192 216) rotate(90)"/>
    <rect id="Rectangle_1008" data-name="Rectangle 1008" class="cls-2" width="19" height="19" rx="3" transform="translate(161 210)"/>
    <path id="Polygon_36" data-name="Polygon 36" class="cls-2" d="M9.766,3.015a2,2,0,0,1,3.468,0L21.277,17a2,2,0,0,1-1.734,3H3.457a2,2,0,0,1-1.734-3Z" transform="translate(192 216) rotate(90)"/>
    <path id="Polygon_48" data-name="Polygon 48" class="cls-3" d="M3.133,1.508a1,1,0,0,1,1.734,0l2.271,3.95a1,1,0,0,1-.867,1.5H1.729a1,1,0,0,1-.867-1.5Z" transform="translate(191 211) rotate(90)"/>
    <rect id="Rectangle_1009" data-name="Rectangle 1009" class="cls-1" width="19" height="19" rx="3" transform="translate(161 210)"/>
    <path id="Intersection_15" data-name="Intersection 15" class="cls-4" d="M11,19V9.457a2,2,0,0,1,3-1.734L19,10.6V16a3,3,0,0,1-3,3Z" transform="translate(161 210)"/>
  </g>
</svg>
