<svg xmlns="http://www.w3.org/2000/svg" xmlns:xlink="http://www.w3.org/1999/xlink" width="50" height="46" viewBox="0 0 50 46">
  <defs>
    <clipPath id="clip-path">
      <rect id="Rectangle_2382" data-name="Rectangle 2382" width="21.292" height="22.984" fill="#fff"/>
    </clipPath>
  </defs>
  <g id="Group_3550" data-name="Group 3550" transform="translate(-140 -2222)">
    <g id="Group_1912" data-name="Group 1912" transform="translate(-492 -253)">
      <circle id="Ellipse_396" data-name="Ellipse 396" cx="17.5" cy="17.5" r="17.5" transform="translate(647 2486)" fill="#2070df" style="mix-blend-mode: multiply;isolation: isolate"/>
      <circle id="Ellipse_395" data-name="Ellipse 395" cx="17.5" cy="17.5" r="17.5" transform="translate(632 2475)" fill="#4cc3ff"/>
      <path id="Path_3101" data-name="Path 3101" d="M66.492,25.2l-5.08-5.084,1.906-1.907,3.239,3.237,6.562-5.964,1.839,2.02-8.466,7.7" transform="translate(596.588 2483.803)" fill="#fff"/>
      <path id="Intersection_2" data-name="Intersection 2" d="M16.229,34.955A17.511,17.511,0,0,1,32.5,11q.642,0,1.271.046A17.51,17.51,0,0,1,17.5,35Q16.859,35,16.229,34.955Z" transform="translate(632 2475)" fill="#4cc3ff" style="mix-blend-mode: multiply;isolation: isolate"/>
    </g>
    <g id="Group_3957" data-name="Group 3957" transform="translate(146.907 2227.461)">
      <g id="Group_3958" data-name="Group 3958" clip-path="url(#clip-path)">
        <path id="Path_8880" data-name="Path 8880" d="M9.881,22.984c-.382-.057-.765-.107-1.145-.174A10.3,10.3,0,0,1,3.69,20.4,10.385,10.385,0,0,1,.207,14.436,10.627,10.627,0,0,1,6.373,2.6c.212-.093.426-.18.643-.259a.684.684,0,0,1,.91.376A.673.673,0,0,1,7.5,3.6,9.251,9.251,0,0,0,4.768,5.156a9.015,9.015,0,0,0-3.281,5.716,9.03,9.03,0,0,0,2.768,8.191A8.947,8.947,0,0,0,9.52,21.558,9.283,9.283,0,0,0,12.748,3.3c-.064-.015-.13-.022-.2-.032l-.053.063a3.733,3.733,0,0,1,.318.268.677.677,0,1,1-.958.956q-.848-.834-1.681-1.682a.667.667,0,0,1,0-.982q.834-.847,1.682-1.682a.678.678,0,1,1,.963.953c-.194.207-.394.407-.591.611,0,0,0,.013,0,.036.3.062.609.107.908.189a10.346,10.346,0,0,1,7.826,7.82,10.577,10.577,0,0,1-8.126,12.937c-.422.088-.855.125-1.283.187a1.227,1.227,0,0,0-.148.04Z" transform="translate(0 0)" fill="#fff"/>
      </g>
    </g>
  </g>
</svg>
