<svg xmlns="http://www.w3.org/2000/svg" xmlns:xlink="http://www.w3.org/1999/xlink" width="30" height="28" viewBox="0 0 50 46">
  <defs>
    <style>
      .cls-1 {
        fill: #fff;
      }

      .cls-2 {
        fill: #2070df;
      }

      .cls-2, .cls-5 {
        mix-blend-mode: multiply;
        isolation: isolate;
      }

      .cls-3, .cls-5 {
        fill: #4cc3ff;
      }

      .cls-4 {
        clip-path: url(#clip-path);
      }

      .cls-6 {
        clip-path: url(#clip-path-2);
      }
    </style>
    <clipPath id="clip-path">
      <rect id="Rectangle_2380" data-name="Rectangle 2380" class="cls-1" width="16.665" height="11.601"/>
    </clipPath>
    <clipPath id="clip-path-2">
      <rect id="Rectangle_2379" data-name="Rectangle 2379" class="cls-1" width="17.781" height="15.548"/>
    </clipPath>
  </defs>
  <g id="Group_3796" data-name="Group 3796" transform="translate(-140 -2222)">
    <g id="Group_1912" data-name="Group 1912" transform="translate(-492 -253)">
      <circle id="Ellipse_396" data-name="Ellipse 396" class="cls-2" cx="17.5" cy="17.5" r="17.5" transform="translate(647 2486)"/>
      <circle id="Ellipse_395" data-name="Ellipse 395" class="cls-3" cx="17.5" cy="17.5" r="17.5" transform="translate(632 2475)"/>
      <g id="Group_3954" data-name="Group 3954" transform="translate(657.437 2498)">
        <g id="Group_3954-2" data-name="Group 3954" class="cls-4">
          <path id="Path_8877" data-name="Path 8877" class="cls-1" d="M.009,96.034H16.653c0,.062.01.116.01.171,0,1.725,0,3.45,0,5.174a1.8,1.8,0,0,1-1.413,1.846,1.962,1.962,0,0,1-.453.052q-6.464,0-12.928,0A1.815,1.815,0,0,1,.037,101.8,2.181,2.181,0,0,1,0,101.366q0-2.579,0-5.157c0-.055.005-.11.009-.174m13.205,5.42c.356,0,.712,0,1.068,0a.537.537,0,0,0,.564-.548q.011-.534,0-1.068a.521.521,0,0,0-.521-.537q-1.1-.015-2.2,0a.522.522,0,0,0-.53.545c-.007.356-.008.712,0,1.068a.534.534,0,0,0,.554.54c.356,0,.712,0,1.068,0M3.441,98.2c.413,0,.826,0,1.239,0a.358.358,0,1,0,.006-.714q-1.239-.007-2.477,0a.359.359,0,1,0,.011.714c.407,0,.814,0,1.222,0" transform="translate(0 -91.68)"/>
          <path id="Path_8878" data-name="Path 8878" class="cls-1" d="M16.856,2.719H.26C.251,2.709.237,2.7.237,2.693A8.5,8.5,0,0,1,.285,1.427,1.772,1.772,0,0,1,1.978,0c.051,0,.1,0,.153,0H14.992a1.783,1.783,0,0,1,1.853,1.482,7.587,7.587,0,0,1,.011,1.237" transform="translate(-0.226 0)"/>
        </g>
      </g>
      <path id="Intersection_2" data-name="Intersection 2" class="cls-5" d="M16.229,34.955A17.511,17.511,0,0,1,32.5,11q.642,0,1.271.046A17.51,17.51,0,0,1,17.5,35Q16.859,35,16.229,34.955Z" transform="translate(632 2475)"/>
    </g>
    <g id="Group_3953" data-name="Group 3953" transform="translate(149.109 2232.117)">
      <g id="Group_3952" data-name="Group 3952" class="cls-6">
        <path id="Path_8875" data-name="Path 8875" class="cls-1" d="M0,13.66V1.909a.284.284,0,0,0,.036-.072A2.276,2.276,0,0,1,2.37,0c2.853.018,5.705.006,8.558.006.556,0,1.111-.005,1.666,0A1.468,1.468,0,0,1,14.069,1.4c.024.368.01.739.013,1.108,0,.148,0,.3,0,.476.311,0,.6-.016.887,0A1.436,1.436,0,0,1,16.286,4.3c.027.524.012,1.05.015,1.576,0,.015-.013.03-.024.055-.421,0-.843-.009-1.264,0A8.257,8.257,0,0,0,13.8,6a3.321,3.321,0,0,0,.657,6.58c.55,0,1.1,0,1.649,0h.182c0,.556.021,1.088-.005,1.617a1.43,1.43,0,0,1-1.322,1.328c-.409.025-.821.017-1.232.017q-5.7,0-11.4,0A2.2,2.2,0,0,1,.271,14.379,4.807,4.807,0,0,1,0,13.66M12.579,1.493H2.35c-.052,0-.1,0-.156,0a.735.735,0,0,0-.7.736c0,.45.323.735.841.735H12.4c.061,0,.122-.006.183-.009Z" transform="translate(0 -0.001)"/>
        <path id="Path_8876" data-name="Path 8876" class="cls-1" d="M269.479,155.89a.653.653,0,0,1-.7.421c-.885-.015-1.771,0-2.656-.005a2.217,2.217,0,0,1-.367-4.4,2.366,2.366,0,0,1,.379-.032c.856,0,1.713.011,2.569-.008a.743.743,0,0,1,.772.387Zm-3.338-1.071a.731.731,0,1,0-.728-.739.725.725,0,0,0,.728.739" transform="translate(-251.698 -144.83)"/>
      </g>
    </g>
  </g>
</svg>
