<svg xmlns="http://www.w3.org/2000/svg" xmlns:xlink="http://www.w3.org/1999/xlink" width="30" height="28" viewBox="0 0 50 46">
  <defs>
    <style>
      .cls-1 {
        fill: #fff;
      }

      .cls-2 {
        fill: #2070df;
      }

      .cls-2, .cls-4 {
        mix-blend-mode: multiply;
        isolation: isolate;
      }

      .cls-3, .cls-4 {
        fill: #4cc3ff;
      }

      .cls-5 {
        clip-path: url(#clip-path);
      }
    </style>
    <clipPath id="clip-path">
      <rect id="Rectangle_2378" data-name="Rectangle 2378" class="cls-1" width="17.276" height="17.278"/>
    </clipPath>
  </defs>
  <g id="Group_3795" data-name="Group 3795" transform="translate(-140 -2222)">
    <g id="Group_1912" data-name="Group 1912" transform="translate(-492 -253)">
      <circle id="Ellipse_396" data-name="Ellipse 396" class="cls-2" cx="17.5" cy="17.5" r="17.5" transform="translate(647 2486)"/>
      <circle id="Ellipse_395" data-name="Ellipse 395" class="cls-3" cx="17.5" cy="17.5" r="17.5" transform="translate(632 2475)"/>
      <path id="Path_3101" data-name="Path 3101" class="cls-1" d="M66.492,25.2l-5.08-5.084,1.906-1.907,3.239,3.237,6.562-5.964,1.839,2.02-8.466,7.7" transform="translate(596.439 2483.518)"/>
      <path id="Intersection_2" data-name="Intersection 2" class="cls-4" d="M16.229,34.955A17.511,17.511,0,0,1,32.5,11q.642,0,1.271.046A17.51,17.51,0,0,1,17.5,35Q16.859,35,16.229,34.955Z" transform="translate(632 2475)"/>
      <g id="Group_3951" data-name="Group 3951" transform="translate(640.307 2484.039)">
        <g id="Group_3951-2" data-name="Group 3951" class="cls-5">
          <path id="Path_8870" data-name="Path 8870" class="cls-1" d="M64.176,69.292q0-1.719,0-3.437a1.706,1.706,0,0,1,1.738-1.739q3.436,0,6.873,0a1.705,1.705,0,0,1,1.739,1.738q0,3.437,0,6.874a1.705,1.705,0,0,1-1.738,1.74q-3.436,0-6.873,0a1.707,1.707,0,0,1-1.739-1.739q0-1.719,0-3.437" transform="translate(-60.71 -60.652)"/>
          <path id="Path_8871" data-name="Path 8871" class="cls-1" d="M198.848,4.285c0,.606.007,1.213,0,1.819a.857.857,0,0,1-1.01.9.84.84,0,0,1-.7-.706,2.411,2.411,0,0,1-.019-.322c0-1.044,0-2.089,0-3.133a.874.874,0,0,0-1.006-1c-1.071,0-2.142,0-3.213,0a.863.863,0,0,1-.947-.792A.845.845,0,0,1,192.7.123a4.485,4.485,0,0,1,.5-.014c1.111.005,2.224-.015,3.334.027a2.534,2.534,0,0,1,2.285,2.291c.03.618.005,1.239.005,1.859h.019" transform="translate(-181.575 -0.102)"/>
          <path id="Path_8872" data-name="Path 8872" class="cls-1" d="M.146,4.185c0-.512-.005-1.024,0-1.536A2.576,2.576,0,0,1,2.756.01C3.881-.008,5.006,0,6.131.008a.857.857,0,0,1,.909.719.845.845,0,0,1-.579.965,1.449,1.449,0,0,1-.418.049c-1.071,0-2.142,0-3.213,0a.842.842,0,0,0-.894.578,1.418,1.418,0,0,0-.051.417c0,1.051,0,2.1,0,3.154a1.86,1.86,0,0,1-.027.362.859.859,0,0,1-.877.66.812.812,0,0,1-.809-.73c-.027-.666-.007-1.333-.007-2H.146" transform="translate(-0.137 0)"/>
          <path id="Path_8873" data-name="Path 8873" class="cls-1" d="M4.181,198.854c-.552,0-1.106.024-1.657,0a2.54,2.54,0,0,1-2.5-2.528c-.035-1.165-.015-2.331-.006-3.5a.839.839,0,0,1,.723-.863.838.838,0,0,1,.953.567,1.466,1.466,0,0,1,.054.437c0,1.051,0,2.1,0,3.153a.876.876,0,0,0,1,1c1.071,0,2.142,0,3.213,0a.866.866,0,0,1,.952.809.822.822,0,0,1-.755.907c-.659.028-1.32.007-1.98.007v.008" transform="translate(0 -181.585)"/>
          <path id="Path_8874" data-name="Path 8874" class="cls-1" d="M198.871,194.621c0,.613.025,1.227-.005,1.839a2.526,2.526,0,0,1-2.309,2.309c-1.238.042-2.478.028-3.718.02a.828.828,0,0,1-.846-.74.843.843,0,0,1,.586-.942,1.485,1.485,0,0,1,.418-.047q1.607-.005,3.213,0a.847.847,0,0,0,.87-.528,1.289,1.289,0,0,0,.069-.474c.006-1.051,0-2.1,0-3.154a1.807,1.807,0,0,1,.027-.362.86.86,0,0,1,.88-.655.813.813,0,0,1,.805.734c.026.666.007,1.333.007,2h0" transform="translate(-181.616 -181.523)"/>
        </g>
      </g>
    </g>
  </g>
</svg>
