<svg xmlns="http://www.w3.org/2000/svg" width="28.994" height="28.132" viewBox="0 0 28.994 28.132">
  <defs>
    <style>
      .cls-1 {
        fill: #4cc3ff;
      }

      .cls-2 {
        fill: #2dd248;
      }

      .cls-3 {
        fill: #1a59b2;
      }

      .cls-4 {
        fill: #5ce6ff;
      }
    </style>
  </defs>
  <g id="_03" data-name="03" transform="translate(-161 -308)">
    <g id="Group_1913" data-name="Group 1913">
      <path id="Polygon_38" data-name="Polygon 38" class="cls-1" d="M9.879,2.979a2,2,0,0,1,3.459,0l8.135,14.01a2,2,0,0,1-1.73,3H3.474a2,2,0,0,1-1.73-3Z" transform="translate(189.996 314.391) rotate(90)"/>
      <path id="Polygon_53" data-name="Polygon 53" class="cls-2" d="M3.133,1.508a1,1,0,0,1,1.734,0l2.271,3.95a1,1,0,0,1-.867,1.5H1.729a1,1,0,0,1-.867-1.5Z" transform="translate(191 311.862) rotate(90)"/>
      <circle id="Ellipse_443" data-name="Ellipse 443" class="cls-3" cx="9.5" cy="9.5" r="9.5" transform="translate(161 308)"/>
      <path id="Intersection_16" data-name="Intersection 16" class="cls-4" d="M9,18.987V9.865a2,2,0,0,1,3-1.73L18.667,12A9.5,9.5,0,0,1,9.5,19Q9.251,19,9,18.987Z" transform="translate(161 308)"/>
    </g>
  </g>
</svg>
