<svg xmlns="http://www.w3.org/2000/svg" xmlns:xlink="http://www.w3.org/1999/xlink" width="30" height="28" viewBox="0 0 50 46">
  <defs>
    <style>
      .cls-1 {
        fill: #fff;
      }

      .cls-2 {
        fill: #2070df;
      }

      .cls-2, .cls-5 {
        mix-blend-mode: multiply;
        isolation: isolate;
      }

      .cls-3, .cls-5 {
        fill: #4cc3ff;
      }

      .cls-4 {
        clip-path: url(#clip-path);
      }

      .cls-6 {
        clip-path: url(#clip-path-2);
      }
    </style>
    <clipPath id="clip-path">
      <rect id="Rectangle_2386" data-name="Rectangle 2386" class="cls-1" width="16.489" height="12.359"/>
    </clipPath>
    <clipPath id="clip-path-2">
      <rect id="Rectangle_2385" data-name="Rectangle 2385" class="cls-1" width="18.858" height="19.693"/>
    </clipPath>
  </defs>
  <g id="Group_3796" data-name="Group 3796" transform="translate(-140 -2222)">
    <g id="Group_1912" data-name="Group 1912" transform="translate(-492 -253)">
      <path id="Ellipse_396" data-name="Ellipse 396" class="cls-2" d="M17.5,0A17.5,17.5,0,1,1,0,17.5,17.5,17.5,0,0,1,17.5,0Z" transform="translate(647 2486)"/>
      <circle id="Ellipse_395" data-name="Ellipse 395" class="cls-3" cx="17.5" cy="17.5" r="17.5" transform="translate(632 2475)"/>
      <g id="Group_3962" data-name="Group 3962" transform="translate(657 2498)">
        <g id="Group_3962-2" data-name="Group 3962" class="cls-4">
          <path id="Path_8889" data-name="Path 8889" class="cls-1" d="M16.585,80.53v7.6a.159.159,0,0,0-.025.04,1.518,1.518,0,0,1-1.586,1.245H1.68A1.517,1.517,0,0,1,.1,87.834q0-3.565,0-7.13c0-.056,0-.112.008-.186l.1.062L6.88,85.03a2.471,2.471,0,0,0,2.918.006q3.306-2.2,6.61-4.406c.057-.038.118-.067.178-.1" transform="translate(-0.096 -77.055)"/>
          <path id="Path_8890" data-name="Path 8890" class="cls-1" d="M16.488,1.768a.223.223,0,0,0-.029.054,1.425,1.425,0,0,1-.627.917Q12.463,4.988,9.091,7.232a1.44,1.44,0,0,1-1.692,0Q4.015,4.988.642,2.728a1.445,1.445,0,0,1-.6-1.564A1.516,1.516,0,0,1,1.265.03,2.549,2.549,0,0,1,1.648,0Q8.231,0,14.814,0a1.528,1.528,0,0,1,1.655,1.26c0,.009.013.017.019.025Z" transform="translate(0.001 0)"/>
        </g>
      </g>
      <path id="Intersection_2" data-name="Intersection 2" class="cls-5" d="M16.229,34.955A17.511,17.511,0,0,1,32.5,11q.642,0,1.271.046A17.51,17.51,0,0,1,17.5,35Q16.859,35,16.229,34.955Z" transform="translate(632 2475)"/>
    </g>
    <g id="Group_3961" data-name="Group 3961" transform="translate(150.56 2230.153)">
      <g id="Group_3961-2" data-name="Group 3961" class="cls-6">
        <path id="Path_8887" data-name="Path 8887" class="cls-1" d="M12.655,3.6H11.8c-.052,0-.1,0-.186-.009V3.342c0-.531,0-1.063,0-1.594a.7.7,0,0,0-.711-.7q-1.218,0-2.437,0a.615.615,0,0,0-.6.372.742.742,0,0,1-.74.462c-.554-.009-1.108-.006-1.662,0A.642.642,0,0,1,4.8,1.458a.656.656,0,0,0-.665-.418c-.782.006-1.564,0-2.345,0a.7.7,0,0,0-.749.755c0,5.6,0,8.491,0,14.094a.7.7,0,0,0,.751.754h9.063a.714.714,0,0,0,.759-.774c0-1.435,0-.155,0-1.59v-.269h1.041v.253c0,2.126,0,1.537,0,3.663a1.671,1.671,0,0,1-1.772,1.765H1.752A1.662,1.662,0,0,1,0,17.935c0-6.3,0-9.888,0-16.19A1.66,1.66,0,0,1,1.74,0h9.177a1.667,1.667,0,0,1,1.737,1.73c0,.613,0,1.226,0,1.868M6.344,18.835a.688.688,0,1,0,.011-1.376.681.681,0,0,0-.7.677.719.719,0,0,0,.694.7" transform="translate(0.001 0)"/>
        <path id="Path_8888" data-name="Path 8888" class="cls-1" d="M85.463,77.537a4.314,4.314,0,0,0-4.285-3.3c-1.9-.01-3.809,0-5.714,0a4.316,4.316,0,0,0-4.4,4.333c-.034,2.261-.008,4.523-.008,6.785v.176l.084.058a1.355,1.355,0,0,1,.142-.207c.808-.812,1.622-1.619,2.426-2.435a.5.5,0,0,1,.4-.161q3.54.007,7.079,0a5.984,5.984,0,0,0,.7-.043,4.275,4.275,0,0,0,3.571-5.207M75.071,78.959a.427.427,0,0,1-.408-.41.406.406,0,0,1,.418-.413.4.4,0,0,1,.4.4.418.418,0,0,1-.415.423m5.336-2.409H79.293a.874.874,0,0,1,.286.55h.828v.535h-.814a1.228,1.228,0,0,1-.279.634.991.991,0,0,1-.513.326v.015a1.17,1.17,0,0,1,.557.293,1.729,1.729,0,0,1,.359.7,10.8,10.8,0,0,1,.3,1.473H78.831q-.1-.711-.183-1.092a3.085,3.085,0,0,0-.147-.531.882.882,0,0,0-.154-.245.809.809,0,0,0-.586-.205H76.742v-.667h.748a1.482,1.482,0,0,0,.733-.158.685.685,0,0,0,.33-.546h-1.81V77.1h1.8a.624.624,0,0,0-.311-.421,1.3,1.3,0,0,0-.619-.128h-.865v-.535h3.665Zm1.361,2.409a.434.434,0,0,1-.417-.427.415.415,0,0,1,.416-.4.39.39,0,0,1,.408.394.415.415,0,0,1-.407.429" transform="translate(-66.727 -69.717)"/>
      </g>
    </g>
  </g>
</svg>
