<svg xmlns="http://www.w3.org/2000/svg" xmlns:xlink="http://www.w3.org/1999/xlink" width="30" height="28" viewBox="0 0 50 46">
  <defs>
    <style>
      .cls-1 {
        fill: #fff;
      }

      .cls-2 {
        fill: #2070df;
      }

      .cls-2, .cls-5 {
        mix-blend-mode: multiply;
        isolation: isolate;
      }

      .cls-3, .cls-5 {
        fill: #4cc3ff;
      }

      .cls-4 {
        clip-path: url(#clip-path);
      }

      .cls-6 {
        clip-path: url(#clip-path-2);
      }
    </style>
    <clipPath id="clip-path">
      <rect id="Rectangle_2384" data-name="Rectangle 2384" class="cls-1" width="13.788" height="18.372"/>
    </clipPath>
    <clipPath id="clip-path-2">
      <rect id="Rectangle_2383" data-name="Rectangle 2383" class="cls-1" width="16.652" height="18.559"/>
    </clipPath>
  </defs>
  <g id="Group_3797" data-name="Group 3797" transform="translate(-140 -2222)">
    <g id="Group_1912" data-name="Group 1912" transform="translate(-492 -253)">
      <circle id="Ellipse_396" data-name="Ellipse 396" class="cls-2" cx="17.5" cy="17.5" r="17.5" transform="translate(647 2486)"/>
      <circle id="Ellipse_395" data-name="Ellipse 395" class="cls-3" cx="17.5" cy="17.5" r="17.5" transform="translate(632 2475)"/>
      <g id="Group_3960" data-name="Group 3960" transform="translate(658.321 2494.221)">
        <g id="Group_3960-2" data-name="Group 3960" class="cls-4">
          <path id="Path_8885" data-name="Path 8885" class="cls-1" d="M62,4.593c-.873,0-1.746,0-2.619,0a.247.247,0,0,1-.246-.126q-.55-.881-1.115-1.753a.668.668,0,0,1-.056-.741.658.658,0,0,1,.646-.336c.19.006.421-.052.559.036s.163.318.234.488q.314.751.624,1.5a.351.351,0,0,0,.29.258c.268.028.429-.21.317-.483-.279-.678-.563-1.354-.845-2.031-.069-.165-.14-.329-.2-.5A.651.651,0,0,1,60.215,0q1.767,0,3.534,0a.657.657,0,0,1,.643.954c-.34.827-.687,1.651-1.032,2.476-.06.142-.079.3.05.394a.416.416,0,0,0,.322.076.457.457,0,0,0,.231-.244q.4-.919.77-1.849A.226.226,0,0,1,65,1.635c.166.015.335,0,.5.009a.636.636,0,0,1,.542.936c-.389.664-.817,1.306-1.236,1.952-.027.042-.122.057-.186.057-.873,0-1.746,0-2.619,0" transform="translate(-55.102 0)"/>
          <path id="Path_8886" data-name="Path 8886" class="cls-1" d="M13.332,77.329a17.192,17.192,0,0,0-2.994-5.3.3.3,0,0,0-.212-.084c-.753-.006-1.507,0-2.26,0-.419,0-.837,0-1.256,0a.328.328,0,0,1-.363-.351c.012-.185.15-.3.375-.3h3.983a1.651,1.651,0,0,1,1.62,1.051c.1.225.284.314.47.227a.346.346,0,0,0,.138-.49,2.347,2.347,0,0,0-1.454-1.318c-.071-.024-.144-.045-.278-.086.076-.048.118-.07.154-.1a2.515,2.515,0,0,0,.974-1.825.357.357,0,0,0-.312-.424c-.19-.014-.338.141-.356.368a1.927,1.927,0,0,1-.769,1.419.83.83,0,0,1-.543.184q-3.516-.01-7.032,0a.811.811,0,0,0-.387.1.447.447,0,0,0-.186.518.515.515,0,0,0,.512.373c.46,0,.921,0,1.381,0a.478.478,0,0,1,.207.038.293.293,0,0,1,.169.342.322.322,0,0,1-.337.265c-.311.005-.622,0-.933.006a.285.285,0,0,0-.194.085,17.6,17.6,0,0,0-2.816,4.8A7.778,7.778,0,0,0,.08,80.871a2.887,2.887,0,0,0,1.846,2.346,6.514,6.514,0,0,0,.7.2h8.542a.346.346,0,0,1,.079-.033,2.875,2.875,0,0,0,1.789-1,3.434,3.434,0,0,0,.748-2.21,7.985,7.985,0,0,0-.45-2.848M8.606,75.8H7.356a.982.982,0,0,1,.321.617h.93v.6H7.693a1.378,1.378,0,0,1-.313.712,1.113,1.113,0,0,1-.576.366v.016a1.313,1.313,0,0,1,.625.329,1.941,1.941,0,0,1,.4.79A12.119,12.119,0,0,1,8.17,80.88H6.837q-.115-.8-.206-1.226a3.478,3.478,0,0,0-.165-.6.99.99,0,0,0-.173-.276.908.908,0,0,0-.658-.23H4.493V77.8h.839a1.664,1.664,0,0,0,.823-.177.769.769,0,0,0,.37-.613H4.493v-.6H6.508a.7.7,0,0,0-.35-.473,1.464,1.464,0,0,0-.7-.144H4.493v-.6H8.606Z" transform="translate(0 -65.047)"/>
        </g>
      </g>
      <path id="Intersection_2" data-name="Intersection 2" class="cls-5" d="M16.229,34.955A17.511,17.511,0,0,1,32.5,11q.642,0,1.271.046A17.51,17.51,0,0,1,17.5,35Q16.859,35,16.229,34.955Z" transform="translate(632 2475)"/>
    </g>
    <g id="Group_3959" data-name="Group 3959" transform="translate(149.347 2230.441)">
      <g id="Group_3959-2" data-name="Group 3959" class="cls-6">
        <path id="Path_8882" data-name="Path 8882" class="cls-1" d="M8.323,49.508a8.328,8.328,0,1,1,8.32-8.723,8.321,8.321,0,0,1-8.32,8.723M7.41,39.322c0,.606,0,1.213,0,1.819a.976.976,0,0,0,.307.735c.588.586,1.173,1.175,1.762,1.76a.923.923,0,0,0,1.349.042.913.913,0,0,0-.045-1.347c-.463-.466-.928-.93-1.4-1.388a.45.45,0,0,1-.145-.359c.006-1.025.005-2.05,0-3.075A.915.915,0,1,0,7.411,37.5c0,.606,0,1.213,0,1.819" transform="translate(0 -30.949)"/>
        <path id="Path_8883" data-name="Path 8883" class="cls-1" d="M194.133,3.8a3.037,3.037,0,0,1-.506-.215c-.948-.62-1.891-1.249-2.832-1.879a.923.923,0,0,1-.255-1.28A.914.914,0,0,1,191.8.144q1.448.949,2.879,1.923a.9.9,0,0,1,.359,1.05,1.024,1.024,0,0,1-.9.68" transform="translate(-179.362 0)"/>
        <path id="Path_8884" data-name="Path 8884" class="cls-1" d="M17.062,3.878a.975.975,0,0,1-.942-.564.9.9,0,0,1,.175-1,1.7,1.7,0,0,1,.27-.215q1.349-.9,2.7-1.8a.928.928,0,1,1,1.028,1.543c-.919.612-1.834,1.229-2.758,1.832a2.652,2.652,0,0,1-.474.21" transform="translate(-15.11 -0.113)"/>
      </g>
    </g>
  </g>
</svg>
